<?xml version="1.0"?> <svg xmlns="http://www.w3.org/2000/svg" width="177" height="35" viewBox="0 0 177 35" fill="none"><g clip-path="url(#clip0_320_995)"><path d="M63.3376 27.905C63.156 27.665 62.9279 27.4719 62.6536 27.3273C62.3383 27.161 61.981 27.0775 61.5806 27.0775C61.0913 27.0775 60.6522 27.1997 60.2627 27.4435C59.8733 27.6874 59.5656 28.0168 59.3398 28.4309C59.1134 28.8454 59.0005 29.3113 59.0005 29.8289C59.0005 30.3466 59.1134 30.8124 59.3398 31.227C59.5656 31.6416 59.8738 31.9688 60.2627 32.2089C60.6522 32.4494 61.0913 32.5694 61.5806 32.5694C61.981 32.5694 62.3405 32.486 62.6596 32.3196C62.9334 32.1767 63.1598 31.9852 63.3382 31.7463V32.4581H64.35V27.1882H63.3382V27.905H63.3376ZM62.9487 31.1212C62.6448 31.4577 62.2445 31.6257 61.7475 31.6257C61.4137 31.6257 61.1175 31.5483 60.8579 31.3928C60.5982 31.2374 60.3964 31.0252 60.2518 30.7551C60.1073 30.4851 60.0353 30.1726 60.0353 29.8175C60.0353 29.4624 60.1073 29.1613 60.2518 28.8912C60.3964 28.6212 60.5966 28.4085 60.8524 28.2536C61.1082 28.0981 61.4028 28.0207 61.7366 28.0207C62.0705 28.0207 62.3612 28.0965 62.6094 28.2481C62.8576 28.3998 63.0523 28.6125 63.1931 28.8858C63.3338 29.1596 63.4042 29.4738 63.4042 29.8289C63.4042 30.3542 63.252 30.7851 62.9481 31.1212H62.9487Z" fill="white"></path><path d="M69.5472 27.377C69.2395 27.1773 68.8855 27.0775 68.4851 27.0775C68.0847 27.0775 67.7253 27.1681 67.4067 27.3492C67.1667 27.4855 66.9665 27.659 66.8061 27.869V27.1882H65.8052V32.4581H66.8061V29.3849C66.8061 29.1187 66.8656 28.882 66.984 28.6747C67.1023 28.4679 67.2654 28.3048 67.4733 28.1865C67.6805 28.0681 67.9178 28.0092 68.1851 28.0092C68.5855 28.0092 68.9095 28.1385 69.1582 28.3976C69.4064 28.6567 69.5308 28.9856 69.5308 29.3849V32.4581H70.5427V29.1853C70.5427 28.8231 70.4538 28.481 70.2759 28.1592C70.0981 27.8374 69.8554 27.5766 69.5477 27.377H69.5472Z" fill="white"></path><path d="M78.1009 27.3437C77.6672 27.0998 77.1757 26.9777 76.6275 26.9777C76.0793 26.9777 75.5988 27.1015 75.1651 27.3491C74.7314 27.5968 74.3883 27.9301 74.1363 28.3474C73.8843 28.7652 73.7583 29.237 73.7583 29.7618C73.7583 30.2865 73.8843 30.7731 74.1363 31.1986C74.3883 31.6241 74.7314 31.9606 75.1651 32.2083C75.5988 32.4559 76.0859 32.5797 76.6275 32.5797C77.1692 32.5797 77.6688 32.4559 78.1063 32.2083C78.5438 31.9606 78.8885 31.6224 79.1406 31.1931C79.3926 30.7644 79.5186 30.2871 79.5186 29.7618C79.5186 29.2365 79.3909 28.7636 79.1351 28.3419C78.8793 27.9203 78.5345 27.5875 78.1009 27.3437ZM77.845 30.5162C77.7299 30.7306 77.5668 30.9008 77.3557 31.0268C77.1446 31.1528 76.9014 31.2155 76.6275 31.2155C76.3537 31.2155 76.1235 31.1528 75.9157 31.0268C75.7078 30.9013 75.5469 30.7311 75.4318 30.5162C75.3167 30.3018 75.2595 30.0542 75.2595 29.7727C75.2595 29.4912 75.3167 29.2441 75.4318 29.0292C75.5469 28.8148 75.7078 28.6463 75.9157 28.5246C76.123 28.4025 76.3602 28.3414 76.6275 28.3414C76.8948 28.3414 77.1408 28.4025 77.3448 28.5246C77.5488 28.6468 77.7119 28.8148 77.8341 29.0292C77.9563 29.2436 78.0174 29.4918 78.0174 29.7727C78.0174 30.0536 77.9601 30.3018 77.845 30.5162Z" fill="white"></path><path d="M83.9952 27.1163C83.7911 27.0312 83.556 26.9886 83.2888 26.9886C82.6882 26.9886 82.2283 27.179 81.9098 27.5598C81.906 27.5641 81.9027 27.569 81.8989 27.5739V27.0994H80.4419V32.4576H81.8989V29.5066C81.8989 29.0997 81.9971 28.8002 82.1934 28.6082C82.3898 28.4162 82.644 28.3196 82.9549 28.3196C83.1033 28.3196 83.2348 28.3403 83.3499 28.3807C83.4649 28.4216 83.5631 28.4898 83.6444 28.5858L84.5565 27.5319C84.3857 27.3399 84.1986 27.2008 83.9952 27.1157V27.1163Z" fill="white"></path><path d="M86.7406 28.5252C86.9517 28.403 87.1912 28.3419 87.4579 28.3419C87.6952 28.3419 87.9118 28.3828 88.1087 28.4641C88.3051 28.5454 88.4698 28.6676 88.6035 28.8301L89.5597 27.8761C89.2929 27.5804 88.9815 27.3568 88.6258 27.2051C88.2702 27.0535 87.8807 26.9777 87.4579 26.9777C86.9092 26.9777 86.4161 27.0998 85.9791 27.3437C85.5417 27.5875 85.1969 27.9224 84.9449 28.3479C84.6929 28.7734 84.5669 29.2523 84.5669 29.7847C84.5669 30.3171 84.6929 30.7742 84.9449 31.1991C85.1969 31.6246 85.5417 31.9612 85.9791 32.2088C86.4166 32.4565 86.9059 32.5803 87.447 32.5803C87.8769 32.5803 88.2718 32.5007 88.6313 32.3419C88.9907 32.1832 89.3 31.9557 89.5597 31.6595L88.6258 30.7164C88.4774 30.8789 88.3067 31.0033 88.1142 31.0879C87.9211 31.173 87.7029 31.2155 87.4579 31.2155C87.1912 31.2155 86.9517 31.1528 86.7406 31.0268C86.5295 30.9013 86.3643 30.7311 86.2459 30.5162C86.127 30.3018 86.0681 30.0542 86.0681 29.7727C86.0681 29.4912 86.1275 29.2441 86.2459 29.0292C86.3643 28.8148 86.5295 28.6463 86.7406 28.5246V28.5252Z" fill="white"></path><path d="M94.0556 27.6056C93.9067 27.4524 93.7333 27.3236 93.5331 27.2211C93.2292 27.0656 92.8883 26.9882 92.5103 26.9882C92.0134 26.9882 91.5704 27.1103 91.1815 27.3542C90.7926 27.598 90.4866 27.9313 90.264 28.3524C90.0415 28.7735 89.9302 29.2508 89.9302 29.7837C89.9302 30.3167 90.0415 30.782 90.264 31.2036C90.4866 31.6253 90.792 31.958 91.1815 32.2019C91.571 32.4457 92.0101 32.5679 92.4994 32.5679C92.885 32.5679 93.2314 32.4904 93.5391 32.335C93.7376 32.2346 93.91 32.108 94.0562 31.9569V32.4571H95.5241V27.0989H94.0562V27.6051L94.0556 27.6056ZM93.7665 30.8163C93.5145 31.0902 93.1845 31.2265 92.777 31.2265C92.5174 31.2265 92.2839 31.1638 92.0766 31.0378C91.8688 30.9123 91.7079 30.7422 91.5928 30.5272C91.4777 30.3129 91.4204 30.0614 91.4204 29.7728C91.4204 29.4843 91.4777 29.2443 91.5928 29.0293C91.7079 28.815 91.8672 28.6448 92.0712 28.5188C92.2752 28.3933 92.5103 28.33 92.7776 28.33C93.0449 28.33 93.2892 28.3911 93.4894 28.5133C93.6896 28.6355 93.8489 28.8073 93.9678 29.0293C94.0862 29.2514 94.1457 29.5028 94.1457 29.7837C94.1457 30.1978 94.0196 30.542 93.7676 30.8153L93.7665 30.8163Z" fill="white"></path><path d="M102.672 27.5483C102.537 27.4168 102.378 27.3056 102.194 27.2161C101.883 27.0645 101.53 26.9886 101.137 26.9886C100.655 26.9886 100.222 27.1054 99.8365 27.3383C99.4508 27.5712 99.1486 27.8876 98.9299 28.2869C98.7111 28.6862 98.6021 29.1373 98.6021 29.6402C98.6021 30.1432 98.7111 30.5981 98.9299 31.005C99.1486 31.412 99.4508 31.7316 99.8365 31.9645C100.222 32.1974 100.656 32.3142 101.137 32.3142C101.53 32.3142 101.88 32.2367 102.189 32.0813C102.369 31.9902 102.526 31.8794 102.661 31.7491V32.2144C102.661 32.6066 102.527 32.9191 102.261 33.152C101.994 33.385 101.638 33.5017 101.193 33.5017C100.83 33.5017 100.521 33.4368 100.265 33.3075C100.009 33.1782 99.777 32.9911 99.5697 32.7473L98.6359 33.6681C98.9026 34.0379 99.2528 34.3243 99.6865 34.5277C100.12 34.7312 100.626 34.8327 101.205 34.8327C101.783 34.8327 102.279 34.7236 102.717 34.5054C103.154 34.2872 103.497 33.9784 103.745 33.5791C103.994 33.1799 104.118 32.7173 104.118 32.1925V27.1005H102.672V27.5489V27.5483ZM102.122 30.8163C101.926 30.927 101.69 30.9827 101.416 30.9827C101.164 30.9827 100.936 30.9254 100.732 30.8108C100.528 30.6963 100.37 30.537 100.259 30.3335C100.148 30.1301 100.092 29.8993 100.092 29.6402C100.092 29.3811 100.15 29.1613 100.265 28.9578C100.38 28.7544 100.535 28.5956 100.732 28.4805C100.928 28.366 101.16 28.3087 101.427 28.3087C101.693 28.3087 101.916 28.366 102.116 28.4805C102.316 28.5951 102.47 28.7544 102.578 28.9578C102.685 29.1613 102.739 29.3926 102.739 29.6511C102.739 29.9097 102.685 30.141 102.578 30.3444C102.47 30.5479 102.318 30.705 102.121 30.8157L102.122 30.8163Z" fill="white"></path><path d="M108.948 27.1163C108.744 27.0312 108.509 26.9886 108.242 26.9886C107.641 26.9886 107.181 27.179 106.863 27.5598C106.859 27.5641 106.856 27.569 106.852 27.5739V27.0994H105.395V32.4576H106.852V29.5066C106.852 29.0997 106.95 28.8002 107.147 28.6082C107.343 28.4162 107.597 28.3196 107.908 28.3196C108.056 28.3196 108.188 28.3403 108.303 28.3807C108.418 28.4216 108.516 28.4898 108.598 28.5858L109.51 27.5319C109.339 27.3399 109.152 27.2008 108.948 27.1157L108.948 27.1163Z" fill="white"></path><path d="M113.863 27.3437C113.429 27.0998 112.937 26.9777 112.389 26.9777C111.841 26.9777 111.36 27.1015 110.927 27.3491C110.493 27.5968 110.15 27.9301 109.898 28.3474C109.646 28.7652 109.52 29.237 109.52 29.7618C109.52 30.2865 109.646 30.7731 109.898 31.1986C110.15 31.6241 110.493 31.9606 110.927 32.2083C111.36 32.4559 111.848 32.5797 112.389 32.5797C112.93 32.5797 113.431 32.4559 113.868 32.2083C114.306 31.9606 114.65 31.6224 114.902 31.1931C115.154 30.7644 115.28 30.2871 115.28 29.7618C115.28 29.2365 115.153 28.7636 114.897 28.3419C114.641 27.9203 114.296 27.5875 113.863 27.3437ZM113.607 30.5162C113.492 30.7306 113.329 30.9008 113.117 31.0268C112.906 31.1528 112.663 31.2155 112.389 31.2155C112.115 31.2155 111.885 31.1528 111.677 31.0268C111.47 30.9013 111.309 30.7311 111.194 30.5162C111.078 30.3018 111.021 30.0542 111.021 29.7727C111.021 29.4912 111.078 29.2441 111.194 29.0292C111.309 28.8148 111.47 28.6463 111.677 28.5246C111.885 28.4025 112.123 28.3414 112.389 28.3414C112.656 28.3414 112.903 28.4025 113.107 28.5246C113.311 28.6468 113.474 28.8148 113.596 29.0292C113.718 29.2436 113.779 29.4918 113.779 29.7727C113.779 30.0536 113.722 30.3018 113.607 30.5162Z" fill="white"></path><path d="M119.462 30.1725C119.462 30.5052 119.377 30.7643 119.207 30.9492C119.036 31.1342 118.798 31.2264 118.495 31.2264C118.294 31.2264 118.12 31.186 117.972 31.1042C117.824 31.0229 117.712 30.9029 117.638 30.7436C117.564 30.5849 117.527 30.3939 117.527 30.1725V27.0992H116.059V30.2058C116.059 30.6716 116.163 31.0823 116.371 31.4375C116.578 31.7926 116.867 32.068 117.238 32.2639C117.608 32.4597 118.027 32.5579 118.495 32.5579C118.962 32.5579 119.379 32.4597 119.745 32.2639C120.112 32.068 120.399 31.7926 120.607 31.4375C120.815 31.0823 120.919 30.6721 120.919 30.2058V27.0992H119.462V30.1725H119.462Z" fill="white"></path><path d="M126.395 27.3547C125.999 27.1108 125.552 26.9886 125.055 26.9886C124.67 26.9886 124.321 27.0699 124.01 27.2325C123.83 27.3268 123.671 27.4403 123.532 27.5729V27.0994H122.075V34.7099H123.52V31.994C123.662 32.1293 123.825 32.2433 124.01 32.3354C124.321 32.4909 124.67 32.5684 125.055 32.5684C125.551 32.5684 125.996 32.4462 126.389 32.2024C126.782 31.9585 127.091 31.6252 127.317 31.2041C127.543 30.7825 127.657 30.3095 127.657 29.7842C127.657 29.2589 127.545 28.7746 127.323 28.3529C127.1 27.9312 126.791 27.5985 126.394 27.3547H126.395ZM125.984 30.5223C125.869 30.7405 125.711 30.9123 125.512 31.0383C125.312 31.1643 125.078 31.227 124.811 31.227C124.545 31.227 124.305 31.1643 124.094 31.0383C123.883 30.9128 123.723 30.7405 123.616 30.5223C123.508 30.3041 123.454 30.0548 123.454 29.7733C123.454 29.4919 123.512 29.2448 123.627 29.0298C123.742 28.8155 123.901 28.6453 124.105 28.5193C124.309 28.3938 124.54 28.3305 124.8 28.3305C125.074 28.3305 125.312 28.3933 125.512 28.5193C125.712 28.6453 125.869 28.8149 125.984 29.0298C126.099 29.2442 126.157 29.4924 126.157 29.7733C126.157 30.0542 126.099 30.3041 125.984 30.5223Z" fill="white"></path><path d="M132.517 28.2699C132.776 28.1183 133.072 28.0425 133.406 28.0425C133.681 28.0425 133.937 28.0927 134.174 28.1925C134.411 28.2923 134.611 28.4385 134.774 28.6305L135.442 27.965C135.19 27.6765 134.889 27.4566 134.541 27.305C134.192 27.1533 133.814 27.0775 133.407 27.0775C132.888 27.0775 132.419 27.1981 132 27.4381C131.581 27.6786 131.251 28.0059 131.011 28.4199C130.769 28.8345 130.649 29.3003 130.649 29.818C130.649 30.3357 130.769 30.7928 131.011 31.2101C131.252 31.6279 131.581 31.959 132 32.2029C132.419 32.4467 132.888 32.5689 133.407 32.5689C133.814 32.5689 134.195 32.4914 134.547 32.3359C134.899 32.1805 135.198 31.9623 135.442 31.6814L134.786 31.0159C134.615 31.2084 134.413 31.3541 134.18 31.4539C133.946 31.5537 133.688 31.6039 133.407 31.6039C133.073 31.6039 132.777 31.5265 132.517 31.371C132.258 31.2155 132.054 31.005 131.906 30.7388C131.757 30.4726 131.683 30.1655 131.683 29.818C131.683 29.4705 131.757 29.1634 131.906 28.8972C132.054 28.631 132.258 28.4221 132.517 28.2705L132.517 28.2699Z" fill="white"></path><path d="M140.13 27.4381C139.711 27.1981 139.242 27.0775 138.724 27.0775C138.205 27.0775 137.749 27.1997 137.334 27.4435C136.919 27.6874 136.589 28.0147 136.344 28.4254C136.1 28.8356 135.977 29.2965 135.977 29.8066C135.977 30.3166 136.099 30.7922 136.344 31.2101C136.589 31.6279 136.919 31.959 137.334 32.2029C137.749 32.4467 138.212 32.5689 138.724 32.5689C139.235 32.5689 139.711 32.4467 140.13 32.2029C140.549 31.959 140.881 31.6279 141.126 31.2101C141.37 30.7922 141.493 30.3242 141.493 29.8066C141.493 29.2889 141.371 28.834 141.126 28.4199C140.881 28.0059 140.549 27.6786 140.13 27.4381ZM140.236 30.7328C140.088 31.0028 139.884 31.2155 139.625 31.3704C139.365 31.5259 139.065 31.6034 138.724 31.6034C138.383 31.6034 138.105 31.5259 137.846 31.3704C137.586 31.215 137.382 31.0028 137.234 30.7328C137.086 30.4628 137.012 30.154 137.012 29.8066C137.012 29.4591 137.086 29.1629 137.234 28.8967C137.383 28.6305 137.586 28.4216 137.846 28.2699C138.105 28.1183 138.398 28.0425 138.724 28.0425C139.05 28.0425 139.363 28.1183 139.619 28.2699C139.875 28.4216 140.079 28.6305 140.231 28.8967C140.382 29.1629 140.459 29.4662 140.459 29.8066C140.459 30.1469 140.385 30.4628 140.236 30.7328Z" fill="white"></path><path d="M149.753 27.3213C149.449 27.1588 149.104 27.0775 148.719 27.0775C148.333 27.0775 148.007 27.161 147.695 27.3273C147.384 27.4937 147.13 27.7234 146.934 28.0152C146.93 28.0207 146.927 28.0261 146.923 28.0316C146.919 28.0245 146.916 28.0168 146.911 28.0092C146.737 27.7135 146.5 27.4839 146.199 27.3213C145.899 27.1588 145.563 27.0775 145.193 27.0775C144.823 27.0775 144.474 27.161 144.17 27.3273C143.946 27.4501 143.757 27.6088 143.603 27.8025V27.1888H142.602V32.4587H143.603V29.2747C143.603 29.0085 143.662 28.7827 143.781 28.5978C143.899 28.4129 144.055 28.2688 144.248 28.1652C144.44 28.0616 144.659 28.0097 144.904 28.0097C145.267 28.0097 145.569 28.1227 145.811 28.3479C146.052 28.5738 146.172 28.8825 146.172 29.2742V32.4581H147.173V29.2742C147.173 29.008 147.233 28.7821 147.351 28.5972C147.469 28.4123 147.627 28.2683 147.823 28.1647C148.02 28.061 148.24 28.0092 148.485 28.0092C148.841 28.0092 149.139 28.1221 149.38 28.3474C149.621 28.5732 149.741 28.882 149.741 29.2736V32.4576H150.753V29.074C150.753 28.66 150.662 28.3048 150.481 28.0092C150.299 27.7135 150.057 27.4839 149.753 27.3213Z" fill="white"></path><path d="M156.197 27.4435C155.807 27.1997 155.372 27.0775 154.89 27.0775C154.497 27.0775 154.14 27.161 153.817 27.3273C153.533 27.4741 153.297 27.6699 153.111 27.9148V27.1888H152.11V34.6662H153.111V31.7376C153.293 31.9808 153.525 32.175 153.806 32.3201C154.128 32.4865 154.49 32.57 154.89 32.57C155.372 32.57 155.808 32.45 156.197 32.2094C156.586 31.9694 156.892 31.6421 157.114 31.2275C157.337 30.8135 157.448 30.3477 157.448 29.8295C157.448 29.3113 157.337 28.846 157.114 28.4314C156.892 28.0174 156.586 27.6879 156.197 27.4441V27.4435ZM156.197 30.7551C156.052 31.0252 155.853 31.2379 155.601 31.3928C155.349 31.5483 155.057 31.6257 154.723 31.6257C154.39 31.6257 154.106 31.5483 153.85 31.3928C153.595 31.2373 153.398 31.0252 153.261 30.7551C153.124 30.4851 153.056 30.1764 153.056 29.8289C153.056 29.4814 153.126 29.1618 153.267 28.8912C153.408 28.6212 153.604 28.4085 153.856 28.2536C154.108 28.0981 154.397 28.0207 154.723 28.0207C155.049 28.0207 155.349 28.0981 155.601 28.2536C155.853 28.409 156.052 28.6218 156.197 28.8912C156.341 29.1613 156.414 29.47 156.414 29.8175C156.414 30.1649 156.341 30.4851 156.197 30.7551Z" fill="white"></path><path d="M162.588 27.9051C162.406 27.6651 162.178 27.472 161.904 27.3269C161.588 27.1605 161.231 27.077 160.831 27.077C160.341 27.077 159.902 27.1992 159.513 27.443C159.124 27.6869 158.816 28.0163 158.59 28.4304C158.363 28.8449 158.25 29.3108 158.25 29.8284C158.25 30.3461 158.363 30.8119 158.59 31.2265C158.816 31.6411 159.124 31.9684 159.513 32.2084C159.902 32.4489 160.341 32.5689 160.831 32.5689C161.231 32.5689 161.59 32.4855 161.909 32.3191C162.183 32.1762 162.409 31.9847 162.588 31.7458V32.4576H163.599V27.1878H162.588V27.9045V27.9051ZM162.198 31.1212C161.894 31.4578 161.494 31.6258 160.997 31.6258C160.663 31.6258 160.367 31.5483 160.107 31.3929C159.848 31.2374 159.646 31.0252 159.501 30.7552C159.357 30.4852 159.285 30.1726 159.285 29.8175C159.285 29.4624 159.357 29.1613 159.501 28.8913C159.646 28.6213 159.846 28.4085 160.102 28.2536C160.358 28.0982 160.652 28.0207 160.986 28.0207C161.32 28.0207 161.611 28.0965 161.859 28.2482C162.107 28.3998 162.302 28.6126 162.443 28.8858C162.583 29.1597 162.654 29.4739 162.654 29.829C162.654 30.3543 162.501 30.7852 162.198 31.1212H162.198Z" fill="white"></path><path d="M168.797 27.377C168.49 27.1773 168.135 27.0775 167.735 27.0775C167.335 27.0775 166.975 27.1681 166.657 27.3492C166.417 27.4855 166.216 27.659 166.056 27.869V27.1882H165.055V32.4581H166.056V29.3849C166.056 29.1187 166.116 28.882 166.234 28.6747C166.352 28.4679 166.515 28.3048 166.723 28.1865C166.931 28.0681 167.168 28.0092 167.435 28.0092C167.835 28.0092 168.16 28.1385 168.408 28.3976C168.656 28.6567 168.781 28.9856 168.781 29.3849V32.4581H169.793V29.1853C169.793 28.8231 169.704 28.481 169.526 28.1592C169.348 27.8374 169.105 27.5766 168.798 27.377H168.797Z" fill="white"></path><path d="M174.842 27.1884L173.234 30.9249L171.706 27.1884H170.594L172.668 31.9984L171.373 34.6658H172.485L173.486 32.5024L175.954 27.1884H174.842Z" fill="white"></path></g><path d="M8.4652 19.8212L2.68409 7.22663V19.8212H0V4.02637H4.43908L10.1169 16.4144V4.02637H12.6978V19.8212H8.4652Z" fill="white"></path><path d="M18.3783 14.6592C18.3783 17.0336 19.4106 17.9627 22.0947 17.9627C22.9205 17.9627 23.8497 17.8595 25.0885 17.7562V19.408C22.8173 19.9242 21.6818 20.0274 20.8559 20.0274C17.2427 20.0274 15.2812 17.9627 15.2812 14.2463C15.2812 10.4266 17.3459 8.05225 20.7526 8.05225C23.127 8.05225 24.6755 9.08459 25.3982 11.1493C25.6046 11.8719 25.7079 12.5946 25.7079 14.556H18.3783V14.6592ZM20.4429 9.91048C18.9977 9.91048 18.3783 10.8396 18.3783 12.9043H22.4044C22.4044 10.6331 21.8882 9.91048 20.4429 9.91048Z" fill="white"></path><path d="M31.4865 20.0276C28.9056 20.0276 27.9765 19.0985 27.9765 16.5177V10.2204H26.5312V8.36221H27.9765V5.88457L31.28 4.74902V8.36221H34.5835V10.2204H31.28V16.0015C31.28 17.3436 31.6929 17.7565 33.035 17.7565C33.5511 17.7565 33.8608 17.7565 34.5835 17.6533V19.4082C32.8285 19.9244 32.2091 20.0276 31.4865 20.0276Z" fill="white"></path><path d="M35.4102 19.821V17.8596L41.088 10.2203H35.7198V8.36206H44.7012V10.3235L39.0233 18.066H45.0109V19.9242H35.4102V19.821Z" fill="white"></path><path d="M64.2133 19.8212H59.9807L57.0901 7.32987L54.3028 19.8212H49.9669L45.7344 4.02637H49.3476L52.3413 17.1371L55.3351 4.02637H59.3612L62.4583 17.1371L65.5553 4.02637H68.5491L64.2133 19.8212Z" fill="white"></path><path d="M71.9525 14.6592C71.9525 17.0336 72.9848 17.9627 75.6689 17.9627C76.4948 17.9627 77.4239 17.8595 78.6627 17.7562V19.408C76.3915 19.9242 75.256 20.0274 74.4301 20.0274C70.8169 20.0274 68.8555 17.9627 68.8555 14.2463C68.8555 10.4266 70.9201 8.05225 74.3269 8.05225C76.7012 8.05225 78.2497 9.08459 78.9724 11.1493C79.1789 11.8719 79.2821 12.5946 79.2821 14.556H71.9525V14.6592ZM74.1204 9.91048C72.6751 9.91048 72.0557 10.8396 72.0557 12.9043H76.0818C75.9786 10.6331 75.4625 9.91048 74.1204 9.91048Z" fill="white"></path><path d="M86.1974 10.6334C85.7845 10.6334 84.9586 10.7366 84.5457 10.8399V19.8212H81.2422V8.36224H84.4424V9.1881C85.7845 8.5687 86.9201 8.15576 87.333 8.15576C87.8492 8.15576 88.1589 8.25898 88.5718 8.46545V11.1495C87.9524 10.8398 87.1265 10.6334 86.1974 10.6334Z" fill="white"></path><path d="M96.8336 13.1109L101.066 19.8212H97.1433L93.5301 13.6271V19.8212H90.2266V4.02637H93.5301V13.5239L97.7627 8.36221H101.169L96.8336 13.1109Z" fill="white"></path><path d="M107.366 13.8336H106.024V19.8212H102.617V4.02637H107.572C110.153 4.02637 111.082 4.23282 112.011 4.85223C113.147 5.6781 113.766 6.91692 113.766 8.6719C113.766 12.1819 111.702 13.8336 107.366 13.8336ZM107.572 6.09105H106.127V11.8722H107.572C109.534 11.8722 110.463 10.9431 110.463 8.87838C110.36 7.02017 109.431 6.09105 107.572 6.09105Z" fill="white"></path><path d="M115.414 19.8212V4.02637H118.718V19.8212H115.414Z" fill="white"></path><path d="M127.599 19.821V19.0984C125.844 19.8211 125.224 20.0275 124.295 20.0275C122.127 20.0275 120.785 18.6855 120.785 16.5176C120.785 14.3497 122.024 13.2141 124.502 12.9044C125.431 12.8011 126.36 12.8011 127.495 12.8011V11.872C127.495 10.7365 126.876 10.3235 125.534 10.3235C124.502 10.3235 123.056 10.4267 121.921 10.6332V8.87826C124.192 8.36209 125.534 8.05237 126.67 8.05237C128.012 8.05237 129.147 8.36206 129.767 8.98147C130.489 9.60087 130.799 10.4267 130.799 12.1817V19.821H127.599ZM127.495 14.4529C126.463 14.4529 126.153 14.4529 125.637 14.5561C124.605 14.7626 123.985 15.2787 123.985 16.2078C123.985 17.3434 124.605 17.8596 125.947 17.8596C126.463 17.8596 126.979 17.7564 127.392 17.6531V14.4529H127.495Z" fill="white"></path><path d="M140.5 19.8211V12.5947C140.5 10.943 139.984 10.3236 138.435 10.3236C137.919 10.3236 137.3 10.4268 136.577 10.5301V19.7179H133.273V8.25894H136.474V8.98156C138.538 8.15569 139.261 7.94922 140.293 7.94922C141.429 7.94922 142.461 8.36216 142.977 9.0848C143.597 9.80744 143.803 10.6333 143.803 12.1818V19.6147H140.5V19.8211Z" fill="white"></path><path d="M175.602 0H151.961V23.6406H175.602V0Z" fill="#161616"></path><path d="M174.259 1.23877H153.199V22.2985H174.259V1.23877Z" fill="white"></path><mask id="mask0_320_995" style="mask-type:luminance" maskUnits="userSpaceOnUse" x="155" y="3" width="17" height="18"><path d="M171.992 3.61328H155.578V20.0275H171.992V3.61328Z" fill="white"></path></mask><g mask="url(#mask0_320_995)"><path d="M171.991 36.2352C180.999 36.2352 188.302 28.9326 188.302 19.9243C188.302 10.916 180.999 3.61328 171.991 3.61328C162.982 3.61328 155.68 10.916 155.68 19.9243C155.68 28.9326 162.982 36.2352 171.991 36.2352Z" fill="#161616"></path></g><mask id="mask1_320_995" style="mask-type:luminance" maskUnits="userSpaceOnUse" x="155" y="3" width="17" height="18"><path d="M171.992 3.61328H155.578V20.0275H171.992V3.61328Z" fill="white"></path></mask><g mask="url(#mask1_320_995)"><path d="M174.983 36.0289C183.991 36.0289 191.294 28.7262 191.294 19.7179C191.294 10.7096 183.991 3.40698 174.983 3.40698C165.975 3.40698 158.672 10.7096 158.672 19.7179C158.672 28.7262 165.975 36.0289 174.983 36.0289Z" stroke="white" stroke-width="0.949753" stroke-miterlimit="10"></path></g><mask id="mask2_320_995" style="mask-type:luminance" maskUnits="userSpaceOnUse" x="155" y="3" width="17" height="18"><path d="M171.992 3.61328H155.578V20.0275H171.992V3.61328Z" fill="white"></path></mask><g mask="url(#mask2_320_995)"><path d="M178.909 38.3001C187.917 38.3001 195.22 30.2117 195.22 20.2342C195.22 10.2566 187.917 2.16821 178.909 2.16821C169.9 2.16821 162.598 10.2566 162.598 20.2342C162.598 30.2117 169.9 38.3001 178.909 38.3001Z" stroke="white" stroke-width="0.949753" stroke-miterlimit="10"></path></g><mask id="mask3_320_995" style="mask-type:luminance" maskUnits="userSpaceOnUse" x="155" y="3" width="17" height="18"><path d="M171.992 3.61328H155.578V20.0275H171.992V3.61328Z" fill="white"></path></mask><g mask="url(#mask3_320_995)"><path d="M183.347 40.055C192.241 40.055 199.451 30.6262 199.451 18.9953C199.451 7.3643 192.241 -2.06445 183.347 -2.06445C174.452 -2.06445 167.242 7.3643 167.242 18.9953C167.242 30.6262 174.452 40.055 183.347 40.055Z" stroke="white" stroke-width="0.949753" stroke-miterlimit="10"></path></g><path d="M155.555 14.9688H171.964" stroke="white" stroke-width="0.949753" stroke-miterlimit="10"></path><path d="M155.574 8.36206H171.984" stroke="white" stroke-width="0.949753" stroke-miterlimit="10"></path><defs><clipPath id="clip0_320_995"><rect width="117.089" height="7.89746" fill="white" transform="translate(59.0005 26.9388)"></rect></clipPath></defs></svg>