<svg xmlns="http://www.w3.org/2000/svg" id="Ebene_1" version="1.1" width="370.4" height="109.324"><g id="g5092"><g id="g5090"><path class="st0" d="M46.5 53.4H35.3l-6.6-27.1-6.4 27.1H10.7L0 17.8h10.3l6.8 28.3 6.8-28.3h11l6.9 28.5 6.7-28.5h8.9z" id="path5070" fill="#18429c"></path><path class="st0" d="M67.4 13.4c-4.3 0-6-1.3-6-4.8 0-3.4 1.7-4.7 6-4.7 4.4 0 6.1 1.2 6.1 4.7 0 3.4-1.7 4.8-6.1 4.8zm-5 40V17.8h10.1v35.6z" id="path5072" fill="#18429c"></path><path class="st0" d="M103.6 53.4V31.2c0-5.1-1.7-6.9-6.5-6.9-1.7 0-3.5.2-5.7.7v28.4H81.3V17.8h9.8v2.3c6.4-2.4 8.7-3 11.8-3 3.4 0 6.6 1.4 8.4 3.5 1.8 2.2 2.4 4.7 2.4 9.7v23.1z" id="path5074" fill="#18429c"></path><path class="st0" d="M139.8 53.9c-2.6 0-4.8-.5-7.4-1.7V69h-10.1V17.8h9.8V20c5.3-2.2 7.7-2.9 10-2.9 8.8 0 14.4 6.8 14.4 17.5 0 11.1-7.1 19.3-16.7 19.3zm-2.9-29.5c-1.5 0-2.9.1-4.6.5v22.2c1.2.3 2.4.4 3.7.4 6.4 0 10-4.3 10-11.9.1-7.2-3.2-11.2-9.1-11.2z" id="path5076" fill="#18429c"></path><path class="st0" d="M163.5 53.4V0h10.1v53.4z" id="path5078" fill="#18429c"></path><path class="st0" d="M201.1 53.4v-2.3c-5.4 2.2-7.5 2.8-10.1 2.8-6.6 0-10.8-4.3-10.8-10.8 0-6.7 3.8-10.4 11.5-11 2.9-.3 5.7-.4 9.2-.4v-3c0-3.5-1.8-4.9-6.2-4.9-3.3 0-7.6.4-11.3 1.1v-5.3c6.9-1.7 11.3-2.4 14.6-2.4 4.1 0 7.5 1 9.5 2.8 2.2 1.9 3 4.6 3 10v23.5h-9.4zm-.3-16.6c-3.2.1-4.1.1-5.7.3-3.2.5-5 2.2-5 5.1 0 3.4 2.1 5.1 6.1 5.1 1.5 0 3.1-.2 4.6-.6z" id="path5080" fill="#18429c"></path><path class="st0" d="M241.3 53.4V31.2c0-5.1-1.7-6.9-6.5-6.9-1.7 0-3.5.2-5.7.7v28.4H219V17.8h9.8v2.3c6.4-2.4 8.7-3 11.8-3 3.4 0 6.6 1.4 8.4 3.5 1.8 2.2 2.4 4.7 2.4 9.7v23.1z" id="path5082" fill="#18429c"></path><path class="st1" d="M277.3 53.4v-8.2c4.3-2 10.4-4.8 14.9-7.5 4.8-2.6 6.7-4.8 6.7-7.8 0-3.7-2.6-5.3-8.6-5.3-4.1 0-9.5.8-12.4 1.5v-6.4c2.8-.7 9.5-2.6 15.6-2.6 10.6 0 16 3.7 16 10.8 0 4.3-2 7.7-6 10.6-4.5 3.2-9.6 5.6-13.8 7.2h20v7.8h-32.4z" id="path5084" fill="#eaae00"></path><path class="st1" d="M322.7 54.2c-3.9 0-6-2.1-6-6 0-4 2.1-6.1 6.1-6.1 3.9 0 6 2.1 6 6 .1 4-2.1 6.1-6.1 6.1z" id="path5086" fill="#eaae00"></path><path class="st1" d="M353.1 54.3c-10.8 0-16.7-6.5-16.7-18.3 0-12 6.2-18.9 17.2-18.9 10.9 0 16.8 6.5 16.8 18.4 0 11.9-6.4 18.8-17.3 18.8zm.4-30.4c-4.8 0-6.8 3.4-6.8 12.2 0 8.2 1.9 11.5 6.6 11.5 4.7 0 6.7-3.2 6.7-12.2 0-8.3-1.8-11.5-6.5-11.5z" id="path5088" fill="#eaae00"></path></g></g><g aria-label="App" transform="matrix(1 0 -.13932 1 0 0)" style="line-height:1.25" id="text5096" font-style="normal" font-weight="700" font-size="62.003" font-family="DTL Argo" letter-spacing="0" word-spacing="0" fill="#0a4297" fill-opacity="1" stroke="none" stroke-width="3.18" stroke-miterlimit="4" stroke-dasharray="none" stroke-opacity="1" paint-order="markers stroke fill" font-variant="normal" font-stretch="normal"><path d="M293.48 95.312l-14.447-43.774h-10.54L253.55 95.312h8.308l3.782-12.834h14.075l3.968 12.834zm-15.501-18.787h-10.665l5.27-18.043z" style="-inkscape-font-specification:&#39;DTL Argo Bold&#39;" id="path5146"></path><path d="M328.228 78.447c0-9.672-4.96-15.748-12.897-15.748-2.108 0-4.216.62-8.99 2.604v-1.984h-8.804v46.006h9.052V94.258c2.356 1.054 4.34 1.488 6.634 1.488 8.68 0 15.005-7.316 15.005-17.299zm-9.362.93c0 6.759-3.287 10.665-8.99 10.665-1.117 0-2.233-.124-3.287-.372V69.705a19.162 19.162 0 014.092-.434c5.27 0 8.185 3.596 8.185 10.106z" style="-inkscape-font-specification:&#39;DTL Argo Bold&#39;" id="path5148"></path><path d="M365.163 78.447c0-9.672-4.96-15.748-12.896-15.748-2.109 0-4.217.62-8.99 2.604v-1.984h-8.805v46.006h9.052V94.258c2.356 1.054 4.34 1.488 6.634 1.488 8.68 0 15.005-7.316 15.005-17.299zm-9.362.93c0 6.759-3.286 10.665-8.99 10.665-1.117 0-2.233-.124-3.287-.372V69.705a19.161 19.161 0 014.092-.434c5.27 0 8.185 3.596 8.185 10.106z" style="-inkscape-font-specification:&#39;DTL Argo Bold&#39;" id="path5150"></path></g></svg>