<svg xmlns="http://www.w3.org/2000/svg" id="Ebene_1" viewBox="0 0 370.4 69" version="1.1"><g id="g5"><g id="g7"><path id="path9" fill="#18429c" d="M46.5 53.4H35.3l-6.6-27.1-6.4 27.1H10.7L0 17.8h10.3l6.8 28.3 6.8-28.3h11l6.9 28.5 6.7-28.5h8.9L46.5 53.4z" class="st0" fill-opacity="1"></path><path id="path11" fill="#18429c" d="M67.4 13.4c-4.3 0-6-1.3-6-4.8 0-3.4 1.7-4.7 6-4.7 4.4 0 6.1 1.2 6.1 4.7 0 3.4-1.7 4.8-6.1 4.8zm-5 40V17.8h10.1v35.6H62.4z" class="st0" fill-opacity="1"></path><path id="path13" fill="#18429c" d="M103.6 53.4V31.2c0-5.1-1.7-6.9-6.5-6.9-1.7 0-3.5.2-5.7.7v28.4H81.3V17.8h9.8v2.3c6.4-2.4 8.7-3 11.8-3 3.4 0 6.6 1.4 8.4 3.5 1.8 2.2 2.4 4.7 2.4 9.7v23.1h-10.1z" class="st0" fill-opacity="1"></path><path id="path15" fill="#18429c" d="M139.8 53.9c-2.6 0-4.8-.5-7.4-1.7V69h-10.1V17.8h9.8V20c5.3-2.2 7.7-2.9 10-2.9 8.8 0 14.4 6.8 14.4 17.5 0 11.1-7.1 19.3-16.7 19.3zm-2.9-29.5c-1.5 0-2.9.1-4.6.5v22.2c1.2.3 2.4.4 3.7.4 6.4 0 10-4.3 10-11.9.1-7.2-3.2-11.2-9.1-11.2z" class="st0" fill-opacity="1"></path><path id="path17" fill="#18429c" d="M163.5 53.4V0h10.1v53.4h-10.1z" class="st0" fill-opacity="1"></path><path id="path19" fill="#18429c" d="M201.1 53.4v-2.3c-5.4 2.2-7.5 2.8-10.1 2.8-6.6 0-10.8-4.3-10.8-10.8 0-6.7 3.8-10.4 11.5-11 2.9-.3 5.7-.4 9.2-.4v-3c0-3.5-1.8-4.9-6.2-4.9-3.3 0-7.6.4-11.3 1.1v-5.3c6.9-1.7 11.3-2.4 14.6-2.4 4.1 0 7.5 1 9.5 2.8 2.2 1.9 3 4.6 3 10v23.5h-9.4v-.1zm-.3-16.6c-3.2.1-4.1.1-5.7.3-3.2.5-5 2.2-5 5.1 0 3.4 2.1 5.1 6.1 5.1 1.5 0 3.1-.2 4.6-.6v-9.9z" class="st0" fill-opacity="1"></path><path id="path21" fill="#18429c" d="M241.3 53.4V31.2c0-5.1-1.7-6.9-6.5-6.9-1.7 0-3.5.2-5.7.7v28.4H219V17.8h9.8v2.3c6.4-2.4 8.7-3 11.8-3 3.4 0 6.6 1.4 8.4 3.5 1.8 2.2 2.4 4.7 2.4 9.7v23.1h-10.1z" class="st0" fill-opacity="1"></path><path id="path35" fill="#eaae00" d="M277.3 53.4v-8.2c4.3-2 10.4-4.8 14.9-7.5 4.8-2.6 6.7-4.8 6.7-7.8 0-3.7-2.6-5.3-8.6-5.3-4.1 0-9.5.8-12.4 1.5v-6.4c2.8-.7 9.5-2.6 15.6-2.6 10.6 0 16 3.7 16 10.8 0 4.3-2 7.7-6 10.6-4.5 3.2-9.6 5.6-13.8 7.2h20v7.8h-32.4v-.1z" class="st1"></path><path id="path37" fill="#eaae00" d="M322.7 54.2c-3.9 0-6-2.1-6-6 0-4 2.1-6.1 6.1-6.1 3.9 0 6 2.1 6 6 .1 4-2.1 6.1-6.1 6.1z" class="st1"></path><path id="path39" fill="#eaae00" d="M353.1 54.3c-10.8 0-16.7-6.5-16.7-18.3 0-12 6.2-18.9 17.2-18.9 10.9 0 16.8 6.5 16.8 18.4 0 11.9-6.4 18.8-17.3 18.8zm.4-30.4c-4.8 0-6.8 3.4-6.8 12.2 0 8.2 1.9 11.5 6.6 11.5 4.7 0 6.7-3.2 6.7-12.2 0-8.3-1.8-11.5-6.5-11.5z" class="st1"></path></g></g></svg>