<?xml version="1.0"?> <svg xmlns="http://www.w3.org/2000/svg" xmlns:xlink="http://www.w3.org/1999/xlink" width="99" height="133" viewBox="0 0 99 133" fill="none"><g clip-path="url(#clip0_320_1054)"><path d="M3.66087 126.374C3.50755 126.171 3.31509 126.008 3.08349 125.886C2.81737 125.746 2.51579 125.676 2.17783 125.676C1.76483 125.676 1.39418 125.779 1.06543 125.984C0.736687 126.19 0.477005 126.468 0.286387 126.818C0.0953089 127.168 0 127.561 0 127.998C0 128.435 0.0953089 128.828 0.286387 129.178C0.477005 129.528 0.737147 129.804 1.06543 130.007C1.39418 130.21 1.76483 130.311 2.17783 130.311C2.51579 130.311 2.81921 130.241 3.08856 130.1C3.31969 129.98 3.51077 129.818 3.66133 129.616V130.217H4.51543V125.769H3.66133V126.374H3.66087ZM3.33259 129.089C3.07613 129.373 2.73817 129.515 2.31872 129.515C2.03694 129.515 1.78693 129.449 1.56776 129.318C1.3486 129.187 1.17824 129.008 1.05622 128.78C0.934211 128.552 0.873434 128.288 0.873434 127.988C0.873434 127.689 0.934211 127.434 1.05622 127.206C1.17824 126.979 1.34722 126.799 1.56316 126.668C1.7791 126.537 2.02773 126.472 2.30951 126.472C2.5913 126.472 2.8367 126.536 3.0462 126.664C3.2557 126.792 3.42007 126.971 3.53886 127.202C3.65765 127.433 3.71705 127.698 3.71705 127.998C3.71705 128.441 3.58859 128.805 3.33213 129.089H3.33259Z" fill="white"></path><path d="M8.90464 125.928C8.64496 125.76 8.34614 125.676 8.00818 125.676C7.67023 125.676 7.3668 125.752 7.09791 125.905C6.89532 126.02 6.72635 126.166 6.59098 126.344V125.769H5.74609V130.217H6.59098V127.623C6.59098 127.398 6.64117 127.199 6.74108 127.024C6.84099 126.849 6.97866 126.712 7.15409 126.612C7.32905 126.512 7.52934 126.462 7.75495 126.462C8.0929 126.462 8.3664 126.571 8.57635 126.79C8.78585 127.008 8.89083 127.286 8.89083 127.623V130.217H9.74492V127.455C9.74492 127.149 9.66987 126.86 9.51977 126.589C9.36967 126.317 9.16478 126.097 8.9051 125.928H8.90464Z" fill="white"></path><path d="M16.1225 125.9C15.7565 125.694 15.3416 125.591 14.8789 125.591C14.4162 125.591 14.0105 125.696 13.6445 125.905C13.2784 126.114 12.9888 126.395 12.7761 126.747C12.5634 127.1 12.457 127.498 12.457 127.941C12.457 128.384 12.5634 128.795 12.7761 129.154C12.9888 129.513 13.2784 129.797 13.6445 130.006C14.0105 130.215 14.4217 130.32 14.8789 130.32C15.3361 130.32 15.7578 130.215 16.1271 130.006C16.4964 129.797 16.7874 129.512 17.0001 129.15C17.2128 128.788 17.3192 128.385 17.3192 127.941C17.3192 127.498 17.2114 127.099 16.9955 126.743C16.7795 126.387 16.4885 126.106 16.1225 125.9ZM15.9066 128.578C15.8094 128.759 15.6717 128.903 15.4936 129.009C15.3154 129.115 15.11 129.168 14.8789 129.168C14.6478 129.168 14.4535 129.115 14.278 129.009C14.1026 128.903 13.9668 128.76 13.8696 128.578C13.7725 128.397 13.7241 128.188 13.7241 127.951C13.7241 127.713 13.7725 127.504 13.8696 127.323C13.9668 127.142 14.1026 127 14.278 126.897C14.453 126.794 14.6533 126.742 14.8789 126.742C15.1045 126.742 15.3122 126.794 15.4844 126.897C15.6566 127 15.7942 127.142 15.8974 127.323C16.0005 127.504 16.0521 127.713 16.0521 127.951C16.0521 128.188 16.0037 128.397 15.9066 128.578Z" fill="white"></path><path d="M21.0969 125.708C20.9247 125.636 20.7262 125.6 20.5006 125.6C19.9937 125.6 19.6056 125.761 19.3367 126.082C19.3334 126.086 19.3307 126.09 19.3275 126.094V125.694H18.0977V130.217H19.3275V127.726C19.3275 127.382 19.4103 127.129 19.5761 126.967C19.7418 126.805 19.9564 126.724 20.2189 126.724C20.3441 126.724 20.4551 126.741 20.5522 126.775C20.6494 126.81 20.7322 126.867 20.8008 126.948L21.5707 126.059C21.4266 125.897 21.2686 125.779 21.0969 125.708V125.708Z" fill="white"></path><path d="M23.4129 126.898C23.5911 126.794 23.7933 126.743 24.0184 126.743C24.2187 126.743 24.4015 126.777 24.5677 126.846C24.7334 126.915 24.8725 127.018 24.9853 127.155L25.7924 126.35C25.5673 126.1 25.3044 125.911 25.0042 125.783C24.704 125.655 24.3752 125.591 24.0184 125.591C23.5552 125.591 23.139 125.694 22.7702 125.9C22.4009 126.106 22.1099 126.389 21.8972 126.748C21.6845 127.107 21.5781 127.511 21.5781 127.961C21.5781 128.41 21.6845 128.796 21.8972 129.155C22.1099 129.514 22.4009 129.798 22.7702 130.007C23.1394 130.216 23.5524 130.32 24.0092 130.32C24.372 130.32 24.7054 130.253 25.0088 130.119C25.3122 129.985 25.5733 129.793 25.7924 129.543L25.0042 128.747C24.8789 128.884 24.7348 128.989 24.5723 129.061C24.4093 129.132 24.2251 129.168 24.0184 129.168C23.7933 129.168 23.5911 129.115 23.4129 129.009C23.2348 128.903 23.0952 128.76 22.9953 128.578C22.895 128.397 22.8452 128.188 22.8452 127.951C22.8452 127.713 22.8954 127.504 22.9953 127.323C23.0952 127.142 23.2348 127 23.4129 126.897V126.898Z" fill="white"></path><path d="M29.5877 126.121C29.462 125.992 29.3156 125.883 29.1466 125.796C28.8901 125.665 28.6024 125.6 28.2833 125.6C27.8638 125.6 27.49 125.703 27.1617 125.909C26.8334 126.115 26.5751 126.396 26.3873 126.751C26.1994 127.107 26.1055 127.51 26.1055 127.96C26.1055 128.409 26.1994 128.802 26.3873 129.158C26.5751 129.514 26.8329 129.795 27.1617 130.001C27.4904 130.206 27.8611 130.31 28.2741 130.31C28.5996 130.31 28.892 130.244 29.1517 130.113C29.3193 130.028 29.4648 129.921 29.5882 129.794V130.216H30.8272V125.693H29.5882V126.121L29.5877 126.121ZM29.3437 128.831C29.131 129.062 28.8524 129.177 28.5084 129.177C28.2893 129.177 28.0922 129.124 27.9173 129.018C27.7418 128.912 27.606 128.769 27.5089 128.587C27.4117 128.406 27.3634 128.194 27.3634 127.95C27.3634 127.707 27.4117 127.504 27.5089 127.323C27.606 127.142 27.7405 126.998 27.9127 126.892C28.0849 126.786 28.2833 126.733 28.5089 126.733C28.7345 126.733 28.9408 126.784 29.1098 126.887C29.2787 126.99 29.4132 127.135 29.5136 127.323C29.6135 127.51 29.6637 127.722 29.6637 127.96C29.6637 128.309 29.5573 128.6 29.3446 128.83L29.3437 128.831Z" fill="white"></path><path d="M36.8615 126.073C36.7469 125.962 36.6129 125.868 36.4577 125.792C36.1948 125.664 35.8974 125.6 35.5659 125.6C35.1588 125.6 34.7928 125.699 34.4677 125.895C34.1422 126.092 33.8871 126.359 33.7025 126.696C33.5179 127.033 33.4258 127.414 33.4258 127.838C33.4258 128.263 33.5179 128.647 33.7025 128.99C33.8871 129.334 34.1422 129.604 34.4677 129.8C34.7928 129.997 35.1593 130.096 35.5659 130.096C35.8974 130.096 36.193 130.03 36.4531 129.899C36.605 129.822 36.7376 129.729 36.8518 129.619V130.011C36.8518 130.342 36.739 130.606 36.5139 130.803C36.2887 130.999 35.9881 131.098 35.6128 131.098C35.3062 131.098 35.0451 131.043 34.8292 130.934C34.6132 130.825 34.4175 130.667 34.2426 130.461L33.4543 131.238C33.6795 131.55 33.9751 131.792 34.3411 131.964C34.7072 132.136 35.1344 132.221 35.6225 132.221C36.1105 132.221 36.5295 132.129 36.8988 131.945C37.2681 131.761 37.5572 131.5 37.7672 131.163C37.9767 130.826 38.0816 130.436 38.0816 129.993V125.695H36.8615V126.073V126.073ZM36.3969 128.831C36.2312 128.925 36.0323 128.972 35.8007 128.972C35.588 128.972 35.3955 128.923 35.2233 128.827C35.0511 128.73 34.9185 128.595 34.8246 128.424C34.7306 128.252 34.6837 128.057 34.6837 127.838C34.6837 127.62 34.732 127.434 34.8292 127.262C34.9263 127.091 35.0575 126.957 35.2233 126.86C35.3891 126.763 35.5847 126.715 35.8099 126.715C36.035 126.715 36.2229 126.763 36.3919 126.86C36.5608 126.956 36.6907 127.091 36.7814 127.262C36.8721 127.434 36.9177 127.629 36.9177 127.848C36.9177 128.066 36.8721 128.261 36.7814 128.433C36.6907 128.605 36.5622 128.737 36.3965 128.831L36.3969 128.831Z" fill="white"></path><path d="M42.1594 125.708C41.9872 125.636 41.7887 125.6 41.5631 125.6C41.0562 125.6 40.6681 125.761 40.3992 126.082C40.3959 126.086 40.3932 126.09 40.39 126.094V125.694H39.1602V130.217H40.39V127.726C40.39 127.382 40.4728 127.129 40.6386 126.967C40.8043 126.805 41.0189 126.724 41.2814 126.724C41.4066 126.724 41.5176 126.741 41.6147 126.775C41.7119 126.81 41.7947 126.867 41.8633 126.948L42.6332 126.059C42.4891 125.897 42.3311 125.779 42.1589 125.708L42.1594 125.708Z" fill="white"></path><path d="M46.3061 125.9C45.9401 125.694 45.5252 125.591 45.0625 125.591C44.5998 125.591 44.1941 125.696 43.8281 125.905C43.462 126.114 43.1724 126.395 42.9597 126.747C42.747 127.1 42.6406 127.498 42.6406 127.941C42.6406 128.384 42.747 128.795 42.9597 129.154C43.1724 129.513 43.462 129.797 43.8281 130.006C44.1941 130.215 44.6057 130.32 45.0625 130.32C45.5192 130.32 45.9414 130.215 46.3107 130.006C46.68 129.797 46.971 129.512 47.1837 129.15C47.3964 128.788 47.5028 128.385 47.5028 127.941C47.5028 127.498 47.395 127.099 47.1791 126.743C46.9631 126.387 46.6721 126.106 46.3061 125.9ZM46.0902 128.578C45.993 128.759 45.8553 128.903 45.6772 129.009C45.499 129.115 45.2936 129.168 45.0625 129.168C44.8313 129.168 44.637 129.115 44.4616 129.009C44.2862 128.903 44.1504 128.76 44.0532 128.578C43.9561 128.397 43.9077 128.188 43.9077 127.951C43.9077 127.713 43.9561 127.504 44.0532 127.323C44.1504 127.142 44.2862 127 44.4616 126.897C44.6366 126.794 44.8373 126.742 45.0625 126.742C45.2876 126.742 45.4957 126.794 45.6679 126.897C45.8401 127 45.9778 127.142 46.081 127.323C46.1841 127.504 46.2357 127.713 46.2357 127.951C46.2357 128.188 46.1873 128.397 46.0902 128.578Z" fill="white"></path><path d="M51.0367 128.288C51.0367 128.569 50.9649 128.787 50.8207 128.944C50.6766 129.1 50.4763 129.177 50.2199 129.177C50.0509 129.177 49.9036 129.143 49.7788 129.074C49.6535 129.006 49.5596 128.904 49.497 128.77C49.4344 128.636 49.4031 128.475 49.4031 128.288V125.694H48.1641V128.316C48.1641 128.709 48.2515 129.056 48.427 129.356C48.6019 129.655 48.846 129.888 49.159 130.053C49.4717 130.218 49.8253 130.301 50.2199 130.301C50.6145 130.301 50.9662 130.218 51.2756 130.053C51.5851 129.888 51.8277 129.655 52.0031 129.356C52.1781 129.056 52.266 128.71 52.266 128.316V125.694H51.0362V128.288H51.0367Z" fill="white"></path><path d="M56.8892 125.909C56.5545 125.703 56.1774 125.6 55.758 125.6C55.4325 125.6 55.1382 125.669 54.8758 125.806C54.7238 125.886 54.5899 125.982 54.472 126.093V125.694H53.2422V132.118H54.4623V129.825C54.582 129.939 54.7192 130.036 54.8753 130.113C55.1382 130.245 55.4324 130.31 55.7575 130.31C56.1765 130.31 56.5522 130.207 56.8837 130.001C57.2152 129.795 57.4768 129.514 57.6674 129.159C57.858 128.803 57.9538 128.403 57.9538 127.96C57.9538 127.517 57.8598 127.108 57.672 126.752C57.4841 126.396 57.2231 126.115 56.8883 125.909H56.8892ZM56.5421 128.583C56.4449 128.767 56.3119 128.912 56.1434 129.019C55.9744 129.125 55.7773 129.178 55.5522 129.178C55.327 129.178 55.1249 129.125 54.9467 129.019C54.7685 128.913 54.6336 128.767 54.5429 128.583C54.4522 128.399 54.4066 128.188 54.4066 127.951C54.4066 127.713 54.455 127.505 54.5521 127.323C54.6493 127.142 54.7837 126.999 54.9559 126.892C55.1281 126.786 55.3233 126.733 55.5425 126.733C55.7741 126.733 55.9744 126.786 56.1434 126.892C56.3123 126.999 56.4449 127.142 56.5421 127.323C56.6392 127.504 56.6876 127.714 56.6876 127.951C56.6876 128.188 56.6392 128.399 56.5421 128.583Z" fill="white"></path><path d="M62.0531 126.682C62.2718 126.554 62.5223 126.49 62.804 126.49C63.0356 126.49 63.2516 126.532 63.4519 126.617C63.6521 126.701 63.8211 126.824 63.9588 126.986L64.5219 126.425C64.3092 126.181 64.0555 125.996 63.7617 125.868C63.4675 125.74 63.1484 125.676 62.8045 125.676C62.3666 125.676 61.9707 125.777 61.617 125.98C61.2634 126.183 60.9849 126.459 60.7818 126.809C60.5783 127.159 60.4766 127.552 60.4766 127.989C60.4766 128.426 60.5783 128.812 60.7818 129.164C60.9853 129.516 61.2634 129.796 61.617 130.002C61.9707 130.208 62.3662 130.311 62.8045 130.311C63.1484 130.311 63.4694 130.245 63.7668 130.114C64.0638 129.983 64.3161 129.799 64.5224 129.562L63.9685 129C63.8243 129.162 63.654 129.285 63.4569 129.37C63.2599 129.454 63.0421 129.496 62.8045 129.496C62.5227 129.496 62.2727 129.431 62.0535 129.3C61.8344 129.168 61.6622 128.991 61.5374 128.766C61.4122 128.541 61.3495 128.282 61.3495 127.989C61.3495 127.695 61.4122 127.436 61.5374 127.212C61.6626 126.987 61.8344 126.81 62.0535 126.682L62.0531 126.682Z" fill="white"></path><path d="M68.4823 125.98C68.1287 125.777 67.7327 125.676 67.2948 125.676C66.857 125.676 66.472 125.779 66.1217 125.984C65.7713 126.19 65.4927 126.467 65.2864 126.813C65.0802 127.16 64.9766 127.549 64.9766 127.979C64.9766 128.41 65.0797 128.811 65.2864 129.164C65.4932 129.516 65.7713 129.796 66.1217 130.002C66.472 130.208 66.8629 130.311 67.2948 130.311C67.7267 130.311 68.1287 130.208 68.4823 130.002C68.8359 129.796 69.1158 129.516 69.3226 129.164C69.5288 128.811 69.6324 128.416 69.6324 127.979C69.6324 127.542 69.5293 127.158 69.3226 126.809C69.1158 126.459 68.8359 126.183 68.4823 125.98ZM68.5716 128.761C68.4464 128.989 68.2742 129.168 68.0555 129.299C67.8363 129.43 67.5831 129.496 67.2953 129.496C67.0075 129.496 66.7727 129.43 66.554 129.299C66.3348 129.168 66.1626 128.989 66.0379 128.761C65.9126 128.533 65.85 128.272 65.85 127.979C65.85 127.686 65.9126 127.436 66.0379 127.211C66.1631 126.986 66.3348 126.81 66.554 126.682C66.7727 126.554 67.0199 126.49 67.2953 126.49C67.5706 126.49 67.8349 126.554 68.0509 126.682C68.2668 126.81 68.439 126.986 68.567 127.211C68.695 127.436 68.7595 127.692 68.7595 127.979C68.7595 128.266 68.6968 128.533 68.5716 128.761Z" fill="white"></path><path d="M76.6022 125.881C76.3457 125.744 76.0547 125.676 75.7292 125.676C75.4037 125.676 75.1283 125.746 74.8654 125.886C74.6025 126.027 74.388 126.221 74.2227 126.467C74.2195 126.472 74.2171 126.476 74.2139 126.481C74.2102 126.475 74.2075 126.468 74.2038 126.462C74.0565 126.212 73.8566 126.019 73.6029 125.881C73.3497 125.744 73.0661 125.676 72.7534 125.676C72.4408 125.676 72.1466 125.746 71.8901 125.886C71.7004 125.99 71.5411 126.124 71.4113 126.287V125.769H70.5664V130.218H71.4113V127.53C71.4113 127.305 71.4615 127.115 71.5614 126.959C71.6613 126.803 71.793 126.681 71.9555 126.594C72.1181 126.506 72.3027 126.462 72.5094 126.462C72.8161 126.462 73.0711 126.558 73.2747 126.748C73.4782 126.938 73.5799 127.199 73.5799 127.53V130.217H74.4248V127.53C74.4248 127.305 74.475 127.114 74.5749 126.958C74.6748 126.802 74.8079 126.681 74.9736 126.593C75.1394 126.506 75.3254 126.462 75.5321 126.462C75.8323 126.462 76.0842 126.557 76.2877 126.747C76.4912 126.938 76.5925 127.199 76.5925 127.529V130.217H77.4466V127.361C77.4466 127.011 77.3697 126.712 77.2168 126.462C77.0635 126.212 76.8586 126.019 76.6022 125.881Z" fill="white"></path><path d="M82.0433 125.984C81.7145 125.779 81.3471 125.676 80.9406 125.676C80.6086 125.676 80.307 125.746 80.0349 125.886C79.795 126.01 79.5961 126.176 79.4386 126.382V125.769H78.5938V132.081H79.4386V129.609C79.5924 129.814 79.7881 129.978 80.0252 130.101C80.2973 130.241 80.6026 130.312 80.9406 130.312C81.3471 130.312 81.715 130.21 82.0433 130.007C82.3716 129.805 82.6299 129.528 82.8177 129.178C83.0056 128.829 83.0995 128.436 83.0995 127.998C83.0995 127.561 83.0056 127.168 82.8177 126.818C82.6299 126.469 82.372 126.191 82.0433 125.985V125.984ZM82.0433 128.78C81.9213 129.008 81.7537 129.187 81.541 129.318C81.3282 129.449 81.081 129.515 80.7997 129.515C80.5183 129.515 80.2789 129.449 80.063 129.318C79.847 129.187 79.6813 129.008 79.5657 128.78C79.4497 128.552 79.3921 128.291 79.3921 127.998C79.3921 127.705 79.4515 127.435 79.5703 127.206C79.6891 126.979 79.8549 126.799 80.0676 126.668C80.2803 126.537 80.5243 126.472 80.7997 126.472C81.075 126.472 81.3282 126.537 81.541 126.668C81.7537 126.799 81.9213 126.979 82.0433 127.206C82.1653 127.434 82.2265 127.695 82.2265 127.988C82.2265 128.282 82.1653 128.552 82.0433 128.78Z" fill="white"></path><path d="M87.4343 126.374C87.281 126.171 87.0885 126.008 86.8569 125.886C86.5908 125.745 86.2892 125.675 85.9513 125.675C85.5383 125.675 85.1676 125.778 84.8389 125.984C84.5106 126.19 84.2504 126.468 84.0598 126.817C83.8688 127.167 83.7734 127.561 83.7734 127.997C83.7734 128.434 83.8688 128.828 84.0598 129.178C84.2504 129.527 84.5106 129.804 84.8389 130.006C85.1676 130.209 85.5383 130.311 85.9513 130.311C86.2892 130.311 86.5926 130.24 86.8615 130.1C87.0927 129.979 87.2838 129.818 87.4343 129.616V130.217H88.2884V125.769H87.4343V126.374V126.374ZM87.1056 129.089C86.8491 129.373 86.5111 129.515 86.0917 129.515C85.8099 129.515 85.5599 129.449 85.3407 129.318C85.1216 129.187 84.9512 129.008 84.8292 128.78C84.7072 128.552 84.6464 128.288 84.6464 127.988C84.6464 127.689 84.7072 127.434 84.8292 127.206C84.9512 126.979 85.1202 126.799 85.3361 126.668C85.5521 126.537 85.8007 126.472 86.0825 126.472C86.3643 126.472 86.6097 126.536 86.8192 126.664C87.0287 126.792 87.193 126.971 87.3118 127.202C87.4306 127.433 87.49 127.698 87.49 127.998C87.49 128.441 87.3616 128.805 87.1051 129.089H87.1056Z" fill="white"></path><path d="M92.6742 125.928C92.4145 125.76 92.1157 125.676 91.7777 125.676C91.4398 125.676 91.1363 125.752 90.8674 125.905C90.6649 126.02 90.4959 126.166 90.3605 126.344V125.769H89.5156V130.217H90.3605V127.623C90.3605 127.398 90.4107 127.199 90.5106 127.024C90.6105 126.849 90.7482 126.712 90.9236 126.612C91.0986 126.512 91.2993 126.462 91.5245 126.462C91.8624 126.462 92.1359 126.571 92.3459 126.79C92.5554 127.008 92.6603 127.286 92.6603 127.623V130.217H93.5144V127.455C93.5144 127.149 93.4394 126.86 93.2893 126.589C93.1392 126.317 92.9343 126.097 92.6746 125.928H92.6742Z" fill="white"></path><path d="M97.7811 125.769L96.4238 128.923L95.1341 125.769H94.1953L95.9454 129.829L94.8523 132.081H95.7912L96.636 130.255L98.7195 125.769H97.7811Z" fill="white"></path></g><rect x="0.000244141" width="98.832" height="122.159" fill="url(#pattern0_320_1054)"></rect><defs><pattern id="pattern0_320_1054" patternContentUnits="objectBoundingBox" width="1" height="1"><use xlink:href="#image0_320_1054" transform="matrix(0.00255102 0 0 0.00206389 0 -0.00125628)"></use></pattern><clipPath id="clip0_320_1054"><rect width="98.832" height="6.66609" fill="white" transform="translate(0 125.558)"></rect></clipPath><image id="image0_320_1054" width="392" height="532" preserveAspectRatio="none"></image></defs></svg>