<?xml version="1.0"?> <svg xmlns="http://www.w3.org/2000/svg" width="216" height="35" viewBox="0 0 216 35" fill="none"><path d="M7.05442 0.241455L0 17.3482H2.98831L4.30643 14.0487H11.6757L12.9818 17.3482H16.0193L9.01418 0.241455H7.05442ZM5.2833 11.6059L8.00847 4.78579L10.7096 11.6059H5.28451H5.2833Z" fill="white"></path><path d="M28.6361 10.8477C28.6361 11.6624 28.4643 12.3749 28.1218 12.9865C27.7794 13.5969 27.3132 14.0703 26.7256 14.4044C26.138 14.7384 25.4603 14.9054 24.6925 14.9054C23.9247 14.9054 23.2639 14.7384 22.6595 14.4044C22.0551 14.0703 21.5781 13.5981 21.226 12.9865C20.8751 12.3761 20.6997 11.6552 20.6997 10.8237V0.241455H17.8832V10.8477C17.8832 12.1346 18.1812 13.2881 18.7772 14.3058C19.3732 15.3248 20.1854 16.1262 21.214 16.7126C22.2425 17.2989 23.4021 17.5921 24.6925 17.5921C25.983 17.5921 27.1582 17.2989 28.1711 16.7126C29.184 16.1262 29.9843 15.3284 30.5718 14.3179C31.1594 13.3073 31.4538 12.1598 31.4538 10.8717V0.241455H28.6373V10.8477H28.6361Z" fill="white"></path><path d="M43.9825 8.85678C43.5006 8.47468 42.9695 8.15986 42.3904 7.91595C41.81 7.67203 41.2309 7.45214 40.6517 7.25628C40.0713 7.06043 39.5415 6.85256 39.0596 6.63267C38.5778 6.41278 38.1897 6.14363 37.8965 5.82641C37.6033 5.5092 37.4555 5.08985 37.4555 4.56837C37.4555 3.94956 37.6958 3.46893 38.1777 3.12649C38.6595 2.78404 39.3252 2.61342 40.1747 2.61342C40.8608 2.61342 41.4688 2.74799 41.9999 3.01714C42.531 3.28629 43.0404 3.69723 43.5307 4.25116L45.4412 2.34547C44.886 1.66177 44.1627 1.09944 43.2735 0.659662C42.3832 0.219887 41.3751 0 40.248 0C39.2026 0 38.2558 0.187445 37.4063 0.562335C36.5568 0.937225 35.8839 1.47913 35.3852 2.18806C34.8866 2.89699 34.6378 3.75611 34.6378 4.76663C34.6378 5.64618 34.7844 6.37193 35.0788 6.94147C35.3732 7.51222 35.7601 7.97602 36.2419 8.33409C36.7238 8.69216 37.2549 8.99015 37.834 9.22566C38.4132 9.46237 38.9935 9.67384 39.5727 9.86129C40.1519 10.0487 40.6829 10.2602 41.1648 10.4969C41.6466 10.7336 42.0347 11.0304 42.3279 11.3885C42.6223 11.7466 42.7689 12.2116 42.7689 12.7811C42.7689 13.466 42.4877 14.0031 41.9242 14.3936C41.3606 14.7841 40.6048 14.98 39.658 14.98C38.6451 14.98 37.8124 14.7889 37.1599 14.4056C36.5063 14.0235 35.9428 13.4888 35.4693 12.8051L33.5588 14.7108C34.3098 15.6565 35.1593 16.3726 36.1062 16.8616C37.053 17.3507 38.2041 17.5946 39.5607 17.5946C41.4063 17.5946 42.871 17.1464 43.9572 16.25C45.0434 15.3537 45.5866 14.1401 45.5866 12.6093C45.5866 11.6973 45.44 10.9391 45.1456 10.3371C44.8512 9.73512 44.4631 9.24128 43.9825 8.85918V8.85678Z" fill="white"></path><path d="M57.1611 8.85678C56.6793 8.47468 56.1482 8.15986 55.569 7.91595C54.9887 7.67203 54.4095 7.45214 53.8304 7.25628C53.25 7.06043 52.7201 6.85256 52.2383 6.63267C51.7564 6.41278 51.3683 6.14363 51.0752 5.82641C50.782 5.5092 50.6342 5.08985 50.6342 4.56837C50.6342 3.94956 50.8745 3.46893 51.3563 3.12649C51.8382 2.78404 52.5038 2.61342 53.3533 2.61342C54.0394 2.61342 54.6474 2.74799 55.1785 3.01714C55.7096 3.28629 56.2191 3.69723 56.7093 4.25116L58.6198 2.34547C58.0647 1.66177 57.3413 1.09944 56.4522 0.659662C55.5618 0.219887 54.5537 0 53.4266 0C52.3813 0 51.4344 0.187445 50.5849 0.562335C49.7354 0.937225 49.0625 1.47913 48.5639 2.18806C48.0652 2.89699 47.8165 3.75611 47.8165 4.76663C47.8165 5.64618 47.9631 6.37193 48.2575 6.94147C48.5519 7.51222 48.9388 7.97602 49.4206 8.33409C49.9024 8.69216 50.4335 8.99015 51.0127 9.22566C51.5918 9.46237 52.1722 9.67384 52.7513 9.86129C53.3305 10.0487 53.8616 10.2602 54.3434 10.4969C54.8253 10.7336 55.2134 11.0304 55.5065 11.3885C55.8009 11.7466 55.9475 12.2116 55.9475 12.7811C55.9475 13.466 55.6664 14.0031 55.1028 14.3936C54.5393 14.7841 53.7835 14.98 52.8367 14.98C51.8237 14.98 50.991 14.7889 50.3386 14.4056C49.6849 14.0235 49.1214 13.4888 48.648 12.8051L46.7375 14.7108C47.4885 15.6565 48.338 16.3726 49.2848 16.8616C50.2317 17.3507 51.3828 17.5946 52.7393 17.5946C54.5849 17.5946 56.0497 17.1464 57.1359 16.25C58.2221 15.3537 58.7652 14.1401 58.7652 12.6093C58.7652 11.6973 58.6186 10.9391 58.3242 10.3371C58.0298 9.73512 57.6417 9.24128 57.1611 8.85918V8.85678Z" fill="white"></path><path d="M72.1762 14.4285C71.4492 14.7457 70.5637 14.9055 69.5183 14.9055C68.6688 14.9055 67.8926 14.7589 67.1909 14.4657C66.4892 14.1725 65.88 13.7532 65.3657 13.2077C64.8514 12.6621 64.4549 12.0145 64.1773 11.2647C63.8998 10.5149 63.7604 9.69307 63.7604 8.7967C63.7604 7.90033 63.8986 7.07845 64.1773 6.32867C64.4549 5.58009 64.8514 4.93245 65.3657 4.38573C65.88 3.84022 66.488 3.42087 67.1909 3.12769C67.8926 2.8345 68.6688 2.68791 69.5183 2.68791C70.482 2.68791 71.3267 2.84292 72.0536 3.15172C72.7806 3.46172 73.397 3.89309 73.9029 4.44701L75.8134 2.54132C75.0299 1.7591 74.1312 1.14029 73.1194 0.683694C72.1065 0.228298 70.9061 0 69.5183 0C68.2771 0 67.1296 0.228298 66.077 0.683694C65.0232 1.14029 64.1053 1.76751 63.3218 2.56535C62.5384 3.3632 61.934 4.29682 61.5087 5.36381C61.0833 6.4308 60.8718 7.5759 60.8718 8.7979C60.8718 10.0199 61.0833 11.165 61.5087 12.232C61.9328 13.299 62.5372 14.2362 63.3218 15.0425C64.1053 15.8487 65.0245 16.4759 66.077 16.9241C67.1308 17.3723 68.2771 17.5958 69.5183 17.5958C70.8905 17.5958 72.1065 17.3675 73.1687 16.9121C74.2297 16.4567 75.1525 15.8283 75.9371 15.0304L74.0266 13.1248C73.5208 13.6787 72.9031 14.1148 72.1774 14.4321L72.1762 14.4285Z" fill="white"></path><path d="M89.3595 7.20696H81.2765V0.241455H78.4589V17.3482H81.2765V9.77231H89.3595V17.3482H92.1772V0.241455H89.3595V7.20696Z" fill="white"></path><path d="M105.16 9.47913C105.976 9.0718 106.609 8.50105 107.058 7.76809C107.508 7.03513 107.732 6.17121 107.732 5.17751C107.732 4.18381 107.508 3.38957 107.058 2.6482C106.609 1.90683 105.977 1.32047 105.16 0.889102C104.343 0.457738 103.396 0.241455 102.318 0.241455H95.9004V17.3482H98.7169V10.0895H99.4426L105.306 17.3482H108.858L102.839 10.0715C103.703 10.015 104.477 9.81917 105.158 9.47913H105.16ZM98.7181 2.68545H102.197C103.062 2.68545 103.731 2.92937 104.206 3.41841C104.679 3.90745 104.916 4.51063 104.916 5.22677C104.916 6.02461 104.674 6.64823 104.194 7.09641C103.712 7.5446 103.038 7.76809 102.173 7.76809H98.7181V2.68545Z" fill="white"></path><path d="M113.758 9.84561H121.645V7.37758H113.758V2.80801H122.356V0.241455H113.758H112.876H110.94V17.3482H112.876H113.758H122.478V14.7829H113.758V9.84561Z" fill="white"></path><path d="M128.209 0.241455H125.392V17.3482H128.209V0.241455Z" fill="white"></path><path d="M141.65 8.1742C142.15 7.84618 142.556 7.46648 142.871 7.03511C143.368 6.35142 143.618 5.56079 143.618 4.66442C143.618 3.89902 143.43 3.18168 143.054 2.51361C142.678 1.84553 142.108 1.30002 141.34 0.875865C140.572 0.452912 139.608 0.240234 138.449 0.240234H131.933V17.347H138.669C139.893 17.347 140.926 17.1235 141.767 16.6753C142.609 16.2271 143.245 15.6372 143.678 14.903C144.111 14.17 144.327 13.3638 144.327 12.4842C144.327 11.4088 144.024 10.4728 143.421 9.67376C142.965 9.07178 142.374 8.57192 141.649 8.173L141.65 8.1742ZM138.375 2.68543C139.111 2.68543 139.698 2.87287 140.139 3.24776C140.58 3.62265 140.8 4.17658 140.8 4.90954C140.8 5.64249 140.58 6.19642 140.139 6.57131C139.698 6.9462 139.111 7.13364 138.375 7.13364H134.75V2.68543H138.375ZM140.8 14.0979C140.327 14.635 139.658 14.9042 138.791 14.9042H134.749V9.57644H138.791C139.363 9.57644 139.852 9.699 140.261 9.94291C140.669 10.1868 140.979 10.5137 141.192 10.9198C141.403 11.3271 141.51 11.7669 141.51 12.2391C141.51 12.9396 141.274 13.5584 140.8 14.0967V14.0979Z" fill="white"></path><path d="M149.986 9.84561H157.874V7.37758H149.986V2.80801H158.585V0.241455H149.986H149.104H147.17V17.3482H149.104H149.986H158.707V14.7829H149.986V9.84561Z" fill="white"></path><path d="M172.644 12.0457L163.581 0.241455H161.621V17.3482H164.438V5.54398L173.502 17.3482H175.462V0.241455H172.644V12.0457Z" fill="white"></path><path d="M180.875 13.9756C180.352 13.9756 179.923 14.1462 179.589 14.4887C179.254 14.8311 179.087 15.2625 179.087 15.7839C179.087 16.3054 179.254 16.7164 179.589 17.0672C179.923 17.4169 180.352 17.5923 180.875 17.5923C181.397 17.5923 181.826 17.4169 182.16 17.0672C182.494 16.7176 182.663 16.2898 182.663 15.7839C182.663 15.2781 182.494 14.8311 182.16 14.4887C181.825 14.1462 181.397 13.9756 180.875 13.9756Z" fill="white"></path><path d="M199.037 2.69746C198.246 1.92365 197.318 1.32047 196.257 0.889102C195.195 0.457738 194.044 0.241455 192.804 0.241455H186.287V17.3482H192.853C194.077 17.3482 195.221 17.1319 196.282 16.7006C197.343 16.2692 198.266 15.666 199.051 14.8922C199.834 14.1184 200.447 13.21 200.888 12.167C201.329 11.1241 201.549 10.0006 201.549 8.79423C201.549 7.58786 201.329 6.44396 200.888 5.40941C200.447 4.37486 199.83 3.47128 199.039 2.69626L199.037 2.69746ZM197.911 11.9111C197.413 12.8159 196.72 13.52 195.829 14.0247C194.939 14.5293 193.907 14.7817 192.73 14.7817H189.105V2.80801H192.73C193.89 2.80801 194.915 3.06034 195.804 3.5662C196.694 4.07086 197.392 4.77258 197.898 5.66775C198.404 6.56412 198.658 7.59867 198.658 8.7714C198.658 9.94414 198.409 11.0075 197.91 11.9111H197.911Z" fill="white"></path><path d="M207.231 14.7829V9.84561H215.119V7.37758H207.231V2.80801H215.829V0.241455H207.231H206.35H204.414V17.3482H206.35H207.231H215.952V14.7829H207.231Z" fill="white"></path><path d="M75.3856 25.5069C74.8845 25.1933 74.3246 25.0359 73.7058 25.0359C73.1999 25.0359 72.7409 25.1428 72.3264 25.3567C71.9611 25.5454 71.6583 25.7977 71.418 26.1113V25.1777H70.1311V34.7926H71.418V31.0269C71.6523 31.3393 71.9503 31.5893 72.312 31.7755C72.7265 31.9894 73.1915 32.0963 73.7058 32.0963C74.3258 32.0963 74.8857 31.9413 75.3856 31.6325C75.8866 31.3237 76.2795 30.9032 76.5655 30.3697C76.8515 29.8374 76.9945 29.2378 76.9945 28.5721C76.9945 27.9064 76.8515 27.3069 76.5655 26.7746C76.2795 26.2423 75.8866 25.8193 75.3856 25.5045V25.5069ZM75.3856 29.7653C75.1993 30.1125 74.9446 30.3853 74.6202 30.5859C74.2958 30.7854 73.9197 30.8851 73.4907 30.8851C73.0617 30.8851 72.6977 30.7854 72.3684 30.5859C72.0392 30.3865 71.7869 30.1125 71.6102 29.7653C71.4336 29.418 71.3459 29.0215 71.3459 28.5745C71.3459 28.1275 71.436 27.7166 71.6175 27.3693C71.7989 27.0221 72.0512 26.7493 72.3756 26.5487C72.7001 26.3492 73.0713 26.2495 73.4907 26.2495C73.91 26.2495 74.2958 26.3492 74.6202 26.5487C74.9446 26.7481 75.1993 27.0221 75.3856 27.3693C75.5718 27.7166 75.6643 28.1131 75.6643 28.5601C75.6643 29.0071 75.5718 29.418 75.3856 29.7653Z" fill="#ffffff"></path><path d="M83.3507 25.4997C82.8124 25.1909 82.2092 25.0359 81.5423 25.0359C80.8755 25.0359 80.2891 25.1933 79.7544 25.5069C79.2209 25.8205 78.7967 26.2411 78.4819 26.7698C78.1671 27.2972 78.0097 27.8896 78.0097 28.5457C78.0097 29.2017 78.1671 29.8133 78.4819 30.3504C78.7967 30.8875 79.2209 31.3129 79.7544 31.6277C80.2879 31.9413 80.8839 32.0987 81.5423 32.0987C82.2008 32.0987 82.8124 31.9413 83.3507 31.6277C83.889 31.3141 84.3156 30.8887 84.6304 30.3504C84.9452 29.8133 85.1026 29.2113 85.1026 28.5457C85.1026 27.88 84.9452 27.2948 84.6304 26.7625C84.3156 26.2302 83.889 25.8097 83.3507 25.4997ZM83.4865 29.7364C83.2954 30.0837 83.0335 30.3564 82.6994 30.5571C82.3654 30.7566 81.9797 30.8563 81.5411 30.8563C81.1025 30.8563 80.7457 30.7566 80.4116 30.5571C80.0776 30.3576 79.8157 30.0837 79.6246 29.7364C79.4336 29.3892 79.3386 28.9927 79.3386 28.5457C79.3386 28.0987 79.4336 27.7178 79.6246 27.3753C79.8157 27.0329 80.0776 26.7649 80.4116 26.5691C80.7457 26.3744 81.1218 26.2771 81.5411 26.2771C81.9605 26.2771 82.363 26.3744 82.6922 26.5691C83.0215 26.7637 83.2834 27.0329 83.4793 27.3753C83.6751 27.7178 83.7724 28.1083 83.7724 28.5457C83.7724 28.983 83.6775 29.3904 83.4865 29.7364Z" fill="#ffffff"></path><path d="M92.8397 29.8723L91.1226 25.179H90.3789L88.6618 29.8723L86.9328 25.179H85.5882L88.2629 31.9546H89.0211L90.7574 27.4607L92.4816 31.9546H93.2386L95.9133 25.179H94.5687L92.8397 29.8723Z" fill="#ffffff"></path><path d="M101.576 25.4636C101.09 25.1789 100.537 25.0359 99.9168 25.0359C99.2595 25.0359 98.666 25.1909 98.1361 25.4997C97.6074 25.8085 97.1868 26.2302 96.878 26.7625C96.568 27.2948 96.413 27.8944 96.413 28.5601C96.413 29.2258 96.5704 29.8398 96.8852 30.3721C97.2001 30.9044 97.6266 31.3261 98.1649 31.6349C98.7032 31.9437 99.316 32.0987 100.002 32.0987C100.536 32.0987 101.037 31.999 101.504 31.7995C101.971 31.6001 102.372 31.3093 102.706 30.9296L101.877 30.0885C101.648 30.3552 101.373 30.5547 101.055 30.6881C100.735 30.8214 100.385 30.8875 100.003 30.8875C99.5455 30.8875 99.1406 30.7902 98.7873 30.5956C98.4341 30.4009 98.1625 30.1245 97.9727 29.7677C97.8561 29.5502 97.7756 29.3099 97.7299 29.0467H103.048C103.077 28.9134 103.096 28.792 103.106 28.6827C103.115 28.5733 103.12 28.4712 103.12 28.3763C103.12 27.7298 102.984 27.1543 102.713 26.6496C102.441 26.1461 102.063 25.7508 101.576 25.4661V25.4636ZM98.7296 26.5054C99.0637 26.3156 99.4494 26.2206 99.888 26.2206C100.327 26.2206 100.665 26.3084 100.961 26.485C101.257 26.6616 101.485 26.9079 101.647 27.2264C101.758 27.4438 101.83 27.6938 101.865 27.9749H97.7323C97.7756 27.7298 97.8501 27.5063 97.957 27.3045C98.1385 26.962 98.3956 26.6965 98.7296 26.5054Z" fill="#ffffff"></path><path d="M108.583 25.2137C108.306 25.0948 107.996 25.0359 107.653 25.0359C106.899 25.0359 106.323 25.293 105.923 25.8061C105.882 25.8578 105.844 25.9118 105.808 25.9671V25.1777H104.522V31.9545H105.808V28.1023C105.808 27.4751 105.961 27.0089 106.266 26.7037C106.571 26.3997 106.962 26.2471 107.439 26.2471C107.667 26.2471 107.868 26.2807 108.04 26.3468C108.212 26.4129 108.369 26.5234 108.512 26.6748L109.355 25.8049C109.118 25.5297 108.859 25.3315 108.583 25.2125V25.2137Z" fill="#ffffff"></path><path d="M114.76 25.4636C114.273 25.1789 113.72 25.0359 113.102 25.0359C112.444 25.0359 111.851 25.1909 111.321 25.4997C110.792 25.8085 110.372 26.2302 110.063 26.7625C109.753 27.2948 109.598 27.8944 109.598 28.5601C109.598 29.2258 109.755 29.8398 110.07 30.3721C110.385 30.9044 110.811 31.3261 111.35 31.6349C111.888 31.9437 112.501 32.0987 113.187 32.0987C113.72 32.0987 114.221 31.999 114.689 31.7995C115.156 31.6001 115.556 31.3093 115.89 30.9296L115.061 30.0885C114.833 30.3552 114.558 30.5547 114.239 30.6881C113.92 30.8214 113.57 30.8875 113.188 30.8875C112.73 30.8875 112.325 30.7902 111.972 30.5956C111.619 30.4009 111.347 30.1245 111.157 29.7677C111.041 29.5502 110.96 29.3099 110.915 29.0467H116.233C116.262 28.9134 116.281 28.792 116.291 28.6827C116.3 28.5733 116.305 28.4712 116.305 28.3763C116.305 27.7298 116.169 27.1543 115.898 26.6496C115.626 26.1461 115.246 25.7508 114.761 25.4661L114.76 25.4636ZM111.914 26.5054C112.248 26.3156 112.634 26.2206 113.073 26.2206C113.511 26.2206 113.85 26.3084 114.146 26.485C114.441 26.6616 114.67 26.9079 114.832 27.2264C114.942 27.4438 115.014 27.6938 115.049 27.9749H110.917C110.96 27.7298 111.035 27.5063 111.142 27.3045C111.323 26.962 111.58 26.6965 111.914 26.5054Z" fill="#ffffff"></path><path d="M122.853 26.1113C122.614 25.7965 122.314 25.5454 121.952 25.3567C121.542 25.1428 121.08 25.0359 120.565 25.0359C119.945 25.0359 119.388 25.1933 118.893 25.5069C118.397 25.8205 118.004 26.2435 117.713 26.777C117.422 27.3093 117.277 27.9089 117.277 28.5745C117.277 29.2402 117.422 29.8398 117.713 30.3721C118.004 30.9044 118.397 31.3261 118.893 31.6349C119.388 31.9437 119.947 32.0987 120.565 32.0987C121.089 32.0987 121.557 31.9918 121.967 31.7779C122.323 31.5917 122.619 31.3417 122.853 31.0293V31.957H124.155V21.7712H122.853V26.1137V26.1113ZM121.91 30.5848C121.586 30.7842 121.21 30.8839 120.781 30.8839C120.352 30.8839 119.988 30.7866 119.658 30.592C119.329 30.3973 119.072 30.1234 118.886 29.7713C118.699 29.4192 118.607 29.0155 118.607 28.5589C118.607 28.1023 118.699 27.701 118.886 27.3537C119.072 27.0065 119.327 26.7361 119.651 26.5403C119.976 26.3456 120.352 26.2483 120.781 26.2483C121.21 26.2483 121.586 26.348 121.91 26.5475C122.234 26.7469 122.487 27.0209 122.668 27.3682C122.85 27.7154 122.94 28.1167 122.94 28.5733C122.94 29.0299 122.848 29.418 122.668 29.7641C122.487 30.1113 122.234 30.3841 121.91 30.5848Z" fill="#ffffff"></path><path d="M134.243 25.5069C133.742 25.1933 133.182 25.0359 132.563 25.0359C132.058 25.0359 131.599 25.1428 131.184 25.3567C130.819 25.5453 130.516 25.7977 130.276 26.1113V21.7688H128.989V31.9545H130.276V31.0269C130.51 31.3393 130.808 31.5892 131.17 31.7755C131.584 31.9894 132.049 32.0963 132.563 32.0963C133.183 32.0963 133.743 31.9413 134.243 31.6325C134.744 31.3237 135.137 30.9031 135.423 30.3696C135.709 29.8373 135.852 29.2378 135.852 28.5721C135.852 27.9064 135.709 27.3068 135.423 26.7745C135.137 26.2422 134.744 25.8193 134.243 25.5045V25.5069ZM134.243 29.7652C134.057 30.1125 133.802 30.3853 133.478 30.5859C133.153 30.7854 132.777 30.8851 132.348 30.8851C131.919 30.8851 131.555 30.7854 131.226 30.5859C130.897 30.3865 130.645 30.1125 130.468 29.7652C130.291 29.418 130.204 29.0215 130.204 28.5745C130.204 28.1275 130.294 27.7166 130.475 27.3693C130.657 27.0221 130.909 26.7493 131.233 26.5486C131.558 26.3492 131.929 26.2495 132.348 26.2495C132.768 26.2495 133.153 26.3492 133.478 26.5486C133.802 26.7481 134.057 27.0221 134.243 27.3693C134.429 27.7166 134.522 28.1131 134.522 28.5601C134.522 29.0071 134.429 29.418 134.243 29.7652Z" fill="#ffffff"></path><path d="M139.732 29.9828L137.767 25.179H136.337L139.004 31.3634L137.338 34.7939H138.768L140.055 32.0123L143.23 25.179H141.8L139.732 29.9828Z" fill="#ffffff"></path><path d="M152.273 25.3785C151.716 25.0649 151.084 24.9075 150.378 24.9075C149.673 24.9075 149.056 25.0673 148.498 25.3857C147.941 25.7041 147.5 26.1319 147.175 26.6702C146.851 27.2073 146.688 27.8141 146.688 28.4894C146.688 29.1646 146.851 29.7895 147.175 30.3374C147.5 30.8841 147.941 31.3166 148.498 31.6351C149.056 31.9535 149.683 32.1133 150.378 32.1133C151.074 32.1133 151.718 31.9547 152.281 31.6351C152.843 31.3166 153.286 30.8817 153.611 30.3302C153.935 29.7786 154.097 29.1658 154.097 28.4894C154.097 27.8129 153.933 27.2049 153.604 26.663C153.274 26.1211 152.831 25.6933 152.273 25.3785ZM151.945 29.459C151.798 29.7354 151.587 29.9541 151.316 30.1151C151.044 30.2773 150.732 30.3578 150.38 30.3578C150.028 30.3578 149.731 30.2773 149.464 30.1151C149.197 29.9541 148.989 29.7354 148.842 29.459C148.694 29.1839 148.621 28.8642 148.621 28.5038C148.621 28.1433 148.694 27.8237 148.842 27.5485C148.989 27.2734 149.196 27.0559 149.464 26.8997C149.731 26.7423 150.036 26.6642 150.38 26.6642C150.723 26.6642 151.039 26.7423 151.302 26.8997C151.564 27.0571 151.775 27.2734 151.932 27.5485C152.09 27.8249 152.168 28.1433 152.168 28.5038C152.168 28.8642 152.093 29.1839 151.947 29.459H151.945Z" fill="#ffffff"></path><path d="M159.853 25.0853C159.591 24.9759 159.288 24.9207 158.945 24.9207C158.172 24.9207 157.581 25.1658 157.171 25.6548C157.167 25.6608 157.162 25.6668 157.157 25.6728V25.0624H155.284V31.9534H157.157V28.1589C157.157 27.6362 157.283 27.2505 157.535 27.003C157.788 26.7555 158.115 26.6317 158.515 26.6317C158.706 26.6317 158.874 26.6581 159.022 26.7098C159.17 26.7627 159.296 26.8504 159.4 26.9741L160.573 25.6188C160.353 25.3712 160.113 25.1934 159.851 25.0841L159.853 25.0853Z" fill="#ffffff"></path><path d="M163.385 26.8973C163.656 26.7399 163.964 26.6618 164.308 26.6618C164.613 26.6618 164.892 26.7147 165.144 26.8192C165.396 26.9237 165.609 27.0811 165.781 27.2902L167.01 26.0634C166.666 25.6825 166.266 25.3953 165.808 25.2007C165.351 25.006 164.851 24.9087 164.306 24.9087C163.601 24.9087 162.967 25.0661 162.404 25.3797C161.842 25.6933 161.399 26.1235 161.074 26.6702C160.75 27.2169 160.588 27.8333 160.588 28.5182C160.588 29.2031 160.75 29.7907 161.074 30.3374C161.399 30.8841 161.842 31.3167 162.404 31.6351C162.967 31.9535 163.596 32.1133 164.292 32.1133C164.845 32.1133 165.352 32.0112 165.814 31.8069C166.277 31.6026 166.675 31.3095 167.009 30.9298L165.807 29.7174C165.616 29.9264 165.397 30.0863 165.15 30.1956C164.902 30.3049 164.621 30.3602 164.306 30.3602C163.963 30.3602 163.656 30.2797 163.384 30.1175C163.112 29.9565 162.899 29.7378 162.747 29.4614C162.594 29.1863 162.518 28.8667 162.518 28.5062C162.518 28.1457 162.594 27.8261 162.747 27.5509C162.899 27.2758 163.111 27.0583 163.384 26.9021L163.385 26.8973Z" fill="#ffffff"></path><path d="M172.787 25.7161C172.596 25.5191 172.373 25.3533 172.116 25.2223C171.725 25.0228 171.286 24.9231 170.8 24.9231C170.161 24.9231 169.591 25.0805 169.091 25.3941C168.59 25.7077 168.197 26.1355 167.911 26.6786C167.625 27.2205 167.482 27.8345 167.482 28.5194C167.482 29.2043 167.625 29.8039 167.911 30.3458C168.197 30.8877 168.59 31.3155 169.091 31.6303C169.592 31.9439 170.157 32.1013 170.785 32.1013C171.28 32.1013 171.726 32.0015 172.123 31.8021C172.379 31.6735 172.6 31.5101 172.787 31.3155V31.9583H174.675V25.0673H172.787V25.7185V25.7161ZM172.416 29.8435C172.091 30.1956 171.667 30.371 171.143 30.371C170.809 30.371 170.509 30.2905 170.242 30.1283C169.975 29.9673 169.768 29.7486 169.62 29.4722C169.472 29.1971 169.399 28.8727 169.399 28.5026C169.399 28.1325 169.472 27.8225 169.62 27.5473C169.768 27.2722 169.972 27.0535 170.235 26.8913C170.497 26.7303 170.8 26.6486 171.143 26.6486C171.487 26.6486 171.801 26.7267 172.059 26.8841C172.316 27.0415 172.522 27.2626 172.674 27.5473C172.827 27.8321 172.903 28.1565 172.903 28.517C172.903 29.0493 172.74 29.4915 172.416 29.8435Z" fill="#ffffff"></path><path d="M183.869 25.6416C183.695 25.4722 183.491 25.3292 183.254 25.2151C182.854 25.0204 182.401 24.9231 181.895 24.9231C181.275 24.9231 180.718 25.0733 180.223 25.3725C179.726 25.6717 179.338 26.079 179.057 26.5921C178.776 27.1051 178.635 27.6855 178.635 28.332C178.635 28.9784 178.776 29.5636 179.057 30.0862C179.338 30.6089 179.726 31.0211 180.223 31.3203C180.718 31.6194 181.276 31.7696 181.895 31.7696C182.4 31.7696 182.85 31.6699 183.247 31.4705C183.479 31.3539 183.681 31.2109 183.855 31.0439V31.6423C183.855 32.1457 183.683 32.5483 183.341 32.8475C182.997 33.1466 182.54 33.2968 181.968 33.2968C181.501 33.2968 181.103 33.2139 180.774 33.0469C180.445 32.8799 180.147 32.6408 179.88 32.326L178.679 33.5095C179.022 33.9853 179.472 34.353 180.03 34.615C180.588 34.8769 181.239 35.0079 181.983 35.0079C182.727 35.0079 183.365 34.8673 183.927 34.5873C184.489 34.3062 184.93 33.9096 185.25 33.3966C185.57 32.8835 185.729 32.2887 185.729 31.6134V25.0649H183.87V25.6416H183.869ZM183.162 29.8435C182.909 29.9865 182.606 30.0574 182.253 30.0574C181.929 30.0574 181.636 29.9841 181.374 29.8363C181.112 29.6885 180.909 29.4843 180.766 29.2223C180.623 28.9604 180.552 28.6636 180.552 28.3307C180.552 27.9979 180.625 27.7155 180.773 27.4536C180.921 27.1917 181.12 26.9874 181.374 26.8396C181.626 26.6918 181.924 26.6185 182.268 26.6185C182.611 26.6185 182.897 26.6918 183.154 26.8396C183.411 26.9874 183.61 27.1917 183.748 27.4536C183.886 27.7155 183.956 28.0123 183.956 28.3452C183.956 28.678 183.886 28.9748 183.748 29.2367C183.61 29.4987 183.414 29.7005 183.162 29.8435Z" fill="#ffffff"></path><path d="M191.942 25.0853C191.68 24.9759 191.377 24.9207 191.033 24.9207C190.261 24.9207 189.669 25.1658 189.26 25.6548C189.255 25.6608 189.25 25.6668 189.245 25.6728V25.0624H187.372V31.9534H189.245V28.1589C189.245 27.6362 189.371 27.2505 189.624 27.003C189.876 26.7555 190.203 26.6317 190.603 26.6317C190.794 26.6317 190.962 26.6581 191.11 26.7098C191.258 26.7627 191.384 26.8504 191.489 26.9741L192.661 25.6188C192.441 25.3712 192.201 25.1934 191.939 25.0841L191.942 25.0853Z" fill="#ffffff"></path><path d="M198.262 25.3785C197.704 25.0649 197.072 24.9075 196.367 24.9075C195.661 24.9075 195.044 25.0673 194.486 25.3857C193.929 25.7041 193.488 26.1319 193.163 26.6702C192.839 27.2073 192.677 27.8141 192.677 28.4894C192.677 29.1646 192.839 29.7895 193.163 30.3374C193.488 30.8841 193.929 31.3166 194.486 31.6351C195.044 31.9535 195.671 32.1133 196.367 32.1133C197.062 32.1133 197.706 31.9547 198.269 31.6351C198.831 31.3166 199.275 30.8817 199.599 30.3302C199.923 29.7786 200.086 29.1658 200.086 28.4894C200.086 27.8129 199.921 27.2049 199.592 26.663C199.262 26.1211 198.819 25.6933 198.262 25.3785ZM197.934 29.459C197.786 29.7354 197.576 29.9541 197.304 30.1151C197.032 30.2773 196.72 30.3578 196.368 30.3578C196.016 30.3578 195.719 30.2773 195.452 30.1151C195.186 29.9541 194.978 29.7354 194.83 29.459C194.682 29.1839 194.609 28.8642 194.609 28.5038C194.609 28.1433 194.682 27.8237 194.83 27.5485C194.978 27.2734 195.184 27.0559 195.452 26.8997C195.719 26.7423 196.024 26.6642 196.368 26.6642C196.712 26.6642 197.028 26.7423 197.291 26.8997C197.553 27.0571 197.763 27.2734 197.92 27.5485C198.078 27.8249 198.156 28.1433 198.156 28.5038C198.156 28.8642 198.081 29.1839 197.935 29.459H197.934Z" fill="#ffffff"></path><path d="M205.462 29.0154C205.462 29.4432 205.353 29.776 205.133 30.0139C204.913 30.2519 204.609 30.3708 204.217 30.3708C203.96 30.3708 203.735 30.3191 203.546 30.2134C203.355 30.1089 203.212 29.9539 203.117 29.7496C203.022 29.5453 202.974 29.3002 202.974 29.0154V25.0635H201.086V29.0575C201.086 29.6571 201.219 30.1846 201.486 30.6412C201.753 31.0978 202.124 31.4522 202.601 31.7046C203.078 31.9569 203.616 32.083 204.217 32.083C204.818 32.083 205.354 31.9569 205.826 31.7046C206.298 31.4522 206.667 31.0978 206.934 30.6412C207.201 30.1846 207.334 29.6571 207.334 29.0575V25.0635H205.461V29.0154H205.462Z" fill="#ffffff"></path><path d="M215.571 26.6761C215.285 26.1342 214.887 25.7065 214.377 25.3917C213.866 25.0781 213.292 24.9207 212.654 24.9207C212.157 24.9207 211.71 25.0252 211.309 25.2343C211.077 25.3556 210.873 25.5022 210.694 25.6716V25.0624H208.821V34.8492H210.679V31.3575C210.862 31.5317 211.071 31.6783 211.309 31.7972C211.709 31.9967 212.157 32.0964 212.654 32.0964C213.292 32.0964 213.864 31.939 214.369 31.6254C214.874 31.3118 215.273 30.884 215.564 30.3409C215.855 29.799 216 29.1898 216 28.5146C216 27.8393 215.857 27.2169 215.571 26.6737V26.6761ZM213.848 29.465C213.7 29.7462 213.497 29.9672 213.24 30.1283C212.983 30.2905 212.682 30.371 212.339 30.371C211.995 30.371 211.688 30.2905 211.416 30.1283C211.144 29.9672 210.939 29.745 210.801 29.465C210.663 29.185 210.593 28.863 210.593 28.5025C210.593 28.1421 210.666 27.8224 210.814 27.5473C210.962 27.2721 211.166 27.0534 211.429 26.8912C211.691 26.7302 211.989 26.6485 212.323 26.6485C212.675 26.6485 212.98 26.729 213.239 26.8912C213.496 27.0534 213.699 27.2721 213.847 27.5473C213.995 27.8236 214.068 28.1421 214.068 28.5025C214.068 28.863 213.993 29.185 213.847 29.465H213.848Z" fill="#ffffff"></path></svg>