<?xml version="1.0"?> <svg xmlns="http://www.w3.org/2000/svg" xmlns:xlink="http://www.w3.org/1999/xlink" width="177" height="39" viewBox="0 0 177 39" fill="none"><g clip-path="url(#clip0_320_972)"><path d="M63.3762 31.97C63.1945 31.7299 62.9665 31.5368 62.6921 31.3923C62.3769 31.2259 62.0196 31.1425 61.6192 31.1425C61.1299 31.1425 60.6908 31.2646 60.3013 31.5085C59.9118 31.7523 59.6042 32.0818 59.3784 32.4958C59.152 32.9104 59.0391 33.3762 59.0391 33.8939C59.0391 34.4115 59.152 34.8774 59.3784 35.2919C59.6042 35.7065 59.9124 36.0338 60.3013 36.2738C60.6908 36.5143 61.1299 36.6344 61.6192 36.6344C62.0196 36.6344 62.379 36.5509 62.6981 36.3845C62.972 36.2416 63.1984 36.0501 63.3767 35.8112V36.5231H64.3886V31.2532H63.3767V31.97H63.3762ZM62.9873 35.1861C62.6834 35.5227 62.283 35.6907 61.7861 35.6907C61.4523 35.6907 61.1561 35.6132 60.8964 35.4578C60.6368 35.3023 60.4349 35.0901 60.2904 34.8201C60.1458 34.5501 60.0738 34.2375 60.0738 33.8824C60.0738 33.5273 60.1458 33.2262 60.2904 32.9562C60.4349 32.6862 60.6351 32.4734 60.891 32.3185C61.1468 32.1631 61.4414 32.0856 61.7752 32.0856C62.109 32.0856 62.3998 32.1614 62.648 32.3131C62.8962 32.4647 63.0909 32.6774 63.2316 32.9507C63.3724 33.2246 63.4427 33.5388 63.4427 33.8939C63.4427 34.4192 63.2905 34.8501 62.9867 35.1861H62.9873Z" fill="white"></path><path d="M69.5857 31.4419C69.2781 31.2423 68.9241 31.1425 68.5237 31.1425C68.1233 31.1425 67.7638 31.233 67.4453 31.4141C67.2053 31.5505 67.0051 31.7239 66.8447 31.9339V31.2532H65.8438V36.5231H66.8447V33.4498C66.8447 33.1836 66.9042 32.9469 67.0225 32.7396C67.1409 32.5329 67.304 32.3698 67.5118 32.2514C67.7191 32.133 67.9564 32.0741 68.2237 32.0741C68.6241 32.0741 68.9481 32.2034 69.1968 32.4625C69.445 32.7216 69.5694 33.0505 69.5694 33.4498V36.5231H70.5812V33.2502C70.5812 32.888 70.4923 32.546 70.3145 32.2241C70.1367 31.9023 69.8939 31.6416 69.5863 31.4419H69.5857Z" fill="white"></path><path d="M78.1394 31.4086C77.7058 31.1648 77.2143 31.0426 76.6661 31.0426C76.1179 31.0426 75.6373 31.1664 75.2037 31.4141C74.77 31.6617 74.4269 31.995 74.1749 32.4123C73.9229 32.8301 73.7969 33.302 73.7969 33.8267C73.7969 34.3515 73.9229 34.8381 74.1749 35.2635C74.4269 35.689 74.77 36.0256 75.2037 36.2732C75.6373 36.5209 76.1244 36.6447 76.6661 36.6447C77.2078 36.6447 77.7074 36.5209 78.1449 36.2732C78.5824 36.0256 78.9271 35.6874 79.1791 35.2581C79.4311 34.8293 79.5572 34.352 79.5572 33.8267C79.5572 33.3014 79.4295 32.8285 79.1737 32.4069C78.9178 31.9852 78.5731 31.6525 78.1394 31.4086ZM77.8836 34.5811C77.7685 34.7955 77.6054 34.9657 77.3943 35.0917C77.1832 35.2177 76.9399 35.2804 76.6661 35.2804C76.3923 35.2804 76.1621 35.2177 75.9543 35.0917C75.7464 34.9662 75.5855 34.7961 75.4704 34.5811C75.3553 34.3668 75.298 34.1191 75.298 33.8376C75.298 33.5562 75.3553 33.3091 75.4704 33.0942C75.5855 32.8798 75.7464 32.7112 75.9543 32.5896C76.1615 32.4674 76.3988 32.4063 76.6661 32.4063C76.9334 32.4063 77.1794 32.4674 77.3834 32.5896C77.5874 32.7118 77.7505 32.8798 77.8727 33.0942C77.9949 33.3085 78.056 33.5567 78.056 33.8376C78.056 34.1186 77.9987 34.3668 77.8836 34.5811Z" fill="white"></path><path d="M84.0337 31.1812C83.8297 31.0961 83.5946 31.0536 83.3273 31.0536C82.7268 31.0536 82.2669 31.244 81.9484 31.6247C81.9445 31.6291 81.9413 31.634 81.9374 31.6389V31.1643H80.4805V36.5226H81.9374V33.5715C81.9374 33.1646 82.0356 32.8651 82.232 32.6731C82.4284 32.4811 82.6826 32.3846 82.9935 32.3846C83.1419 32.3846 83.2733 32.4053 83.3884 32.4457C83.5035 32.4866 83.6017 32.5548 83.683 32.6508L84.595 31.5969C84.4243 31.4049 84.2372 31.2658 84.0337 31.1807V31.1812Z" fill="white"></path><path d="M86.7792 32.5901C86.9903 32.4679 87.2298 32.4069 87.4965 32.4069C87.7338 32.4069 87.9504 32.4478 88.1473 32.529C88.3436 32.6103 88.5084 32.7325 88.642 32.8951L89.5983 31.941C89.3315 31.6454 89.02 31.4217 88.6644 31.2701C88.3087 31.1184 87.9193 31.0426 87.4965 31.0426C86.9478 31.0426 86.4546 31.1648 86.0177 31.4086C85.5802 31.6525 85.2355 31.9874 84.9835 32.4128C84.7315 32.8383 84.6055 33.3173 84.6055 33.8496C84.6055 34.382 84.7315 34.8391 84.9835 35.2641C85.2355 35.6896 85.5802 36.0261 86.0177 36.2738C86.4552 36.5214 86.9445 36.6452 87.4856 36.6452C87.9154 36.6452 88.3104 36.5656 88.6698 36.4069C89.0293 36.2481 89.3386 36.0207 89.5983 35.7245L88.6644 34.7813C88.516 34.9439 88.3453 35.0683 88.1527 35.1528C87.9596 35.2379 87.7414 35.2804 87.4965 35.2804C87.2298 35.2804 86.9903 35.2177 86.7792 35.0917C86.5681 34.9662 86.4028 34.7961 86.2845 34.5811C86.1655 34.3668 86.1066 34.1191 86.1066 33.8376C86.1066 33.5562 86.1661 33.3091 86.2845 33.0942C86.4028 32.8798 86.5681 32.7112 86.7792 32.5896V32.5901Z" fill="white"></path><path d="M94.0942 31.6706C93.9453 31.5173 93.7718 31.3886 93.5716 31.286C93.2678 31.1306 92.9269 31.0531 92.5489 31.0531C92.0519 31.0531 91.609 31.1753 91.2201 31.4191C90.8312 31.6629 90.5251 31.9962 90.3026 32.4173C90.08 32.8385 89.9688 33.3158 89.9688 33.8487C89.9688 34.3816 90.08 34.8469 90.3026 35.2686C90.5251 35.6902 90.8306 36.023 91.2201 36.2668C91.6096 36.5106 92.0487 36.6328 92.538 36.6328C92.9236 36.6328 93.27 36.5554 93.5776 36.3999C93.7762 36.2995 93.9486 36.173 94.0948 36.0219V36.5221H95.5627V31.1638H94.0948V31.67L94.0942 31.6706ZM93.8051 34.8813C93.5531 35.1551 93.2231 35.2915 92.8156 35.2915C92.556 35.2915 92.3225 35.2288 92.1152 35.1027C91.9074 34.9773 91.7465 34.8071 91.6314 34.5922C91.5163 34.3778 91.459 34.1263 91.459 33.8378C91.459 33.5492 91.5163 33.3092 91.6314 33.0943C91.7465 32.8799 91.9058 32.7097 92.1098 32.5837C92.3138 32.4583 92.5489 32.395 92.8162 32.395C93.0834 32.395 93.3278 32.4561 93.528 32.5783C93.7282 32.7005 93.8875 32.8723 94.0064 33.0943C94.1248 33.3163 94.1842 33.5678 94.1842 33.8487C94.1842 34.2627 94.0582 34.6069 93.8062 34.8802L93.8051 34.8813Z" fill="white"></path><path d="M102.711 31.6133C102.575 31.4818 102.416 31.3705 102.233 31.2811C101.921 31.1294 101.569 31.0536 101.176 31.0536C100.694 31.0536 100.26 31.1703 99.875 31.4032C99.4894 31.6362 99.1872 31.9525 98.9685 32.3518C98.7497 32.7511 98.6406 33.2022 98.6406 33.7052C98.6406 34.2081 98.7497 34.663 98.9685 35.07C99.1872 35.4769 99.4894 35.7965 99.875 36.0295C100.26 36.2624 100.694 36.3791 101.176 36.3791C101.569 36.3791 101.919 36.3017 102.227 36.1462C102.407 36.0551 102.564 35.9444 102.7 35.814V36.2793C102.7 36.6715 102.566 36.9841 102.299 37.217C102.032 37.4499 101.676 37.5666 101.232 37.5666C100.868 37.5666 100.559 37.5017 100.303 37.3724C100.047 37.2432 99.8156 37.0561 99.6083 36.8122L98.6744 37.733C98.9412 38.1028 99.2914 38.3892 99.725 38.5927C100.159 38.7961 100.665 38.8976 101.243 38.8976C101.821 38.8976 102.318 38.7885 102.755 38.5703C103.193 38.3521 103.535 38.0434 103.784 37.6441C104.032 37.2448 104.157 36.7822 104.157 36.2575V31.1654H102.711V31.6138V31.6133ZM102.161 34.8812C101.964 34.992 101.729 35.0476 101.454 35.0476C101.202 35.0476 100.974 34.9903 100.77 34.8758C100.566 34.7612 100.409 34.6019 100.298 34.3985C100.187 34.195 100.131 33.9643 100.131 33.7052C100.131 33.4461 100.188 33.2262 100.303 33.0228C100.418 32.8193 100.574 32.6606 100.77 32.5455C100.967 32.4309 101.198 32.3737 101.465 32.3737C101.732 32.3737 101.954 32.4309 102.155 32.5455C102.355 32.66 102.509 32.8193 102.616 33.0228C102.724 33.2262 102.778 33.4575 102.778 33.7161C102.778 33.9746 102.724 34.2059 102.616 34.4094C102.509 34.6128 102.356 34.7699 102.16 34.8807L102.161 34.8812Z" fill="white"></path><path d="M108.987 31.1812C108.783 31.0961 108.548 31.0536 108.28 31.0536C107.68 31.0536 107.22 31.244 106.901 31.6247C106.898 31.6291 106.894 31.634 106.891 31.6389V31.1643H105.434V36.5226H106.891V33.5715C106.891 33.1646 106.989 32.8651 107.185 32.6731C107.382 32.4811 107.636 32.3846 107.947 32.3846C108.095 32.3846 108.226 32.4053 108.342 32.4457C108.457 32.4866 108.555 32.5548 108.636 32.6508L109.548 31.5969C109.377 31.4049 109.19 31.2658 108.986 31.1807L108.987 31.1812Z" fill="white"></path><path d="M113.901 31.4086C113.468 31.1648 112.976 31.0426 112.428 31.0426C111.88 31.0426 111.399 31.1664 110.965 31.4141C110.532 31.6617 110.189 31.995 109.937 32.4123C109.685 32.8301 109.559 33.302 109.559 33.8267C109.559 34.3515 109.685 34.8381 109.937 35.2635C110.189 35.689 110.532 36.0256 110.965 36.2732C111.399 36.5209 111.887 36.6447 112.428 36.6447C112.969 36.6447 113.469 36.5209 113.907 36.2732C114.344 36.0256 114.689 35.6874 114.941 35.2581C115.193 34.8293 115.319 34.352 115.319 33.8267C115.319 33.3014 115.191 32.8285 114.935 32.4069C114.68 31.9852 114.335 31.6525 113.901 31.4086ZM113.645 34.5811C113.53 34.7955 113.367 34.9657 113.156 35.0917C112.945 35.2177 112.702 35.2804 112.428 35.2804C112.154 35.2804 111.924 35.2177 111.716 35.0917C111.508 34.9662 111.347 34.7961 111.232 34.5811C111.117 34.3668 111.06 34.1191 111.06 33.8376C111.06 33.5562 111.117 33.3091 111.232 33.0942C111.347 32.8798 111.508 32.7112 111.716 32.5896C111.923 32.4674 112.161 32.4063 112.428 32.4063C112.695 32.4063 112.941 32.4674 113.145 32.5896C113.349 32.7118 113.512 32.8798 113.634 33.0942C113.757 33.3085 113.818 33.5567 113.818 33.8376C113.818 34.1186 113.76 34.3668 113.645 34.5811Z" fill="white"></path><path d="M119.501 34.2375C119.501 34.5703 119.416 34.8294 119.245 35.0143C119.074 35.1992 118.837 35.2914 118.533 35.2914C118.333 35.2914 118.158 35.251 118.011 35.1692C117.862 35.0879 117.751 34.9679 117.677 34.8087C117.603 34.6499 117.566 34.459 117.566 34.2375V31.1643H116.098V34.2708C116.098 34.7367 116.201 35.1474 116.409 35.5025C116.616 35.8576 116.906 36.1331 117.276 36.3289C117.647 36.5247 118.066 36.6229 118.533 36.6229C119.001 36.6229 119.417 36.5247 119.784 36.3289C120.151 36.1331 120.438 35.8576 120.646 35.5025C120.853 35.1474 120.957 34.7372 120.957 34.2708V31.1643H119.5V34.2375H119.501Z" fill="white"></path><path d="M126.434 31.4196C126.037 31.1758 125.591 31.0536 125.094 31.0536C124.708 31.0536 124.36 31.1349 124.049 31.2974C123.869 31.3918 123.71 31.5052 123.57 31.6378V31.1643H122.113V38.7749H123.559V36.0589C123.701 36.1942 123.863 36.3082 124.048 36.4004C124.36 36.5559 124.708 36.6333 125.093 36.6333C125.59 36.6333 126.035 36.5111 126.427 36.2673C126.82 36.0235 127.13 35.6902 127.356 35.2691C127.582 34.8474 127.695 34.3745 127.695 33.8492C127.695 33.3239 127.584 32.8395 127.361 32.4178C127.139 31.9962 126.83 31.6634 126.433 31.4196H126.434ZM126.023 34.5872C125.908 34.8054 125.75 34.9772 125.55 35.1032C125.35 35.2292 125.117 35.292 124.85 35.292C124.583 35.292 124.344 35.2292 124.133 35.1032C123.922 34.9778 123.762 34.8054 123.654 34.5872C123.547 34.369 123.493 34.1197 123.493 33.8383C123.493 33.5568 123.55 33.3097 123.665 33.0948C123.78 32.8804 123.94 32.7102 124.144 32.5842C124.348 32.4587 124.579 32.3955 124.839 32.3955C125.113 32.3955 125.35 32.4582 125.55 32.5842C125.751 32.7102 125.908 32.8799 126.023 33.0948C126.138 33.3092 126.195 33.5573 126.195 33.8383C126.195 34.1192 126.138 34.369 126.023 34.5872Z" fill="white"></path><path d="M132.555 32.3349C132.814 32.1832 133.111 32.1074 133.445 32.1074C133.719 32.1074 133.975 32.1576 134.212 32.2574C134.45 32.3572 134.65 32.5034 134.813 32.6954L135.48 32.03C135.228 31.7414 134.928 31.5216 134.58 31.3699C134.231 31.2183 133.853 31.1425 133.445 31.1425C132.927 31.1425 132.458 31.263 132.039 31.503C131.62 31.7436 131.29 32.0709 131.049 32.4849C130.808 32.8994 130.688 33.3653 130.688 33.883C130.688 34.4006 130.808 34.8577 131.049 35.275C131.29 35.6929 131.62 36.024 132.039 36.2678C132.458 36.5116 132.926 36.6338 133.445 36.6338C133.853 36.6338 134.233 36.5564 134.586 36.4009C134.937 36.2454 135.236 36.0272 135.481 35.7463L134.824 35.0808C134.654 35.2734 134.452 35.419 134.218 35.5188C133.985 35.6187 133.727 35.6689 133.445 35.6689C133.112 35.6689 132.815 35.5914 132.556 35.4359C132.296 35.2805 132.092 35.0699 131.944 34.8037C131.796 34.5375 131.722 34.2304 131.722 33.883C131.722 33.5355 131.796 33.2284 131.944 32.9622C132.093 32.696 132.296 32.4871 132.556 32.3354L132.555 32.3349Z" fill="white"></path><path d="M140.169 31.503C139.75 31.263 139.281 31.1425 138.762 31.1425C138.243 31.1425 137.787 31.2646 137.372 31.5085C136.957 31.7523 136.627 32.0796 136.383 32.4903C136.138 32.9005 136.016 33.3615 136.016 33.8715C136.016 34.3815 136.138 34.8572 136.383 35.275C136.628 35.6929 136.957 36.024 137.372 36.2678C137.787 36.5116 138.25 36.6338 138.762 36.6338C139.274 36.6338 139.75 36.5116 140.169 36.2678C140.588 36.024 140.919 35.6929 141.164 35.275C141.409 34.8572 141.532 34.3892 141.532 33.8715C141.532 33.3538 141.409 32.8989 141.164 32.4849C140.919 32.0709 140.588 31.7436 140.169 31.503ZM140.275 34.7977C140.126 35.0677 139.922 35.2805 139.663 35.4354C139.404 35.5909 139.104 35.6683 138.763 35.6683C138.422 35.6683 138.144 35.5909 137.884 35.4354C137.625 35.2799 137.421 35.0677 137.273 34.7977C137.125 34.5277 137.05 34.219 137.05 33.8715C137.05 33.524 137.125 33.2278 137.273 32.9616C137.421 32.6954 137.625 32.4865 137.884 32.3349C138.144 32.1832 138.436 32.1074 138.763 32.1074C139.089 32.1074 139.402 32.1832 139.658 32.3349C139.914 32.4865 140.118 32.6954 140.269 32.9616C140.421 33.2278 140.497 33.5311 140.497 33.8715C140.497 34.2119 140.423 34.5277 140.275 34.7977Z" fill="white"></path><path d="M149.791 31.3863C149.487 31.2237 149.143 31.1425 148.757 31.1425C148.371 31.1425 148.045 31.2259 147.734 31.3923C147.422 31.5587 147.168 31.7883 146.972 32.0801C146.968 32.0856 146.966 32.091 146.962 32.0965C146.958 32.0894 146.954 32.0818 146.95 32.0741C146.775 31.7785 146.539 31.5488 146.238 31.3863C145.938 31.2237 145.602 31.1425 145.232 31.1425C144.861 31.1425 144.513 31.2259 144.209 31.3923C143.984 31.515 143.795 31.6738 143.642 31.8674V31.2537H142.641V36.5236H143.642V33.3397C143.642 33.0735 143.701 32.8476 143.819 32.6627C143.938 32.4778 144.094 32.3338 144.286 32.2301C144.479 32.1265 144.698 32.0747 144.943 32.0747C145.306 32.0747 145.608 32.1876 145.849 32.4129C146.09 32.6387 146.211 32.9475 146.211 33.3391V36.5231H147.212V33.3391C147.212 33.0729 147.271 32.8471 147.39 32.6622C147.508 32.4772 147.666 32.3332 147.862 32.2296C148.058 32.126 148.279 32.0741 148.524 32.0741C148.879 32.0741 149.178 32.1871 149.419 32.4123C149.66 32.6382 149.78 32.9469 149.78 33.3386V36.5225H150.792V33.1389C150.792 32.7249 150.701 32.3698 150.52 32.0741C150.338 31.7785 150.095 31.5488 149.791 31.3863Z" fill="white"></path><path d="M156.235 31.5085C155.846 31.2646 155.41 31.1425 154.929 31.1425C154.535 31.1425 154.178 31.2259 153.856 31.3923C153.572 31.539 153.336 31.7348 153.149 31.9798V31.2537H152.148V38.7312H153.149V35.8025C153.332 36.0458 153.563 36.24 153.844 36.3851C154.167 36.5514 154.528 36.6349 154.929 36.6349C155.41 36.6349 155.846 36.5149 156.235 36.2743C156.624 36.0343 156.93 35.707 157.153 35.2925C157.375 34.8785 157.487 34.4126 157.487 33.8944C157.487 33.3762 157.375 32.9109 157.153 32.4963C156.93 32.0823 156.625 31.7528 156.235 31.509V31.5085ZM156.235 34.8201C156.091 35.0901 155.892 35.3028 155.64 35.4578C155.388 35.6132 155.095 35.6907 154.762 35.6907C154.429 35.6907 154.145 35.6132 153.889 35.4578C153.633 35.3023 153.437 35.0901 153.3 34.8201C153.162 34.5501 153.094 34.2413 153.094 33.8939C153.094 33.5464 153.165 33.2267 153.305 32.9562C153.446 32.6862 153.643 32.4734 153.895 32.3185C154.147 32.1631 154.436 32.0856 154.762 32.0856C155.088 32.0856 155.388 32.1631 155.64 32.3185C155.892 32.474 156.091 32.6867 156.235 32.9562C156.38 33.2262 156.452 33.5349 156.452 33.8824C156.452 34.2299 156.38 34.5501 156.235 34.8201Z" fill="white"></path><path d="M162.626 31.97C162.445 31.73 162.217 31.5369 161.942 31.3918C161.627 31.2254 161.27 31.142 160.869 31.142C160.38 31.142 159.941 31.2642 159.551 31.508C159.162 31.7518 158.854 32.0813 158.628 32.4953C158.402 32.9099 158.289 33.3757 158.289 33.8934C158.289 34.411 158.402 34.8769 158.628 35.2914C158.854 35.706 159.162 36.0333 159.551 36.2733C159.941 36.5139 160.38 36.6339 160.869 36.6339C161.27 36.6339 161.629 36.5504 161.948 36.384C162.221 36.2411 162.448 36.0497 162.626 35.8107V36.5226H163.638V31.2527H162.626V31.9695V31.97ZM162.237 35.1862C161.933 35.5227 161.532 35.6907 161.036 35.6907C160.702 35.6907 160.406 35.6133 160.146 35.4578C159.886 35.3023 159.684 35.0902 159.54 34.8201C159.395 34.5501 159.323 34.2376 159.323 33.8825C159.323 33.5274 159.395 33.2263 159.54 32.9562C159.684 32.6862 159.885 32.4735 160.14 32.3186C160.396 32.1631 160.691 32.0856 161.025 32.0856C161.358 32.0856 161.649 32.1615 161.897 32.3131C162.146 32.4648 162.34 32.6775 162.481 32.9508C162.622 33.2246 162.692 33.5388 162.692 33.8939C162.692 34.4192 162.54 34.8501 162.236 35.1862H162.237Z" fill="white"></path><path d="M168.836 31.4419C168.528 31.2423 168.174 31.1425 167.774 31.1425C167.373 31.1425 167.014 31.233 166.695 31.4141C166.455 31.5505 166.255 31.7239 166.095 31.9339V31.2532H165.094V36.5231H166.095V33.4498C166.095 33.1836 166.154 32.9469 166.273 32.7396C166.391 32.5329 166.554 32.3698 166.762 32.2514C166.969 32.133 167.207 32.0741 167.474 32.0741C167.874 32.0741 168.198 32.2034 168.447 32.4625C168.695 32.7216 168.819 33.0505 168.819 33.4498V36.5231H169.831V33.2502C169.831 32.888 169.742 32.546 169.565 32.2241C169.387 31.9023 169.144 31.6416 168.836 31.4419H168.836Z" fill="white"></path><path d="M174.881 31.2533L173.273 34.9898L171.745 31.2533H170.633L172.706 36.0633L171.411 38.7307H172.523L173.524 36.5674L175.993 31.2533H174.881Z" fill="white"></path></g><rect width="175.798" height="22.9301" fill="url(#pattern0_320_972)"></rect><defs><pattern id="pattern0_320_972" patternContentUnits="objectBoundingBox" width="1" height="1"><use xlink:href="#image0_320_972" transform="scale(0.000876424 0.00671925)"></use></pattern><clipPath id="clip0_320_972"><rect width="117.089" height="7.89746" fill="white" transform="translate(59.0391 31.0038)"></rect></clipPath><image id="image0_320_972" width="1141" height="241" preserveAspectRatio="none"></image></defs></svg>