<?xml version="1.0"?> <svg xmlns="http://www.w3.org/2000/svg" xmlns:xlink="http://www.w3.org/1999/xlink" width="141" height="58" viewBox="0 0 141 58" fill="none"><rect width="140" height="41" fill="url(#pattern0_320_880)"></rect><g clip-path="url(#clip0_320_880)"><path d="M27.3374 50.9662C27.1557 50.7262 26.9277 50.5331 26.6533 50.3885C26.338 50.2221 25.9808 50.1387 25.5804 50.1387C25.0911 50.1387 24.652 50.2609 24.2625 50.5047C23.873 50.7485 23.5654 51.078 23.3395 51.492C23.1132 51.9066 23.0002 52.3724 23.0002 52.8901C23.0002 53.4077 23.1132 53.8736 23.3395 54.2881C23.5654 54.7027 23.8736 55.03 24.2625 55.27C24.652 55.5106 25.0911 55.6306 25.5804 55.6306C25.9808 55.6306 26.3402 55.5471 26.6593 55.3807C26.9332 55.2378 27.1595 55.0464 27.3379 54.8074V55.5193H28.3498V50.2494H27.3379V50.9662H27.3374ZM26.9484 54.1823C26.6446 54.5189 26.2442 54.6869 25.7473 54.6869C25.4135 54.6869 25.1173 54.6094 24.8576 54.454C24.598 54.2985 24.3961 54.0863 24.2516 53.8163C24.107 53.5463 24.035 53.2337 24.035 52.8786C24.035 52.5235 24.107 52.2224 24.2516 51.9524C24.3961 51.6824 24.5963 51.4696 24.8522 51.3147C25.108 51.1593 25.4025 51.0818 25.7364 51.0818C26.0702 51.0818 26.361 51.1576 26.6091 51.3093C26.8573 51.4609 27.0521 51.6737 27.1928 51.9469C27.3335 52.2208 27.4039 52.535 27.4039 52.8901C27.4039 53.4154 27.2517 53.8463 26.9479 54.1823H26.9484Z" fill="white"></path><path d="M33.5469 50.4381C33.2393 50.2385 32.8853 50.1387 32.4849 50.1387C32.0845 50.1387 31.725 50.2292 31.4065 50.4103C31.1665 50.5467 30.9663 50.7202 30.8059 50.9302V50.2494H29.8049V55.5193H30.8059V52.4461C30.8059 52.1799 30.8653 51.9431 30.9837 51.7358C31.1021 51.5291 31.2652 51.366 31.473 51.2476C31.6803 51.1293 31.9176 51.0704 32.1849 51.0704C32.5852 51.0704 32.9093 51.1996 33.158 51.4587C33.4062 51.7178 33.5306 52.0468 33.5306 52.4461V55.5193H34.5424V52.2464C34.5424 51.8842 34.4535 51.5422 34.2757 51.2204C34.0979 50.8985 33.8551 50.6378 33.5475 50.4381H33.5469Z" fill="white"></path><path d="M42.1006 50.4048C41.667 50.161 41.1755 50.0388 40.6273 50.0388C40.0791 50.0388 39.5985 50.1626 39.1649 50.4103C38.7312 50.6579 38.3881 50.9912 38.1361 51.4085C37.8841 51.8264 37.7581 52.2982 37.7581 52.823C37.7581 53.3477 37.8841 53.8343 38.1361 54.2597C38.3881 54.6852 38.7312 55.0218 39.1649 55.2694C39.5985 55.5171 40.0856 55.6409 40.6273 55.6409C41.1689 55.6409 41.6686 55.5171 42.1061 55.2694C42.5436 55.0218 42.8883 54.6836 43.1403 54.2543C43.3923 53.8255 43.5183 53.3483 43.5183 52.823C43.5183 52.2977 43.3907 51.8247 43.1349 51.4031C42.879 50.9814 42.5343 50.6487 42.1006 50.4048ZM41.8448 53.5774C41.7297 53.7917 41.5666 53.9619 41.3555 54.0879C41.1444 54.2139 40.9011 54.2767 40.6273 54.2767C40.3535 54.2767 40.1233 54.2139 39.9154 54.0879C39.7076 53.9625 39.5467 53.7923 39.4316 53.5774C39.3165 53.363 39.2592 53.1153 39.2592 52.8339C39.2592 52.5524 39.3165 52.3053 39.4316 52.0904C39.5467 51.876 39.7076 51.7074 39.9154 51.5858C40.1227 51.4636 40.36 51.4025 40.6273 51.4025C40.8946 51.4025 41.1406 51.4636 41.3446 51.5858C41.5486 51.708 41.7117 51.876 41.8339 52.0904C41.9561 52.3047 42.0172 52.5529 42.0172 52.8339C42.0172 53.1148 41.9599 53.363 41.8448 53.5774Z" fill="white"></path><path d="M47.9949 50.1774C47.7909 50.0924 47.5558 50.0498 47.2885 50.0498C46.6879 50.0498 46.2281 50.2402 45.9095 50.6209C45.9057 50.6253 45.9024 50.6302 45.8986 50.6351V50.1605H44.4417V55.5188H45.8986V52.5677C45.8986 52.1608 45.9968 51.8613 46.1932 51.6693C46.3896 51.4773 46.6438 51.3808 46.9547 51.3808C47.103 51.3808 47.2345 51.4015 47.3496 51.4419C47.4647 51.4828 47.5629 51.551 47.6442 51.647L48.5562 50.5931C48.3855 50.4011 48.1984 50.262 47.9949 50.1769V50.1774Z" fill="white"></path><path d="M50.7404 51.5863C50.9515 51.4642 51.191 51.4031 51.4577 51.4031C51.695 51.4031 51.9115 51.444 52.1085 51.5253C52.3048 51.6065 52.4696 51.7287 52.6032 51.8913L53.5594 50.9372C53.2927 50.6416 52.9812 50.4179 52.6256 50.2663C52.2699 50.1146 51.8804 50.0388 51.4577 50.0388C50.9089 50.0388 50.4158 50.161 49.9789 50.4048C49.5414 50.6487 49.1967 50.9836 48.9447 51.4091C48.6927 51.8345 48.5667 52.3135 48.5667 52.8459C48.5667 53.3783 48.6927 53.8354 48.9447 54.2603C49.1967 54.6858 49.5414 55.0223 49.9789 55.27C50.4164 55.5176 50.9057 55.6415 51.4468 55.6415C51.8766 55.6415 52.2716 55.5618 52.631 55.4031C52.9905 55.2443 53.2998 55.0169 53.5594 54.7207L52.6256 53.7775C52.4772 53.9401 52.3065 54.0645 52.1139 54.149C51.9208 54.2341 51.7026 54.2767 51.4577 54.2767C51.191 54.2767 50.9515 54.2139 50.7404 54.0879C50.5293 53.9625 50.364 53.7923 50.2456 53.5774C50.1267 53.363 50.0678 53.1153 50.0678 52.8339C50.0678 52.5524 50.1273 52.3053 50.2456 52.0904C50.364 51.876 50.5293 51.7074 50.7404 51.5858V51.5863Z" fill="white"></path><path d="M58.0554 50.6668C57.9065 50.5135 57.733 50.3848 57.5328 50.2822C57.229 50.1268 56.8881 50.0493 56.5101 50.0493C56.0131 50.0493 55.5702 50.1715 55.1813 50.4153C54.7923 50.6592 54.4863 50.9925 54.2638 51.4136C54.0412 51.8347 53.9299 52.312 53.9299 52.8449C53.9299 53.3778 54.0412 53.8431 54.2638 54.2648C54.4863 54.6864 54.7918 55.0192 55.1813 55.263C55.5707 55.5069 56.0098 55.629 56.4991 55.629C56.8848 55.629 57.2312 55.5516 57.5388 55.3961C57.7374 55.2957 57.9098 55.1692 58.0559 55.0181V55.5183H59.5238V50.16H58.0559V50.6663L58.0554 50.6668ZM57.7663 53.8775C57.5143 54.1513 57.1843 54.2877 56.7768 54.2877C56.5171 54.2877 56.2837 54.225 56.0764 54.099C55.8686 53.9735 55.7077 53.8033 55.5926 53.5884C55.4775 53.374 55.4202 53.1226 55.4202 52.834C55.4202 52.5454 55.4775 52.3054 55.5926 52.0905C55.7077 51.8761 55.8669 51.7059 56.0709 51.5799C56.275 51.4545 56.5101 51.3912 56.7773 51.3912C57.0446 51.3912 57.289 51.4523 57.4892 51.5745C57.6894 51.6967 57.8487 51.8685 57.9676 52.0905C58.086 52.3125 58.1454 52.564 58.1454 52.8449C58.1454 53.2589 58.0194 53.6031 57.7674 53.8764L57.7663 53.8775Z" fill="white"></path><path d="M66.6722 50.6095C66.5364 50.478 66.3776 50.3667 66.1938 50.2773C65.8823 50.1256 65.5299 50.0498 65.1372 50.0498C64.655 50.0498 64.2213 50.1665 63.8362 50.3995C63.4506 50.6324 63.1484 50.9488 62.9296 51.348C62.7109 51.7473 62.6018 52.1985 62.6018 52.7014C62.6018 53.2043 62.7109 53.6593 62.9296 54.0662C63.1484 54.4731 63.4506 54.7928 63.8362 55.0257C64.2213 55.2586 64.6555 55.3753 65.1372 55.3753C65.5299 55.3753 65.8801 55.2979 66.1883 55.1424C66.3684 55.0513 66.5254 54.9406 66.6607 54.8102V55.2755C66.6607 55.6677 66.5271 55.9803 66.2603 56.2132C65.9936 56.4461 65.6374 56.5628 65.1928 56.5628C64.8296 56.5628 64.5203 56.4979 64.2644 56.3687C64.0086 56.2394 63.7768 56.0523 63.5695 55.8084L62.6356 56.7292C62.9024 57.0991 63.2526 57.3854 63.6862 57.5889C64.1199 57.7924 64.6261 57.8938 65.2043 57.8938C65.7825 57.8938 66.2789 57.7847 66.7164 57.5665C67.1538 57.3483 67.4964 57.0396 67.7451 56.6403C67.9933 56.241 68.1177 55.7784 68.1177 55.2537V50.1616H66.6722V50.61V50.6095ZM66.1218 53.8774C65.9254 53.9882 65.6898 54.0438 65.4154 54.0438C65.1634 54.0438 64.9354 53.9865 64.7314 53.872C64.5274 53.7574 64.3703 53.5982 64.259 53.3947C64.1477 53.1912 64.0921 52.9605 64.0921 52.7014C64.0921 52.4423 64.1493 52.2225 64.2644 52.019C64.3795 51.8155 64.535 51.6568 64.7314 51.5417C64.9277 51.4271 65.1596 51.3699 65.4263 51.3699C65.693 51.3699 65.9156 51.4271 66.1158 51.5417C66.316 51.6562 66.4698 51.8155 66.5773 52.019C66.6847 52.2225 66.7387 52.4537 66.7387 52.7123C66.7387 52.9709 66.6847 53.2021 66.5773 53.4056C66.4698 53.6091 66.3176 53.7662 66.1212 53.8769L66.1218 53.8774Z" fill="white"></path><path d="M72.948 50.1774C72.744 50.0924 72.5089 50.0498 72.2416 50.0498C71.6411 50.0498 71.1812 50.2402 70.8627 50.6209C70.8588 50.6253 70.8556 50.6302 70.8518 50.6351V50.1605H69.3948V55.5188H70.8518V52.5677C70.8518 52.1608 70.9499 51.8613 71.1463 51.6693C71.3427 51.4773 71.5969 51.3808 71.9078 51.3808C72.0562 51.3808 72.1876 51.4015 72.3027 51.4419C72.4178 51.4828 72.516 51.551 72.5973 51.647L73.5093 50.5931C73.3386 50.4011 73.1515 50.262 72.9475 50.1769L72.948 50.1774Z" fill="white"></path><path d="M77.8623 50.4048C77.4287 50.161 76.9372 50.0388 76.389 50.0388C75.8408 50.0388 75.3602 50.1626 74.9266 50.4103C74.4929 50.6579 74.1498 50.9912 73.8978 51.4085C73.6458 51.8264 73.5198 52.2982 73.5198 52.823C73.5198 53.3477 73.6458 53.8343 73.8978 54.2597C74.1498 54.6852 74.4929 55.0218 74.9266 55.2694C75.3602 55.5171 75.8479 55.6409 76.389 55.6409C76.9301 55.6409 77.4303 55.5171 77.8678 55.2694C78.3053 55.0218 78.65 54.6836 78.902 54.2543C79.154 53.8255 79.2801 53.3483 79.2801 52.823C79.2801 52.2977 79.1524 51.8247 78.8966 51.4031C78.6407 50.9814 78.296 50.6487 77.8623 50.4048ZM77.6065 53.5774C77.4914 53.7917 77.3283 53.9619 77.1172 54.0879C76.9061 54.2139 76.6628 54.2767 76.389 54.2767C76.1152 54.2767 75.885 54.2139 75.6772 54.0879C75.4693 53.9625 75.3084 53.7923 75.1933 53.5774C75.0782 53.363 75.0209 53.1153 75.0209 52.8339C75.0209 52.5524 75.0782 52.3053 75.1933 52.0904C75.3084 51.876 75.4693 51.7074 75.6772 51.5858C75.8844 51.4636 76.1223 51.4025 76.389 51.4025C76.6557 51.4025 76.9023 51.4636 77.1063 51.5858C77.3103 51.708 77.4734 51.876 77.5956 52.0904C77.7178 52.3047 77.7789 52.5529 77.7789 52.8339C77.7789 53.1148 77.7216 53.363 77.6065 53.5774Z" fill="white"></path><path d="M83.4621 53.2336C83.4621 53.5664 83.377 53.8255 83.2063 54.0104C83.0355 54.1953 82.7982 54.2875 82.4944 54.2875C82.2942 54.2875 82.1197 54.2471 81.9718 54.1653C81.8235 54.084 81.7122 53.964 81.638 53.8048C81.5638 53.646 81.5267 53.4551 81.5267 53.2336V50.1604H80.0588V53.2669C80.0588 53.7328 80.1625 54.1435 80.3703 54.4986C80.5776 54.8537 80.8667 55.1292 81.2376 55.325C81.608 55.5208 82.0269 55.619 82.4944 55.619C82.9619 55.619 83.3786 55.5208 83.7452 55.325C84.1118 55.1292 84.3992 54.8537 84.6071 54.4986C84.8143 54.1435 84.9185 53.7333 84.9185 53.2669V50.1604H83.4615V53.2336H83.4621Z" fill="white"></path><path d="M90.3952 50.4158C89.9986 50.172 89.5519 50.0498 89.055 50.0498C88.6693 50.0498 88.3208 50.1311 88.0098 50.2936C87.8298 50.388 87.6711 50.5015 87.5314 50.634V50.1605H86.0745V57.7711H87.52V55.0551C87.6618 55.1904 87.8244 55.3044 88.0093 55.3966C88.3208 55.5521 88.6693 55.6295 89.0544 55.6295C89.5508 55.6295 89.9959 55.5073 90.3887 55.2635C90.7814 55.0197 91.0912 54.6864 91.3171 54.2653C91.5429 53.8436 91.6564 53.3707 91.6564 52.8454C91.6564 52.3201 91.5451 51.8357 91.3225 51.4141C91.1 50.9924 90.7907 50.6597 90.3941 50.4158H90.3952ZM89.9839 53.5834C89.8688 53.8016 89.7112 53.9734 89.5115 54.0995C89.3113 54.2255 89.0779 54.2882 88.8111 54.2882C88.5444 54.2882 88.3049 54.2255 88.0938 54.0995C87.8827 53.974 87.7229 53.8016 87.6154 53.5834C87.508 53.3652 87.454 53.116 87.454 52.8345C87.454 52.553 87.5113 52.3059 87.6264 52.091C87.7414 51.8766 87.9007 51.7064 88.1047 51.5804C88.3088 51.455 88.54 51.3917 88.7997 51.3917C89.0741 51.3917 89.3113 51.4544 89.5115 51.5804C89.7117 51.7064 89.8688 51.8761 89.9839 52.091C90.099 52.3054 90.1563 52.5536 90.1563 52.8345C90.1563 53.1154 90.099 53.3652 89.9839 53.5834Z" fill="white"></path><path d="M96.5164 51.3311C96.7755 51.1794 97.0723 51.1036 97.4061 51.1036C97.6805 51.1036 97.9363 51.1538 98.1736 51.2536C98.4109 51.3535 98.6111 51.4996 98.7742 51.6917L99.4413 51.0262C99.1893 50.7376 98.8887 50.5178 98.5407 50.3661C98.1921 50.2145 97.8141 50.1387 97.4066 50.1387C96.8879 50.1387 96.4188 50.2592 95.9998 50.4992C95.5809 50.7398 95.2509 51.0671 95.0103 51.4811C94.7692 51.8957 94.6487 52.3615 94.6487 52.8792C94.6487 53.3968 94.7692 53.8539 95.0103 54.2712C95.2514 54.6891 95.5809 55.0202 95.9998 55.264C96.4188 55.5078 96.8873 55.63 97.4066 55.63C97.8141 55.63 98.1943 55.5526 98.5467 55.3971C98.8985 55.2416 99.1974 55.0235 99.4418 54.7425L98.7856 54.077C98.6149 54.2696 98.413 54.4152 98.1796 54.5151C97.9461 54.6149 97.6881 54.6651 97.4066 54.6651C97.0728 54.6651 96.7766 54.5876 96.517 54.4322C96.2573 54.2767 96.0533 54.0661 95.9055 53.7999C95.7571 53.5337 95.6829 53.2266 95.6829 52.8792C95.6829 52.5317 95.7571 52.2246 95.9055 51.9584C96.0538 51.6922 96.2573 51.4833 96.517 51.3316L96.5164 51.3311Z" fill="white"></path><path d="M104.13 50.4992C103.711 50.2592 103.242 50.1387 102.723 50.1387C102.205 50.1387 101.749 50.2609 101.333 50.5047C100.918 50.7485 100.588 51.0758 100.344 51.4866C100.1 51.8968 99.9768 52.3577 99.9768 52.8677C99.9768 53.3777 100.099 53.8534 100.344 54.2712C100.589 54.6891 100.918 55.0202 101.333 55.264C101.749 55.5078 102.212 55.63 102.723 55.63C103.235 55.63 103.711 55.5078 104.13 55.264C104.549 55.0202 104.881 54.6891 105.126 54.2712C105.37 53.8534 105.493 53.3854 105.493 52.8677C105.493 52.3501 105.371 51.8951 105.126 51.4811C104.881 51.0671 104.549 50.7398 104.13 50.4992ZM104.236 53.7939C104.088 54.064 103.884 54.2767 103.624 54.4316C103.365 54.5871 103.065 54.6645 102.724 54.6645C102.383 54.6645 102.105 54.5871 101.846 54.4316C101.586 54.2761 101.382 54.064 101.234 53.7939C101.086 53.5239 101.012 53.2152 101.012 52.8677C101.012 52.5202 101.086 52.224 101.234 51.9578C101.383 51.6917 101.586 51.4827 101.846 51.3311C102.105 51.1794 102.398 51.1036 102.724 51.1036C103.05 51.1036 103.363 51.1794 103.619 51.3311C103.875 51.4827 104.079 51.6917 104.23 51.9578C104.382 52.224 104.458 52.5273 104.458 52.8677C104.458 53.2081 104.384 53.5239 104.236 53.7939Z" fill="white"></path><path d="M113.753 50.3825C113.449 50.2199 113.104 50.1387 112.718 50.1387C112.333 50.1387 112.006 50.2221 111.695 50.3885C111.383 50.5549 111.129 50.7845 110.933 51.0764C110.93 51.0818 110.927 51.0873 110.923 51.0927C110.919 51.0856 110.915 51.078 110.911 51.0704C110.737 50.7747 110.5 50.5451 110.199 50.3825C109.899 50.2199 109.563 50.1387 109.193 50.1387C108.822 50.1387 108.474 50.2221 108.17 50.3885C107.945 50.5112 107.757 50.67 107.603 50.8636V50.25H106.602V55.5198H107.603V52.3359C107.603 52.0697 107.662 51.8438 107.781 51.6589C107.899 51.474 108.055 51.33 108.248 51.2264C108.44 51.1227 108.659 51.0709 108.904 51.0709C109.267 51.0709 109.569 51.1838 109.81 51.4091C110.051 51.6349 110.172 51.9437 110.172 52.3353V55.5193H111.173V52.3353C111.173 52.0691 111.232 51.8433 111.351 51.6584C111.469 51.4735 111.627 51.3295 111.823 51.2258C112.02 51.1222 112.24 51.0704 112.485 51.0704C112.84 51.0704 113.139 51.1833 113.38 51.4086C113.621 51.6344 113.741 51.9431 113.741 52.3348V55.5187H114.753V52.1351C114.753 51.7211 114.662 51.366 114.481 51.0704C114.299 50.7747 114.056 50.5451 113.753 50.3825Z" fill="white"></path><path d="M120.196 50.5047C119.807 50.2609 119.372 50.1387 118.89 50.1387C118.497 50.1387 118.139 50.2221 117.817 50.3885C117.533 50.5352 117.297 50.7311 117.111 50.976V50.25H116.11V57.7274H117.111V54.7987C117.293 55.042 117.525 55.2362 117.806 55.3813C118.128 55.5477 118.49 55.6311 118.89 55.6311C119.372 55.6311 119.807 55.5111 120.196 55.2706C120.585 55.0305 120.891 54.7033 121.114 54.2887C121.336 53.8747 121.448 53.4088 121.448 52.8906C121.448 52.3724 121.336 51.9071 121.114 51.4926C120.891 51.0785 120.586 50.7491 120.196 50.5052V50.5047ZM120.196 53.8163C120.052 54.0863 119.853 54.2991 119.601 54.454C119.349 54.6094 119.056 54.6869 118.723 54.6869C118.39 54.6869 118.106 54.6094 117.85 54.454C117.594 54.2985 117.398 54.0863 117.261 53.8163C117.124 53.5463 117.055 53.2375 117.055 52.8901C117.055 52.5426 117.126 52.223 117.267 51.9524C117.407 51.6824 117.604 51.4696 117.856 51.3147C118.108 51.1593 118.397 51.0818 118.723 51.0818C119.049 51.0818 119.349 51.1593 119.601 51.3147C119.853 51.4702 120.052 51.6829 120.196 51.9524C120.341 52.2224 120.413 52.5311 120.413 52.8786C120.413 53.2261 120.341 53.5463 120.196 53.8163Z" fill="white"></path><path d="M126.587 50.9662C126.406 50.7262 126.178 50.5331 125.903 50.388C125.588 50.2216 125.231 50.1382 124.83 50.1382C124.341 50.1382 123.902 50.2604 123.512 50.5042C123.124 50.748 122.815 51.0775 122.59 51.4915C122.363 51.9061 122.25 52.3719 122.25 52.8896C122.25 53.4072 122.363 53.8731 122.59 54.2877C122.815 54.7022 123.124 55.0295 123.512 55.2695C123.902 55.5101 124.341 55.6301 124.83 55.6301C125.231 55.6301 125.59 55.5466 125.909 55.3803C126.183 55.2373 126.409 55.0459 126.587 54.807V55.5188H127.599V50.2489H126.587V50.9657V50.9662ZM126.198 54.1824C125.894 54.5189 125.494 54.6869 124.997 54.6869C124.663 54.6869 124.367 54.6095 124.107 54.454C123.847 54.2986 123.646 54.0864 123.501 53.8164C123.356 53.5463 123.284 53.2338 123.284 52.8787C123.284 52.5236 123.356 52.2225 123.501 51.9525C123.646 51.6824 123.846 51.4697 124.102 51.3148C124.357 51.1593 124.652 51.0819 124.986 51.0819C125.32 51.0819 125.61 51.1577 125.859 51.3093C126.107 51.461 126.302 51.6737 126.442 51.947C126.583 52.2208 126.653 52.535 126.653 52.8901C126.653 53.4154 126.501 53.8464 126.197 54.1824H126.198Z" fill="white"></path><path d="M132.797 50.4381C132.489 50.2385 132.135 50.1387 131.735 50.1387C131.334 50.1387 130.975 50.2292 130.656 50.4103C130.416 50.5467 130.216 50.7202 130.056 50.9302V50.2494H129.055V55.5193H130.056V52.4461C130.056 52.1799 130.115 51.9431 130.233 51.7358C130.352 51.5291 130.515 51.366 130.723 51.2476C130.93 51.1293 131.168 51.0704 131.435 51.0704C131.835 51.0704 132.159 51.1996 132.408 51.4587C132.656 51.7178 132.78 52.0468 132.78 52.4461V55.5193H133.792V52.2464C133.792 51.8842 133.703 51.5422 133.525 51.2204C133.348 50.8985 133.105 50.6378 132.797 50.4381H132.797Z" fill="white"></path><path d="M138.842 50.2495L137.234 53.9861L135.706 50.2495H134.594L136.667 55.0596L135.372 57.727H136.484L137.485 55.5636L139.954 50.2495H138.842Z" fill="white"></path></g><defs><pattern id="pattern0_320_880" patternContentUnits="objectBoundingBox" width="1" height="1"><use xlink:href="#image0_320_880" transform="matrix(0.00128446 0 0 0.00438596 -0.00093985 0)"></use></pattern><clipPath id="clip0_320_880"><rect width="117.089" height="7.89746" fill="white" transform="translate(23.0002 50)"></rect></clipPath><image id="image0_320_880" width="780" height="228" preserveAspectRatio="none"></image></defs></svg>