<?xml version="1.0"?> <svg xmlns="http://www.w3.org/2000/svg" xmlns:xlink="http://www.w3.org/1999/xlink" width="176" height="52" viewBox="0 0 176 52" fill="none"><g clip-path="url(#clip0_320_920)"><path d="M62.7197 44.3766C62.538 44.1366 62.31 43.9435 62.0357 43.7989C61.7204 43.6325 61.3631 43.5491 60.9627 43.5491C60.4734 43.5491 60.0343 43.6713 59.6448 43.9151C59.2553 44.1589 58.9477 44.4884 58.7219 44.9024C58.4955 45.317 58.3826 45.7828 58.3826 46.3005C58.3826 46.8181 58.4955 47.284 58.7219 47.6985C58.9477 48.1131 59.2559 48.4404 59.6448 48.6804C60.0343 48.921 60.4734 49.041 60.9627 49.041C61.3631 49.041 61.7225 48.9575 62.0417 48.7911C62.3155 48.6482 62.5419 48.4568 62.7202 48.2178V48.9297H63.7321V43.6598H62.7202V44.3766H62.7197ZM62.3308 47.5927C62.0269 47.9293 61.6265 48.0973 61.1296 48.0973C60.7958 48.0973 60.4996 48.0198 60.2399 47.8644C59.9803 47.7089 59.7785 47.4967 59.6339 47.2267C59.4893 46.9567 59.4173 46.6441 59.4173 46.289C59.4173 45.9339 59.4893 45.6328 59.6339 45.3628C59.7785 45.0928 59.9786 44.88 60.2345 44.7251C60.4903 44.5697 60.7849 44.4922 61.1187 44.4922C61.4525 44.4922 61.7433 44.568 61.9915 44.7197C62.2397 44.8713 62.4344 45.0841 62.5751 45.3573C62.7159 45.6312 62.7862 45.9454 62.7862 46.3005C62.7862 46.8258 62.634 47.2567 62.3302 47.5927H62.3308Z" fill="white"></path><path d="M68.9293 43.8485C68.6216 43.6489 68.2676 43.5491 67.8672 43.5491C67.4668 43.5491 67.1073 43.6396 66.7888 43.8207C66.5488 43.9571 66.3486 44.1306 66.1882 44.3406V43.6598H65.1873V48.9297H66.1882V45.8565C66.1882 45.5903 66.2477 45.3535 66.366 45.1462C66.4844 44.9395 66.6475 44.7764 66.8553 44.658C67.0626 44.5397 67.2999 44.4808 67.5672 44.4808C67.9676 44.4808 68.2916 44.61 68.5403 44.8691C68.7885 45.1282 68.9129 45.4572 68.9129 45.8565V48.9297H69.9248V45.6568C69.9248 45.2946 69.8358 44.9526 69.658 44.6308C69.4802 44.3089 69.2374 44.0482 68.9298 43.8485H68.9293Z" fill="white"></path><path d="M77.4827 43.8154C77.0491 43.5715 76.5576 43.4493 76.0094 43.4493C75.4612 43.4493 74.9806 43.5732 74.5469 43.8208C74.1133 44.0685 73.7702 44.4018 73.5182 44.819C73.2661 45.2369 73.1401 45.7087 73.1401 46.2335C73.1401 46.7582 73.2661 47.2448 73.5182 47.6703C73.7702 48.0957 74.1133 48.4323 74.5469 48.68C74.9806 48.9276 75.4677 49.0514 76.0094 49.0514C76.551 49.0514 77.0507 48.9276 77.4882 48.68C77.9256 48.4323 78.2704 48.0941 78.5224 47.6648C78.7744 47.2361 78.9004 46.7588 78.9004 46.2335C78.9004 45.7082 78.7728 45.2352 78.5169 44.8136C78.2611 44.3919 77.9164 44.0592 77.4827 43.8154ZM77.2269 46.9879C77.1118 47.2022 76.9487 47.3724 76.7376 47.4984C76.5265 47.6245 76.2832 47.6872 76.0094 47.6872C75.7355 47.6872 75.5053 47.6245 75.2975 47.4984C75.0897 47.373 74.9288 47.2028 74.8137 46.9879C74.6986 46.7735 74.6413 46.5259 74.6413 46.2444C74.6413 45.9629 74.6986 45.7158 74.8137 45.5009C74.9288 45.2865 75.0897 45.118 75.2975 44.9963C75.5048 44.8741 75.7421 44.813 76.0094 44.813C76.2766 44.813 76.5227 44.8741 76.7267 44.9963C76.9307 45.1185 77.0938 45.2865 77.216 45.5009C77.3382 45.7153 77.3992 45.9635 77.3992 46.2444C77.3992 46.5253 77.342 46.7735 77.2269 46.9879Z" fill="white"></path><path d="M83.3772 43.5878C83.1732 43.5028 82.9381 43.4602 82.6708 43.4602C82.0703 43.4602 81.6104 43.6506 81.2919 44.0313C81.288 44.0357 81.2848 44.0406 81.281 44.0455V43.5709H79.824V48.9292H81.281V45.9781C81.281 45.5712 81.3791 45.2717 81.5755 45.0797C81.7719 44.8877 82.0261 44.7912 82.337 44.7912C82.4854 44.7912 82.6168 44.8119 82.7319 44.8523C82.847 44.8932 82.9452 44.9614 83.0265 45.0574L83.9385 44.0035C83.7678 43.8115 83.5807 43.6724 83.3772 43.5873V43.5878Z" fill="white"></path><path d="M86.1227 44.9967C86.3338 44.8746 86.5733 44.8135 86.84 44.8135C87.0773 44.8135 87.2939 44.8544 87.4908 44.9357C87.6872 45.0169 87.8519 45.1391 87.9855 45.3017L88.9418 44.3476C88.675 44.052 88.3636 43.8283 88.0079 43.6767C87.6522 43.525 87.2628 43.4492 86.84 43.4492C86.2913 43.4492 85.7982 43.5714 85.3612 43.8152C84.9237 44.0591 84.579 44.394 84.327 44.8195C84.075 45.2449 83.949 45.7239 83.949 46.2563C83.949 46.7887 84.075 47.2458 84.327 47.6707C84.579 48.0962 84.9237 48.4327 85.3612 48.6804C85.7987 48.928 86.288 49.0519 86.8291 49.0519C87.259 49.0519 87.6539 48.9722 88.0134 48.8135C88.3728 48.6547 88.6821 48.4273 88.9418 48.1311L88.0079 47.1879C87.8595 47.3505 87.6888 47.4749 87.4962 47.5594C87.3031 47.6445 87.0849 47.6871 86.84 47.6871C86.5733 47.6871 86.3338 47.6243 86.1227 47.4983C85.9116 47.3729 85.7463 47.2027 85.628 46.9878C85.5091 46.7734 85.4501 46.5257 85.4501 46.2443C85.4501 45.9628 85.5096 45.7157 85.628 45.5008C85.7463 45.2864 85.9116 45.1178 86.1227 44.9962V44.9967Z" fill="white"></path><path d="M93.4377 44.0772C93.2888 43.9239 93.1153 43.7952 92.9152 43.6926C92.6113 43.5372 92.2704 43.4597 91.8924 43.4597C91.3954 43.4597 90.9525 43.5819 90.5636 43.8257C90.1747 44.0696 89.8686 44.4029 89.6461 44.824C89.4235 45.2451 89.3123 45.7224 89.3123 46.2553C89.3123 46.7882 89.4235 47.2535 89.6461 47.6752C89.8686 48.0968 90.1741 48.4296 90.5636 48.6734C90.9531 48.9173 91.3922 49.0394 91.8815 49.0394C92.2671 49.0394 92.6135 48.962 92.9212 48.8065C93.1197 48.7062 93.2921 48.5796 93.4383 48.4285V48.9287H94.9062V43.5704H93.4383V44.0767L93.4377 44.0772ZM93.1486 47.2879C92.8966 47.5617 92.5666 47.6981 92.1591 47.6981C91.8995 47.6981 91.666 47.6354 91.4587 47.5094C91.2509 47.3839 91.09 47.2137 90.9749 46.9988C90.8598 46.7844 90.8025 46.533 90.8025 46.2444C90.8025 45.9558 90.8598 45.7158 90.9749 45.5009C91.09 45.2865 91.2493 45.1163 91.4533 44.9903C91.6573 44.8649 91.8924 44.8016 92.1597 44.8016C92.427 44.8016 92.6713 44.8627 92.8715 44.9849C93.0717 45.1071 93.231 45.2789 93.3499 45.5009C93.4683 45.7229 93.5277 45.9744 93.5277 46.2553C93.5277 46.6693 93.4017 47.0135 93.1497 47.2868L93.1486 47.2879Z" fill="white"></path><path d="M102.055 44.0199C101.919 43.8884 101.76 43.7771 101.576 43.6877C101.265 43.536 100.912 43.4602 100.52 43.4602C100.037 43.4602 99.6037 43.5769 99.2186 43.8099C98.8329 44.0428 98.5307 44.3592 98.312 44.7584C98.0932 45.1577 97.9841 45.6089 97.9841 46.1118C97.9841 46.6147 98.0932 47.0697 98.312 47.4766C98.5307 47.8835 98.8329 48.2032 99.2186 48.4361C99.6037 48.669 100.038 48.7857 100.52 48.7857C100.912 48.7857 101.262 48.7083 101.571 48.5528C101.751 48.4617 101.908 48.351 102.043 48.2206V48.6859C102.043 49.0781 101.909 49.3907 101.643 49.6236C101.376 49.8565 101.02 49.9732 100.575 49.9732C100.212 49.9732 99.9026 49.9083 99.6468 49.7791C99.3909 49.6498 99.1591 49.4627 98.9518 49.2188L98.018 50.1396C98.2847 50.5095 98.6349 50.7958 99.0685 50.9993C99.5022 51.2028 100.008 51.3042 100.587 51.3042C101.165 51.3042 101.661 51.1951 102.099 50.9769C102.536 50.7587 102.879 50.45 103.127 50.0507C103.376 49.6514 103.5 49.1888 103.5 48.6641V43.572H102.055V44.0204V44.0199ZM101.504 47.2878C101.308 47.3986 101.072 47.4542 100.798 47.4542C100.546 47.4542 100.318 47.3969 100.114 47.2824C99.9097 47.1678 99.7526 47.0086 99.6413 46.8051C99.53 46.6016 99.4744 46.3709 99.4744 46.1118C99.4744 45.8527 99.5317 45.6329 99.6468 45.4294C99.7619 45.2259 99.9173 45.0672 100.114 44.9521C100.31 44.8375 100.542 44.7803 100.809 44.7803C101.075 44.7803 101.298 44.8375 101.498 44.9521C101.698 45.0666 101.852 45.2259 101.96 45.4294C102.067 45.6329 102.121 45.8641 102.121 46.1227C102.121 46.3813 102.067 46.6125 101.96 46.816C101.852 47.0195 101.7 47.1766 101.504 47.2873L101.504 47.2878Z" fill="white"></path><path d="M108.33 43.5878C108.126 43.5028 107.891 43.4602 107.624 43.4602C107.023 43.4602 106.564 43.6506 106.245 44.0313C106.241 44.0357 106.238 44.0406 106.234 44.0455V43.5709H104.777V48.9292H106.234V45.9781C106.234 45.5712 106.332 45.2717 106.529 45.0797C106.725 44.8877 106.979 44.7912 107.29 44.7912C107.438 44.7912 107.57 44.8119 107.685 44.8523C107.8 44.8932 107.898 44.9614 107.98 45.0574L108.892 44.0035C108.721 43.8115 108.534 43.6724 108.33 43.5873L108.33 43.5878Z" fill="white"></path><path d="M113.245 43.8152C112.811 43.5714 112.32 43.4492 111.771 43.4492C111.223 43.4492 110.743 43.573 110.309 43.8207C109.875 44.0683 109.532 44.4016 109.28 44.8189C109.028 45.2368 108.902 45.7086 108.902 46.2334C108.902 46.7581 109.028 47.2447 109.28 47.6701C109.532 48.0956 109.875 48.4322 110.309 48.6798C110.743 48.9275 111.23 49.0513 111.771 49.0513C112.312 49.0513 112.813 48.9275 113.25 48.6798C113.688 48.4322 114.032 48.094 114.284 47.6647C114.536 47.2359 114.662 46.7587 114.662 46.2334C114.662 45.7081 114.535 45.2351 114.279 44.8135C114.023 44.3918 113.678 44.0591 113.245 43.8152ZM112.989 46.9878C112.874 47.2021 112.711 47.3723 112.5 47.4983C112.288 47.6243 112.045 47.6871 111.771 47.6871C111.497 47.6871 111.267 47.6243 111.059 47.4983C110.852 47.3729 110.691 47.2027 110.576 46.9878C110.461 46.7734 110.403 46.5257 110.403 46.2443C110.403 45.9628 110.461 45.7157 110.576 45.5008C110.691 45.2864 110.852 45.1178 111.059 44.9962C111.267 44.874 111.505 44.8129 111.771 44.8129C112.038 44.8129 112.285 44.874 112.489 44.9962C112.693 45.1184 112.856 45.2864 112.978 45.5008C113.1 45.7151 113.161 45.9633 113.161 46.2443C113.161 46.5252 113.104 46.7734 112.989 46.9878Z" fill="white"></path><path d="M118.844 46.6442C118.844 46.9769 118.759 47.236 118.589 47.4209C118.418 47.6058 118.181 47.698 117.877 47.698C117.677 47.698 117.502 47.6577 117.354 47.5758C117.206 47.4946 117.095 47.3746 117.02 47.2153C116.946 47.0565 116.909 46.8656 116.909 46.6442V43.5709H115.441V46.6774C115.441 47.1433 115.545 47.554 115.753 47.9091C115.96 48.2642 116.249 48.5397 116.62 48.7355C116.99 48.9314 117.409 49.0295 117.877 49.0295C118.344 49.0295 118.761 48.9314 119.128 48.7355C119.494 48.5397 119.782 48.2642 119.989 47.9091C120.197 47.554 120.301 47.1438 120.301 46.6774V43.5709H118.844V46.6442H118.844Z" fill="white"></path><path d="M125.778 43.8262C125.381 43.5824 124.934 43.4602 124.437 43.4602C124.052 43.4602 123.703 43.5415 123.392 43.704C123.212 43.7984 123.053 43.9119 122.914 44.0444V43.5709H121.457V51.1815H122.902V48.4655C123.044 48.6008 123.207 48.7148 123.392 48.807C123.703 48.9625 124.052 49.0399 124.437 49.0399C124.933 49.0399 125.378 48.9177 125.771 48.6739C126.164 48.4301 126.474 48.0968 126.699 47.6757C126.925 47.254 127.039 46.7811 127.039 46.2558C127.039 45.7305 126.927 45.2461 126.705 44.8245C126.482 44.4028 126.173 44.0701 125.776 43.8262H125.778ZM125.366 46.9938C125.251 47.212 125.094 47.3838 124.894 47.5099C124.694 47.6359 124.46 47.6986 124.193 47.6986C123.927 47.6986 123.687 47.6359 123.476 47.5099C123.265 47.3844 123.105 47.212 122.998 46.9938C122.89 46.7756 122.836 46.5264 122.836 46.2449C122.836 45.9634 122.894 45.7163 123.009 45.5014C123.124 45.287 123.283 45.1168 123.487 44.9908C123.691 44.8654 123.922 44.8021 124.182 44.8021C124.456 44.8021 124.694 44.8648 124.894 44.9908C125.094 45.1168 125.251 45.2865 125.366 45.5014C125.481 45.7158 125.539 45.964 125.539 46.2449C125.539 46.5258 125.481 46.7756 125.366 46.9938Z" fill="white"></path><path d="M131.899 44.7415C132.158 44.5898 132.455 44.514 132.788 44.514C133.063 44.514 133.319 44.5642 133.556 44.664C133.793 44.7639 133.993 44.91 134.156 45.1021L134.824 44.4366C134.572 44.148 134.271 43.9282 133.923 43.7765C133.574 43.6249 133.196 43.5491 132.789 43.5491C132.27 43.5491 131.801 43.6696 131.382 43.9096C130.963 44.1502 130.633 44.4775 130.393 44.8915C130.152 45.3061 130.031 45.7719 130.031 46.2896C130.031 46.8072 130.152 47.2643 130.393 47.6816C130.634 48.0995 130.963 48.4306 131.382 48.6744C131.801 48.9182 132.27 49.0404 132.789 49.0404C133.196 49.0404 133.577 48.963 133.929 48.8075C134.281 48.652 134.58 48.4339 134.824 48.1529L134.168 47.4874C133.997 47.68 133.795 47.8256 133.562 47.9255C133.328 48.0253 133.07 48.0755 132.789 48.0755C132.455 48.0755 132.159 47.998 131.899 47.8426C131.64 47.6871 131.436 47.4765 131.288 47.2103C131.139 46.9441 131.065 46.637 131.065 46.2896C131.065 45.9421 131.139 45.635 131.288 45.3688C131.436 45.1026 131.64 44.8937 131.899 44.742L131.899 44.7415Z" fill="white"></path><path d="M139.512 43.9096C139.093 43.6696 138.624 43.5491 138.106 43.5491C137.587 43.5491 137.131 43.6713 136.716 43.9151C136.301 44.1589 135.971 44.4862 135.726 44.897C135.482 45.3072 135.359 45.7681 135.359 46.2781C135.359 46.7881 135.481 47.2638 135.726 47.6816C135.971 48.0995 136.301 48.4306 136.716 48.6744C137.131 48.9182 137.594 49.0404 138.106 49.0404C138.617 49.0404 139.093 48.9182 139.512 48.6744C139.931 48.4306 140.263 48.0995 140.508 47.6816C140.752 47.2638 140.875 46.7958 140.875 46.2781C140.875 45.7605 140.753 45.3055 140.508 44.8915C140.263 44.4775 139.931 44.1502 139.512 43.9096ZM139.618 47.2043C139.47 47.4744 139.266 47.6871 139.007 47.842C138.747 47.9975 138.447 48.0749 138.106 48.0749C137.765 48.0749 137.487 47.9975 137.228 47.842C136.968 47.6865 136.764 47.4744 136.616 47.2043C136.468 46.9343 136.394 46.6256 136.394 46.2781C136.394 45.9306 136.468 45.6344 136.616 45.3682C136.765 45.1021 136.968 44.8931 137.228 44.7415C137.487 44.5898 137.78 44.514 138.106 44.514C138.432 44.514 138.745 44.5898 139.001 44.7415C139.257 44.8931 139.461 45.1021 139.613 45.3682C139.764 45.6344 139.841 45.9377 139.841 46.2781C139.841 46.6185 139.767 46.9343 139.618 47.2043Z" fill="white"></path><path d="M149.135 43.7929C148.831 43.6303 148.486 43.5491 148.101 43.5491C147.715 43.5491 147.389 43.6325 147.077 43.7989C146.766 43.9653 146.512 44.1949 146.316 44.4868C146.312 44.4922 146.309 44.4977 146.305 44.5031C146.301 44.496 146.298 44.4884 146.293 44.4808C146.119 44.1851 145.882 43.9555 145.582 43.7929C145.282 43.6303 144.946 43.5491 144.575 43.5491C144.205 43.5491 143.856 43.6325 143.552 43.7989C143.328 43.9216 143.139 44.0804 142.985 44.274V43.6604H141.984V48.9302H142.985V45.7463C142.985 45.4801 143.045 45.2542 143.163 45.0693C143.281 44.8844 143.437 44.7404 143.63 44.6368C143.822 44.5331 144.041 44.4813 144.286 44.4813C144.649 44.4813 144.952 44.5942 145.193 44.8195C145.434 45.0453 145.554 45.3541 145.554 45.7457V48.9297H146.555V45.7457C146.555 45.4795 146.615 45.2537 146.733 45.0688C146.851 44.8839 147.009 44.7399 147.205 44.6362C147.402 44.5326 147.622 44.4808 147.867 44.4808C148.223 44.4808 148.521 44.5937 148.762 44.819C149.003 45.0448 149.123 45.3535 149.123 45.7452V48.9291H150.135V45.5455C150.135 45.1315 150.044 44.7764 149.863 44.4808C149.681 44.1851 149.439 43.9555 149.135 43.7929Z" fill="white"></path><path d="M155.579 43.9151C155.189 43.6713 154.754 43.5491 154.272 43.5491C153.879 43.5491 153.522 43.6325 153.199 43.7989C152.915 43.9456 152.679 44.1415 152.493 44.3864V43.6604H151.492V51.1378H152.493V48.2091C152.675 48.4524 152.907 48.6466 153.188 48.7917C153.51 48.9581 153.872 49.0415 154.272 49.0415C154.754 49.0415 155.19 48.9215 155.579 48.681C155.968 48.4409 156.274 48.1137 156.496 47.6991C156.719 47.2851 156.83 46.8192 156.83 46.301C156.83 45.7828 156.719 45.3175 156.496 44.903C156.274 44.4889 155.968 44.1595 155.579 43.9156V43.9151ZM155.579 47.2267C155.434 47.4967 155.236 47.7095 154.984 47.8644C154.732 48.0198 154.439 48.0973 154.105 48.0973C153.772 48.0973 153.488 48.0198 153.233 47.8644C152.977 47.7089 152.78 47.4967 152.643 47.2267C152.506 46.9567 152.438 46.6479 152.438 46.3005C152.438 45.953 152.508 45.6334 152.649 45.3628C152.79 45.0928 152.986 44.88 153.238 44.7251C153.49 44.5697 153.779 44.4922 154.105 44.4922C154.432 44.4922 154.732 44.5697 154.984 44.7251C155.236 44.8806 155.434 45.0933 155.579 45.3628C155.723 45.6328 155.796 45.9416 155.796 46.289C155.796 46.6365 155.723 46.9567 155.579 47.2267Z" fill="white"></path><path d="M161.97 44.3766C161.788 44.1366 161.56 43.9435 161.286 43.7984C160.97 43.632 160.613 43.5486 160.213 43.5486C159.723 43.5486 159.284 43.6708 158.895 43.9146C158.506 44.1584 158.198 44.4879 157.972 44.9019C157.745 45.3165 157.633 45.7823 157.633 46.3C157.633 46.8177 157.745 47.2835 157.972 47.6981C158.198 48.1126 158.506 48.4399 158.895 48.6799C159.284 48.9205 159.723 49.0405 160.213 49.0405C160.613 49.0405 160.973 48.957 161.291 48.7907C161.565 48.6477 161.791 48.4563 161.97 48.2174V48.9292H162.982V43.6593H161.97V44.3761V44.3766ZM161.58 47.5928C161.276 47.9293 160.876 48.0973 160.379 48.0973C160.045 48.0973 159.749 48.0199 159.489 47.8644C159.23 47.709 159.028 47.4968 158.883 47.2268C158.739 46.9567 158.667 46.6442 158.667 46.2891C158.667 45.934 158.739 45.6329 158.883 45.3629C159.028 45.0928 159.228 44.8801 159.484 44.7252C159.74 44.5697 160.034 44.4923 160.368 44.4923C160.702 44.4923 160.993 44.5681 161.241 44.7197C161.489 44.8714 161.684 45.0841 161.825 45.3574C161.965 45.6312 162.036 45.9454 162.036 46.3005C162.036 46.8258 161.883 47.2568 161.58 47.5928H161.58Z" fill="white"></path><path d="M168.179 43.8485C167.872 43.6489 167.518 43.5491 167.117 43.5491C166.717 43.5491 166.357 43.6396 166.039 43.8207C165.799 43.9571 165.599 44.1306 165.438 44.3406V43.6598H164.437V48.9297H165.438V45.8565C165.438 45.5903 165.498 45.3535 165.616 45.1462C165.734 44.9395 165.897 44.7764 166.105 44.658C166.313 44.5397 166.55 44.4808 166.817 44.4808C167.218 44.4808 167.542 44.61 167.79 44.8691C168.039 45.1282 168.163 45.4572 168.163 45.8565V48.9297H169.175V45.6568C169.175 45.2946 169.086 44.9526 168.908 44.6308C168.73 44.3089 168.487 44.0482 168.18 43.8485H168.179Z" fill="white"></path><path d="M174.225 43.6597L172.616 47.3962L171.089 43.6597H169.976L172.05 48.4697L170.755 51.1371H171.867L172.868 48.9737L175.336 43.6597H174.225Z" fill="white"></path></g><rect width="175.468" height="36.6297" fill="url(#pattern0_320_920)"></rect><defs><pattern id="pattern0_320_920" patternContentUnits="objectBoundingBox" width="1" height="1"><use xlink:href="#image0_320_920" transform="scale(0.00157489 0.00754422)"></use></pattern><clipPath id="clip0_320_920"><rect width="117.089" height="7.89746" fill="white" transform="translate(58.3826 43.4104)"></rect></clipPath><image id="image0_320_920" width="635" height="186" preserveAspectRatio="none"></image></defs></svg>