<?xml version="1.0"?> <svg xmlns="http://www.w3.org/2000/svg" width="176" height="54" viewBox="0 0 176 54" fill="none"><g clip-path="url(#clip0_320_942)"><path d="M62.7199 46.1524C62.5383 45.9124 62.3103 45.7193 62.0359 45.5748C61.7206 45.4084 61.3633 45.325 60.9629 45.325C60.4736 45.325 60.0345 45.4471 59.6451 45.691C59.2556 45.9348 58.9479 46.2643 58.7221 46.6783C58.4957 47.0929 58.3828 47.5587 58.3828 48.0764C58.3828 48.594 58.4957 49.0599 58.7221 49.4744C58.9479 49.889 59.2561 50.2163 59.6451 50.4563C60.0345 50.6968 60.4736 50.8169 60.9629 50.8169C61.3633 50.8169 61.7228 50.7334 62.0419 50.567C62.3157 50.4241 62.5421 50.2326 62.7205 49.9937V50.7056H63.7323V45.4357H62.7205V46.1524H62.7199ZM62.331 49.3686C62.0272 49.7052 61.6268 49.8732 61.1299 49.8732C60.796 49.8732 60.4998 49.7957 60.2402 49.6402C59.9805 49.4848 59.7787 49.2726 59.6341 49.0026C59.4896 48.7326 59.4176 48.42 59.4176 48.0649C59.4176 47.7098 59.4896 47.4087 59.6341 47.1387C59.7787 46.8687 59.9789 46.6559 60.2347 46.501C60.4906 46.3455 60.7851 46.2681 61.1189 46.2681C61.4528 46.2681 61.7435 46.3439 61.9917 46.4956C62.2399 46.6472 62.4346 46.8599 62.5754 47.1332C62.7161 47.4071 62.7865 47.7212 62.7865 48.0764C62.7865 48.6017 62.6343 49.0326 62.3305 49.3686H62.331Z" fill="white"></path><path d="M68.9295 45.6244C68.6218 45.4248 68.2678 45.325 67.8674 45.325C67.4671 45.325 67.1076 45.4155 66.789 45.5966C66.549 45.733 66.3488 45.9064 66.1885 46.1164V45.4357H65.1875V50.7056H66.1885V47.6323C66.1885 47.3661 66.2479 47.1294 66.3663 46.9221C66.4847 46.7154 66.6478 46.5523 66.8556 46.4339C67.0629 46.3155 67.3001 46.2566 67.5674 46.2566C67.9678 46.2566 68.2918 46.3859 68.5406 46.645C68.7888 46.9041 68.9131 47.233 68.9131 47.6323V50.7056H69.925V47.4327C69.925 47.0705 69.8361 46.7285 69.6583 46.4066C69.4804 46.0848 69.2377 45.8241 68.93 45.6244H68.9295Z" fill="white"></path><path d="M77.4793 45.5911C77.0456 45.3473 76.5542 45.2251 76.0059 45.2251C75.4577 45.2251 74.9772 45.3489 74.5435 45.5966C74.1099 45.8442 73.7667 46.1775 73.5147 46.5948C73.2627 47.0126 73.1367 47.4845 73.1367 48.0092C73.1367 48.534 73.2627 49.0206 73.5147 49.446C73.7667 49.8715 74.1099 50.2081 74.5435 50.4557C74.9772 50.7034 75.4643 50.8272 76.0059 50.8272C76.5476 50.8272 77.0473 50.7034 77.4847 50.4557C77.9222 50.2081 78.267 49.8699 78.519 49.4406C78.771 49.0118 78.897 48.5345 78.897 48.0092C78.897 47.4839 78.7694 47.011 78.5135 46.5893C78.2577 46.1677 77.9129 45.8349 77.4793 45.5911ZM77.2235 48.7636C77.1084 48.978 76.9453 49.1482 76.7342 49.2742C76.5231 49.4002 76.2798 49.4629 76.0059 49.4629C75.7321 49.4629 75.5019 49.4002 75.2941 49.2742C75.0863 49.1487 74.9253 48.9786 74.8103 48.7636C74.6952 48.5493 74.6379 48.3016 74.6379 48.0201C74.6379 47.7387 74.6952 47.4916 74.8103 47.2767C74.9253 47.0623 75.0863 46.8937 75.2941 46.7721C75.5014 46.6499 75.7387 46.5888 76.0059 46.5888C76.2732 46.5888 76.5192 46.6499 76.7233 46.7721C76.9273 46.8943 77.0904 47.0623 77.2125 47.2767C77.3347 47.491 77.3958 47.7392 77.3958 48.0201C77.3958 48.3011 77.3386 48.5493 77.2235 48.7636Z" fill="white"></path><path d="M83.3736 45.3637C83.1696 45.2786 82.9345 45.2361 82.6672 45.2361C82.0666 45.2361 81.6068 45.4265 81.2882 45.8072C81.2844 45.8116 81.2811 45.8165 81.2773 45.8214V45.3468H79.8203V50.7051H81.2773V47.754C81.2773 47.3471 81.3755 47.0476 81.5719 46.8556C81.7682 46.6636 82.0224 46.5671 82.3333 46.5671C82.4817 46.5671 82.6132 46.5878 82.7283 46.6282C82.8434 46.6691 82.9416 46.7372 83.0228 46.8333L83.9349 45.7794C83.7641 45.5874 83.577 45.4483 83.3736 45.3632V45.3637Z" fill="white"></path><path d="M86.1191 46.7726C86.3302 46.6504 86.5696 46.5893 86.8364 46.5893C87.0736 46.5893 87.2902 46.6303 87.4871 46.7115C87.6835 46.7928 87.8482 46.915 87.9819 47.0775L88.9381 46.1235C88.6714 45.8279 88.3599 45.6042 88.0042 45.4526C87.6486 45.3009 87.2591 45.2251 86.8364 45.2251C86.2876 45.2251 85.7945 45.3473 85.3576 45.5911C84.9201 45.8349 84.5753 46.1699 84.3233 46.5953C84.0713 47.0208 83.9453 47.4998 83.9453 48.0321C83.9453 48.5645 84.0713 49.0216 84.3233 49.4466C84.5753 49.872 84.9201 50.2086 85.3576 50.4563C85.795 50.7039 86.2843 50.8277 86.8255 50.8277C87.2553 50.8277 87.6502 50.7481 88.0097 50.5894C88.3692 50.4306 88.6785 50.2032 88.9381 49.907L88.0042 48.9638C87.8559 49.1264 87.6851 49.2507 87.4926 49.3353C87.2995 49.4204 87.0813 49.4629 86.8364 49.4629C86.5696 49.4629 86.3302 49.4002 86.1191 49.2742C85.908 49.1487 85.7427 48.9786 85.6243 48.7636C85.5054 48.5493 85.4465 48.3016 85.4465 48.0201C85.4465 47.7387 85.5059 47.4916 85.6243 47.2767C85.7427 47.0623 85.908 46.8937 86.1191 46.7721V46.7726Z" fill="white"></path><path d="M93.4302 45.8531C93.2812 45.6998 93.1078 45.5711 92.9076 45.4685C92.6038 45.3131 92.2628 45.2356 91.8848 45.2356C91.3879 45.2356 90.9449 45.3578 90.556 45.6016C90.1671 45.8454 89.8611 46.1787 89.6385 46.5998C89.416 47.021 89.3047 47.4983 89.3047 48.0312C89.3047 48.5641 89.416 49.0294 89.6385 49.4511C89.8611 49.8727 90.1665 50.2055 90.556 50.4493C90.9455 50.6931 91.3846 50.8153 91.8739 50.8153C92.2596 50.8153 92.6059 50.7379 92.9136 50.5824C93.1121 50.482 93.2845 50.3555 93.4307 50.2044V50.7046H94.8986V45.3463H93.4307V45.8525L93.4302 45.8531ZM93.1411 49.0638C92.889 49.3376 92.559 49.474 92.1516 49.474C91.8919 49.474 91.6584 49.4113 91.4512 49.2852C91.2433 49.1598 91.0824 48.9896 90.9673 48.7747C90.8522 48.5603 90.7949 48.3088 90.7949 48.0203C90.7949 47.7317 90.8522 47.4917 90.9673 47.2768C91.0824 47.0624 91.2417 46.8922 91.4457 46.7662C91.6497 46.6408 91.8848 46.5775 92.1521 46.5775C92.4194 46.5775 92.6638 46.6386 92.8639 46.7608C93.0641 46.8829 93.2234 47.0548 93.3423 47.2768C93.4607 47.4988 93.5202 47.7503 93.5202 48.0312C93.5202 48.4452 93.3942 48.7894 93.1421 49.0627L93.1411 49.0638Z" fill="white"></path><path d="M102.051 45.7957C101.915 45.6643 101.756 45.553 101.572 45.4635C101.261 45.3119 100.909 45.2361 100.516 45.2361C100.034 45.2361 99.6 45.3528 99.2149 45.5857C98.8292 45.8187 98.527 46.135 98.3083 46.5343C98.0896 46.9336 97.9805 47.3847 97.9805 47.8877C97.9805 48.3906 98.0896 48.8455 98.3083 49.2525C98.527 49.6594 98.8292 49.979 99.2149 50.212C99.6 50.4449 100.034 50.5616 100.516 50.5616C100.909 50.5616 101.259 50.4842 101.567 50.3287C101.747 50.2376 101.904 50.1269 102.039 49.9965V50.4618C102.039 50.854 101.906 51.1665 101.639 51.3995C101.372 51.6324 101.016 51.7491 100.572 51.7491C100.208 51.7491 99.8989 51.6842 99.6431 51.5549C99.3873 51.4257 99.1554 51.2386 98.9482 50.9947L98.0143 51.9155C98.281 52.2853 98.6312 52.5717 99.0649 52.7752C99.4985 52.9786 100.005 53.0801 100.583 53.0801C101.161 53.0801 101.658 52.971 102.095 52.7528C102.533 52.5346 102.875 52.2259 103.124 51.8266C103.372 51.4273 103.496 50.9647 103.496 50.44V45.3479H102.051V45.7963V45.7957ZM101.5 49.0637C101.304 49.1745 101.068 49.2301 100.794 49.2301C100.542 49.2301 100.314 49.1728 100.11 49.0583C99.906 48.9437 99.7489 48.7844 99.6376 48.581C99.5264 48.3775 99.4707 48.1468 99.4707 47.8877C99.4707 47.6286 99.528 47.4087 99.6431 47.2053C99.7582 47.0018 99.9137 46.8431 100.11 46.728C100.306 46.6134 100.538 46.5561 100.805 46.5561C101.072 46.5561 101.294 46.6134 101.494 46.728C101.695 46.8425 101.848 47.0018 101.956 47.2053C102.063 47.4087 102.117 47.64 102.117 47.8986C102.117 48.1571 102.063 48.3884 101.956 48.5919C101.848 48.7953 101.696 48.9524 101.5 49.0632L101.5 49.0637Z" fill="white"></path><path d="M108.327 45.3637C108.123 45.2786 107.888 45.2361 107.62 45.2361C107.02 45.2361 106.56 45.4265 106.241 45.8072C106.238 45.8116 106.234 45.8165 106.23 45.8214V45.3468H104.773V50.7051H106.23V47.754C106.23 47.3471 106.329 47.0476 106.525 46.8556C106.721 46.6636 106.976 46.5671 107.286 46.5671C107.435 46.5671 107.566 46.5878 107.681 46.6282C107.796 46.6691 107.895 46.7372 107.976 46.8333L108.888 45.7794C108.717 45.5874 108.53 45.4483 108.326 45.3632L108.327 45.3637Z" fill="white"></path><path d="M113.241 45.5911C112.807 45.3473 112.316 45.2251 111.768 45.2251C111.219 45.2251 110.739 45.3489 110.305 45.5966C109.872 45.8442 109.528 46.1775 109.276 46.5948C109.024 47.0126 108.898 47.4845 108.898 48.0092C108.898 48.534 109.024 49.0206 109.276 49.446C109.528 49.8715 109.872 50.2081 110.305 50.4557C110.739 50.7034 111.227 50.8272 111.768 50.8272C112.309 50.8272 112.809 50.7034 113.246 50.4557C113.684 50.2081 114.029 49.8699 114.281 49.4406C114.533 49.0118 114.659 48.5345 114.659 48.0092C114.659 47.4839 114.531 47.011 114.275 46.5893C114.019 46.1677 113.675 45.8349 113.241 45.5911ZM112.985 48.7636C112.87 48.978 112.707 49.1482 112.496 49.2742C112.285 49.4002 112.041 49.4629 111.768 49.4629C111.494 49.4629 111.264 49.4002 111.056 49.2742C110.848 49.1487 110.687 48.9786 110.572 48.7636C110.457 48.5493 110.4 48.3016 110.4 48.0201C110.4 47.7387 110.457 47.4916 110.572 47.2767C110.687 47.0623 110.848 46.8937 111.056 46.7721C111.263 46.6499 111.501 46.5888 111.768 46.5888C112.034 46.5888 112.281 46.6499 112.485 46.7721C112.689 46.8943 112.852 47.0623 112.974 47.2767C113.096 47.491 113.158 47.7392 113.158 48.0201C113.158 48.3011 113.1 48.5493 112.985 48.7636Z" fill="white"></path><path d="M118.841 48.4199C118.841 48.7527 118.756 49.0118 118.585 49.1967C118.414 49.3816 118.177 49.4738 117.873 49.4738C117.673 49.4738 117.498 49.4334 117.35 49.3516C117.202 49.2703 117.091 49.1503 117.017 48.991C116.942 48.8323 116.905 48.6414 116.905 48.4199V45.3467H115.438V48.4532C115.438 48.919 115.541 49.3298 115.749 49.6849C115.956 50.04 116.245 50.3155 116.616 50.5113C116.987 50.7071 117.406 50.8053 117.873 50.8053C118.341 50.8053 118.757 50.7071 119.124 50.5113C119.49 50.3155 119.778 50.04 119.986 49.6849C120.193 49.3298 120.297 48.9196 120.297 48.4532V45.3467H118.84V48.4199H118.841Z" fill="white"></path><path d="M125.774 45.6021C125.377 45.3583 124.931 45.2361 124.434 45.2361C124.048 45.2361 123.699 45.3174 123.388 45.4799C123.208 45.5743 123.05 45.6877 122.91 45.8203V45.3468H121.453V52.9574H122.899V50.2414C123.04 50.3767 123.203 50.4907 123.388 50.5829C123.699 50.7383 124.048 50.8158 124.433 50.8158C124.929 50.8158 125.375 50.6936 125.767 50.4498C126.16 50.206 126.47 49.8727 126.696 49.4516C126.922 49.0299 127.035 48.557 127.035 48.0317C127.035 47.5064 126.924 47.022 126.701 46.6003C126.479 46.1787 126.169 45.8459 125.773 45.6021H125.774ZM125.363 48.7697C125.247 48.9879 125.09 49.1597 124.89 49.2857C124.69 49.4117 124.457 49.4745 124.19 49.4745C123.923 49.4745 123.684 49.4117 123.472 49.2857C123.261 49.1603 123.102 48.9879 122.994 48.7697C122.887 48.5515 122.833 48.3022 122.833 48.0208C122.833 47.7393 122.89 47.4922 123.005 47.2773C123.12 47.0629 123.279 46.8927 123.483 46.7667C123.687 46.6412 123.919 46.578 124.178 46.578C124.453 46.578 124.69 46.6407 124.89 46.7667C125.09 46.8927 125.247 47.0624 125.363 47.2773C125.478 47.4916 125.535 47.7398 125.535 48.0208C125.535 48.3017 125.478 48.5515 125.363 48.7697Z" fill="white"></path><path d="M131.895 46.5174C132.154 46.3657 132.451 46.2899 132.785 46.2899C133.059 46.2899 133.315 46.3401 133.552 46.4399C133.79 46.5397 133.99 46.6859 134.153 46.8779L134.82 46.2124C134.568 45.9239 134.267 45.7041 133.919 45.5524C133.571 45.4008 133.193 45.325 132.785 45.325C132.267 45.325 131.797 45.4455 131.379 45.6855C130.96 45.9261 130.63 46.2534 130.389 46.6674C130.148 47.0819 130.027 47.5478 130.027 48.0654C130.027 48.5831 130.148 49.0402 130.389 49.4575C130.63 49.8754 130.96 50.2065 131.379 50.4503C131.797 50.6941 132.266 50.8163 132.785 50.8163C133.193 50.8163 133.573 50.7388 133.925 50.5834C134.277 50.4279 134.576 50.2097 134.82 49.9288L134.164 49.2633C133.994 49.4559 133.792 49.6015 133.558 49.7013C133.325 49.8012 133.067 49.8513 132.785 49.8513C132.451 49.8513 132.155 49.7739 131.896 49.6184C131.636 49.463 131.432 49.2524 131.284 48.9862C131.136 48.72 131.062 48.4129 131.062 48.0654C131.062 47.718 131.136 47.4109 131.284 47.1447C131.433 46.8785 131.636 46.6696 131.896 46.5179L131.895 46.5174Z" fill="white"></path><path d="M139.509 45.6855C139.09 45.4455 138.621 45.325 138.102 45.325C137.583 45.325 137.127 45.4471 136.712 45.691C136.297 45.9348 135.967 46.2621 135.723 46.6728C135.478 47.083 135.355 47.544 135.355 48.054C135.355 48.564 135.478 49.0397 135.723 49.4575C135.967 49.8754 136.297 50.2065 136.712 50.4503C137.127 50.6941 137.59 50.8163 138.102 50.8163C138.614 50.8163 139.09 50.6941 139.509 50.4503C139.928 50.2065 140.259 49.8754 140.504 49.4575C140.749 49.0397 140.871 48.5717 140.871 48.054C140.871 47.5363 140.749 47.0814 140.504 46.6674C140.259 46.2534 139.928 45.9261 139.509 45.6855ZM139.615 48.9802C139.466 49.2502 139.262 49.463 139.003 49.6179C138.743 49.7733 138.443 49.8508 138.103 49.8508C137.762 49.8508 137.483 49.7733 137.224 49.6179C136.965 49.4624 136.761 49.2502 136.613 48.9802C136.464 48.7102 136.39 48.4015 136.39 48.054C136.39 47.7065 136.464 47.4103 136.613 47.1441C136.761 46.8779 136.965 46.669 137.224 46.5174C137.483 46.3657 137.776 46.2899 138.103 46.2899C138.429 46.2899 138.742 46.3657 138.998 46.5174C139.253 46.669 139.457 46.8779 139.609 47.1441C139.761 47.4103 139.837 47.7136 139.837 48.054C139.837 48.3944 139.763 48.7102 139.615 48.9802Z" fill="white"></path><path d="M149.131 45.5688C148.827 45.4062 148.483 45.325 148.097 45.325C147.711 45.325 147.385 45.4084 147.074 45.5748C146.762 45.7412 146.508 45.9708 146.312 46.2626C146.308 46.2681 146.306 46.2735 146.302 46.279C146.297 46.2719 146.294 46.2643 146.29 46.2566C146.115 45.961 145.878 45.7313 145.578 45.5688C145.278 45.4062 144.942 45.325 144.572 45.325C144.201 45.325 143.853 45.4084 143.549 45.5748C143.324 45.6975 143.135 45.8562 142.981 46.0499V45.4362H141.98V50.7061H142.981V47.5221C142.981 47.256 143.041 47.0301 143.159 46.8452C143.278 46.6603 143.434 46.5163 143.626 46.4126C143.819 46.309 144.037 46.2572 144.282 46.2572C144.646 46.2572 144.948 46.3701 145.189 46.5954C145.43 46.8212 145.551 47.1299 145.551 47.5216V50.7056H146.552V47.5216C146.552 47.2554 146.611 47.0296 146.729 46.8447C146.848 46.6597 147.005 46.5157 147.202 46.4121C147.398 46.3085 147.619 46.2566 147.863 46.2566C148.219 46.2566 148.518 46.3695 148.759 46.5948C149 46.8207 149.12 47.1294 149.12 47.5211V50.705H150.132V47.3214C150.132 46.9074 150.04 46.5523 149.859 46.2566C149.678 45.961 149.435 45.7313 149.131 45.5688Z" fill="white"></path><path d="M155.579 45.691C155.189 45.4471 154.754 45.325 154.273 45.325C153.879 45.325 153.522 45.4084 153.2 45.5748C152.915 45.7215 152.68 45.9173 152.493 46.1623V45.4362H151.492V52.9137H152.493V49.985C152.675 50.2283 152.907 50.4225 153.188 50.5676C153.51 50.7339 153.872 50.8174 154.273 50.8174C154.754 50.8174 155.19 50.6974 155.579 50.4568C155.968 50.2168 156.274 49.8895 156.496 49.475C156.719 49.0609 156.83 48.5951 156.83 48.0769C156.83 47.5587 156.719 47.0934 156.496 46.6788C156.274 46.2648 155.968 45.9353 155.579 45.6915V45.691ZM155.579 49.0026C155.434 49.2726 155.236 49.4853 154.984 49.6402C154.732 49.7957 154.439 49.8732 154.106 49.8732C153.772 49.8732 153.489 49.7957 153.233 49.6402C152.977 49.4848 152.781 49.2726 152.644 49.0026C152.506 48.7326 152.438 48.4238 152.438 48.0764C152.438 47.7289 152.508 47.4092 152.649 47.1387C152.79 46.8687 152.986 46.6559 153.238 46.501C153.49 46.3455 153.779 46.2681 154.106 46.2681C154.432 46.2681 154.732 46.3455 154.984 46.501C155.236 46.6565 155.434 46.8692 155.579 47.1387C155.723 47.4087 155.796 47.7174 155.796 48.0649C155.796 48.4124 155.723 48.7326 155.579 49.0026Z" fill="white"></path><path d="M161.966 46.1525C161.784 45.9125 161.556 45.7194 161.282 45.5743C160.967 45.4079 160.609 45.3245 160.209 45.3245C159.72 45.3245 159.281 45.4467 158.891 45.6905C158.502 45.9343 158.194 46.2638 157.968 46.6778C157.742 47.0924 157.629 47.5582 157.629 48.0759C157.629 48.5935 157.742 49.0594 157.968 49.4739C158.194 49.8885 158.502 50.2158 158.891 50.4558C159.281 50.6964 159.72 50.8164 160.209 50.8164C160.609 50.8164 160.969 50.7329 161.287 50.5665C161.561 50.4236 161.788 50.2322 161.966 49.9932V50.7051H162.978V45.4352H161.966V46.152V46.1525ZM161.577 49.3687C161.273 49.7052 160.872 49.8732 160.375 49.8732C160.042 49.8732 159.745 49.7958 159.486 49.6403C159.226 49.4848 159.024 49.2727 158.88 49.0026C158.735 48.7326 158.663 48.4201 158.663 48.065C158.663 47.7098 158.735 47.4087 158.88 47.1387C159.024 46.8687 159.224 46.656 159.48 46.5011C159.736 46.3456 160.031 46.2681 160.364 46.2681C160.698 46.2681 160.989 46.344 161.237 46.4956C161.485 46.6473 161.68 46.86 161.821 47.1333C161.962 47.4071 162.032 47.7213 162.032 48.0764C162.032 48.6017 161.88 49.0326 161.576 49.3687H161.577Z" fill="white"></path><path d="M168.176 45.6244C167.868 45.4248 167.514 45.325 167.114 45.325C166.713 45.325 166.354 45.4155 166.035 45.5966C165.795 45.733 165.595 45.9064 165.435 46.1164V45.4357H164.434V50.7056H165.435V47.6323C165.435 47.3661 165.494 47.1294 165.612 46.9221C165.731 46.7154 165.894 46.5523 166.102 46.4339C166.309 46.3155 166.547 46.2566 166.814 46.2566C167.214 46.2566 167.538 46.3859 167.787 46.645C168.035 46.9041 168.159 47.233 168.159 47.6323V50.7056H169.171V47.4327C169.171 47.0705 169.082 46.7285 168.904 46.4066C168.727 46.0848 168.484 45.8241 168.176 45.6244H168.176Z" fill="white"></path><path d="M174.217 45.4358L172.609 49.1723L171.081 45.4358H169.969L172.042 50.2458L170.747 52.9132H171.859L172.86 50.7499L175.329 45.4358H174.217Z" fill="white"></path></g><path d="M59.2884 21.1444C59.2453 19.7065 59.4883 18.2745 60.003 16.9333C60.5176 15.5921 61.2935 14.369 62.2846 13.3366C63.2757 12.3041 64.4618 11.4832 65.7726 10.9227C67.0834 10.3621 68.4922 10.0733 69.9155 10.0733C71.3388 10.0733 72.7476 10.3621 74.0584 10.9227C75.3692 11.4832 76.5553 12.3041 77.5464 13.3366C78.5374 14.369 79.3133 15.5921 79.828 16.9333C80.3427 18.2745 80.5857 19.7065 80.5426 21.1444C80.575 22.5756 80.3241 23.999 79.8046 25.3308C79.2851 26.6626 78.5075 27.8761 77.5175 28.8999C76.5275 29.9237 75.345 30.7372 74.0395 31.2926C72.734 31.848 71.3319 32.1341 69.9155 32.1341C68.4991 32.1341 67.0969 31.848 65.7915 31.2926C64.486 30.7372 63.3035 29.9237 62.3135 28.8999C61.3235 27.8761 60.5458 26.6626 60.0263 25.3308C59.5069 23.999 59.2559 22.5756 59.2884 21.1444ZM53.465 21.1887C53.4618 24.4779 54.4239 27.6941 56.2296 30.4305C58.0353 33.1668 60.6034 35.3004 63.609 36.5613C66.6147 37.8223 69.9228 38.1538 73.115 37.5141C76.3071 36.8744 79.2398 35.2921 81.5421 32.9675C83.8443 30.6429 85.4127 27.6803 86.0487 24.4546C86.6847 21.2289 86.3599 17.885 85.1153 14.8459C83.8707 11.8068 81.7622 9.20913 79.0565 7.38145C76.3509 5.55377 73.1698 4.57822 69.9155 4.57822C67.7534 4.56705 65.6106 4.98895 63.6108 5.81955C61.611 6.65015 59.7938 7.87299 58.2643 9.41744C56.7347 10.9619 55.523 12.7973 54.6993 14.8177C53.8756 16.8382 53.456 19.0035 53.465 21.1887Z" fill="white"></path><path d="M144.118 16.2961C142.966 12.5232 140.512 9.2938 137.202 7.19613C133.892 5.09847 129.947 4.27202 126.085 4.86729C122.223 5.46255 118.701 7.43994 116.16 10.4394C113.619 13.4388 112.229 17.2607 112.242 21.2092C112.255 25.1577 113.671 28.9701 116.232 31.9522C118.793 34.9342 122.328 36.8876 126.194 37.4566C130.059 38.0255 133.999 37.1723 137.295 35.0521C140.59 32.932 143.023 29.686 144.15 25.9052H137.827C137.014 27.7377 135.699 29.2972 134.038 30.4002C132.378 31.5032 130.44 32.1039 128.452 32.1315C125.605 32.0886 122.889 30.9094 120.899 28.851C118.908 26.7926 117.803 24.022 117.825 21.1436C117.802 19.7109 118.059 18.2877 118.581 16.9555C119.103 15.6232 119.879 14.4081 120.866 13.3797C121.854 12.3512 123.032 11.5297 124.333 10.9622C125.635 10.3946 127.035 10.0921 128.452 10.072C130.438 10.0995 132.375 10.6999 134.035 11.8026C135.695 12.9053 137.008 14.4643 137.821 16.2961H144.118Z" fill="white"></path><path d="M159.794 13.5744H159.882L163.46 23.3523H156.211L159.794 13.5744ZM144.449 37.1265H150.886L154.252 28.9011H165.549L168.922 37.1265H175.358L162.14 5.26453H157.578L144.449 37.1265Z" fill="white"></path><path d="M106.342 22.5823C108.273 20.5335 109.354 17.8147 109.363 14.985C109.358 13.5047 109.023 12.0444 108.382 10.7133C107.742 9.38221 106.811 8.21463 105.661 7.29773C103.877 5.843 101.625 5.15784 98.0118 5.15784H88.3633V10.6518H94.186V10.6468H97.9283C102.475 10.6468 103.539 13.6914 103.539 15.4521C103.539 17.127 102.733 20.3439 97.9283 20.3439H94.186V20.3383L91.2315 20.3425L102.604 36.9157H109.663L101.116 25.1956C103.073 24.8575 104.889 23.9492 106.342 22.5823Z" fill="white"></path><path d="M31.1283 16.2747C32.0052 16.9296 32.3407 17.5683 32.4667 17.3362C32.5926 17.104 32.45 16.5068 31.6489 15.6198C31.1303 15.0457 29.7467 14.476 29.0834 14.8277C28.3492 15.2174 30.1831 15.5705 31.1283 16.2747Z" fill="white"></path><path d="M20.8631 1.98145e-06C16.7342 0.0033405 12.6989 1.24387 9.26746 3.56478C5.836 5.88568 3.16238 9.18276 1.5846 13.0392C0.00681788 16.8956 -0.404289 21.1383 0.403248 25.2309C1.21078 29.3234 3.20071 33.0821 6.12146 36.0318C9.04222 38.9815 12.7627 40.9897 16.8125 41.8026C20.8623 42.6155 25.0597 42.1966 28.874 40.5989C32.6883 39.0011 35.9483 36.2962 38.2419 32.8261C40.5354 29.3561 41.7596 25.2766 41.7596 21.1035C41.7586 18.331 41.2173 15.5858 40.1666 13.0248C39.1159 10.4638 37.5763 8.13701 35.6359 6.17736C33.6955 4.2177 31.3921 2.66354 28.8574 1.60363C26.3227 0.543715 23.6062 -0.00119917 20.8631 1.98145e-06ZM30.1992 21.3651C29.6195 21.9143 28.9733 22.387 28.2761 22.772C25.7838 24.1255 23.8914 23.8722 23.5698 23.1012C23.3172 22.5082 24.1343 21.6106 25.4239 20.9037C26.644 20.2867 26.2355 20.1777 26.2355 20.1777C24.4663 19.7099 21.058 20.17 18.2851 21.2378C16.346 22.0242 14.5409 23.1133 12.9357 24.4652C11.1206 25.9488 11.2723 27.1693 11.6697 27.9002C12.0578 28.5747 12.3595 29.2964 12.5676 30.0478C12.846 31.0601 12.846 32.1729 12.4854 32.1729C12.317 32.1729 12.31 31.8725 11.9558 31.6179C11.3882 31.29 10.8016 30.9971 10.1991 30.7407C9.80095 30.5419 9.41699 30.3153 9.05001 30.0626C8.91114 29.9505 8.81517 29.7931 8.77857 29.6173C8.55671 29.7024 8.31286 29.7091 8.08675 29.6363C7.3243 29.4032 6.59382 29.0742 5.91247 28.6571C5.59301 28.446 4.72928 28.5973 5.28608 28.0943C5.74318 27.8059 6.23 27.5686 6.73792 27.3867C8.01715 26.9139 8.67348 26.9604 9.40009 26.6874C10.5067 26.2654 10.5673 20.6202 15.5944 16.0654C18.3374 13.7 21.8647 12.472 25.4671 12.6283C21.6231 8.5483 26.4937 8.2402 29.4503 11.941C30.0616 12.8844 30.8272 13.7157 31.7143 14.3996C33.0466 15.4957 34.1372 16.8615 34.9159 18.4092C35.7574 19.8436 36.4596 21.223 35.8847 21.7921C35.5597 22.1143 33.6958 22.5926 30.195 21.356" fill="white"></path><path d="M32.1319 17.8966C31.2689 16.9265 30.1013 16.2868 28.826 16.0852C27.466 15.7868 26.1911 15.1791 25.0982 14.3083C23.4404 13.0463 19.6493 14.2844 18.4223 14.9752C16.9599 15.7104 15.6409 16.7065 14.5289 17.9156C13.4438 18.962 12.6084 20.2441 12.0859 21.665C12.1743 21.7508 12.7464 20.8595 13.599 20.1645C15.0639 18.8893 16.8135 17.9929 18.6972 17.5526C21.3965 16.9574 24.2109 17.2011 26.7707 18.2519C28.123 18.8477 28.6631 19.4941 30.2764 20.2103L35.0593 21.2317C35.9641 20.7744 33.5768 19.5335 32.1298 17.8938" fill="white"></path><defs><clipPath id="clip0_320_942"><rect width="117.089" height="7.89746" fill="white" transform="translate(58.3789 45.1863)"></rect></clipPath></defs></svg>