<?xml version="1.0"?> <svg xmlns="http://www.w3.org/2000/svg" width="176" height="66" viewBox="0 0 176 66" fill="none"><path fill-rule="evenodd" clip-rule="evenodd" d="M4.76965 24.4933V21.6255C5.20859 22.0352 5.58901 22.3278 5.99869 22.5034C6.40838 22.679 6.7888 22.796 7.16922 22.796C7.78374 22.796 8.28121 22.5912 8.66163 22.1815C9.04205 21.7718 9.21763 21.2158 9.21763 20.5428C9.21763 19.7234 8.69089 18.2895 7.63742 16.2411C7.37406 15.7144 7.16922 15.3047 7.0229 15.0413C6.08648 13.11 5.4427 11.6761 5.15007 10.7397C4.85744 9.80325 4.71112 8.98389 4.71112 8.25231C4.71112 6.93548 5.1208 5.82348 5.9109 5.00412C6.70101 4.15549 7.72521 3.7458 8.98352 3.7458C9.36394 3.7458 9.74436 3.80433 10.1248 3.89212C10.5052 3.97991 10.8856 4.15549 11.266 4.3896V6.93548C10.9149 6.67211 10.593 6.46727 10.2711 6.32095C9.9492 6.17464 9.62731 6.11611 9.33468 6.11611C8.72016 6.11611 8.25195 6.29169 7.90079 6.67211C7.54963 7.05253 7.37406 7.52074 7.37406 8.16452C7.37406 8.60347 7.46185 9.1302 7.63742 9.71546C7.813 10.3007 8.13489 11.0323 8.54458 11.9102C8.77868 12.4077 9.10057 13.11 9.56878 14.0171C11.0905 17.0312 11.822 19.2259 11.822 20.572C11.822 21.9474 11.4124 23.0594 10.5637 23.9666C9.7151 24.8737 8.66163 25.3127 7.40332 25.3127C6.99364 25.3127 6.55469 25.2541 6.14501 25.1078C5.64754 24.9322 5.20859 24.7567 4.76965 24.4933ZM16.9431 24.9322V6.55506H13.6363V4.09696H22.8542V6.55506H19.4889V24.9322H16.9431Z" fill="white"></path><path fill-rule="evenodd" clip-rule="evenodd" d="M0 30.7554V28.7948H27.5658V0H28.7656V30.7554C19.2551 30.7847 9.56901 30.7554 0 30.7554Z" fill="white"></path><path fill-rule="evenodd" clip-rule="evenodd" d="M53.4633 15.7143V10.008C53.4633 5.91118 51.5904 3.74572 46.9961 3.74572C42.8408 3.74572 40.529 5.91118 40.529 10.3299V15.7436C40.529 18.0261 41.1435 19.5185 42.2555 21.4498L48.2837 31.9553C49.1616 33.5062 49.4542 34.706 49.4542 36.2569V42.5192C49.4542 44.6262 48.6349 45.8845 46.9669 45.8845C45.1526 45.8845 44.3625 44.6554 44.3625 42.5192V36.6081H40.2656V42.7533C40.2656 47.2891 42.4311 49.3375 46.9669 49.3375C51.0637 49.3375 53.551 46.9672 53.551 42.7533V35.6717C53.551 33.6818 52.995 31.7504 52.0586 30.1995L45.533 19.021C44.8307 17.8505 44.5966 16.4166 44.5966 14.9827V10.2714C44.5966 8.54485 45.0355 7.22802 46.9669 7.22802C48.8982 7.22802 49.3372 8.54485 49.3372 10.2714V15.7143H53.4633ZM58.7599 41.7584C58.7599 46.1771 60.4279 49.3375 65.9586 49.3375C71.4893 49.3375 73.1573 46.1478 73.1573 41.7584V11.3248C73.1573 6.90613 71.4893 3.74572 65.9586 3.74572C60.4279 3.74572 58.7599 6.90613 58.7599 11.3248V41.7584ZM62.8567 11.4419C62.8567 8.95454 63.3542 7.22802 65.9586 7.22802C68.563 7.22802 69.0604 8.95454 69.0604 11.4419V41.6413C69.0604 44.1287 68.563 45.8552 65.9586 45.8552C63.3542 45.8552 62.8567 44.1287 62.8567 41.6413V11.4419ZM83.6042 48.9571V27.4195H90.0713V23.9372H83.6042V7.60844H90.3639V4.12614H79.4781V48.9571H83.6042ZM98.4405 48.9571H102.537V7.57917H107.132V4.09688H93.8462V7.57917H98.4405V48.9571ZM114.594 48.9571H118.691V7.57917H123.285V4.09688H109.999V7.57917H114.594V48.9571ZM127.879 48.9571H138.736V45.4748H131.976V27.3902H138.443V23.9079H131.976V7.57917H138.736V4.09688H127.879V48.9571ZM152.665 15.8606H156.762V9.94948C156.762 6.14529 154.655 3.74572 150.353 3.74572C146.081 3.74572 143.945 6.17455 143.945 9.94948V43.1045C143.945 46.8794 146.051 49.3375 150.353 49.3375C154.655 49.3375 156.762 46.9087 156.762 43.1045V36.6959H152.665V42.9582C152.665 44.8895 151.992 45.826 150.353 45.826C148.744 45.826 148.071 44.8895 148.071 42.9582V10.0665C148.071 8.13517 148.744 7.19875 150.353 7.19875C151.963 7.19875 152.665 8.13517 152.665 10.0665V15.8606ZM171.481 23.9372H165.336V4.12614H161.239V48.9571H165.336V27.4195H171.481V48.9571H175.578V4.12614H171.481V23.9372Z" fill="white"></path><path d="M62.7164 58.2198C62.5347 57.9798 62.3067 57.7867 62.0324 57.6422C61.7171 57.4758 61.3598 57.3923 60.9594 57.3923C60.4701 57.3923 60.031 57.5145 59.6415 57.7583C59.252 58.0022 58.9444 58.3316 58.7186 58.7457C58.4922 59.1602 58.3793 59.6261 58.3793 60.1437C58.3793 60.6614 58.4922 61.1272 58.7186 61.5418C58.9444 61.9564 59.2526 62.2836 59.6415 62.5237C60.031 62.7642 60.4701 62.8842 60.9594 62.8842C61.3598 62.8842 61.7193 62.8008 62.0384 62.6344C62.3122 62.4915 62.5386 62.3 62.7169 62.0611V62.7729H63.7288V57.5031H62.7169L62.7164 58.2198ZM62.3275 61.436C62.0236 61.7725 61.6232 61.9405 61.1263 61.9405C60.7925 61.9405 60.4963 61.8631 60.2366 61.7076C59.977 61.5522 59.7752 61.34 59.6306 61.07C59.4861 60.7999 59.4141 60.4874 59.4141 60.1323C59.4141 59.7772 59.4861 59.4761 59.6306 59.206C59.7752 58.936 59.9754 58.7233 60.2312 58.5684C60.487 58.4129 60.7816 58.3355 61.1154 58.3355C61.4492 58.3355 61.74 58.4113 61.9882 58.5629C62.2364 58.7146 62.4311 58.9273 62.5718 59.2006C62.7126 59.4744 62.7829 59.7886 62.7829 60.1437C62.7829 60.669 62.6313 61.1 62.3275 61.436Z" fill="white"></path><path d="M68.9299 57.6918C68.6222 57.4921 68.2682 57.3923 67.8678 57.3923C67.4674 57.3923 67.108 57.4829 66.7894 57.664C66.5494 57.8003 66.3492 57.9738 66.1888 58.1838V57.5031H65.1879V62.7729H66.1888V59.6997C66.1888 59.4335 66.2483 59.1968 66.3667 58.9895C66.485 58.7827 66.6481 58.6197 66.8559 58.5013C67.0632 58.3829 67.3005 58.324 67.5678 58.324C67.9682 58.324 68.2922 58.4533 68.5409 58.7124C68.7891 58.9715 68.9135 59.3004 68.9135 59.6997V62.7729H69.9254V59.5001C69.9254 59.1379 69.8365 58.7958 69.6586 58.474C69.4808 58.1522 69.2375 57.8914 68.9299 57.6918Z" fill="white"></path><path d="M77.4797 57.6585C77.046 57.4147 76.5545 57.2925 76.0063 57.2925C75.4581 57.2925 74.9775 57.4163 74.5439 57.6639C74.1102 57.9116 73.7671 58.2449 73.5151 58.6622C73.2631 59.08 73.1371 59.5518 73.1371 60.0766C73.1371 60.6014 73.2631 61.0879 73.5151 61.5134C73.7671 61.9389 74.1102 62.2754 74.5439 62.5231C74.9775 62.7707 75.4646 62.8946 76.0063 62.8946C76.548 62.8946 77.0476 62.7707 77.4851 62.5231C77.9226 62.2754 78.2673 61.9372 78.5193 61.5079C78.7714 61.0792 78.8974 60.6019 78.8974 60.0766C78.8974 59.5513 78.7697 59.0784 78.5139 58.6567C78.2581 58.2351 77.9133 57.9023 77.4797 57.6585ZM77.2238 60.831C77.1087 61.0454 76.9456 61.2156 76.7345 61.3416C76.5234 61.4676 76.2801 61.5303 76.0063 61.5303C75.7325 61.5303 75.5023 61.4676 75.2945 61.3416C75.0866 61.2161 74.9257 61.0459 74.8106 60.831C74.6955 60.6166 74.6382 60.369 74.6382 60.0875C74.6382 59.806 74.6955 59.5589 74.8106 59.344C74.9257 59.1296 75.0866 58.9611 75.2945 58.8395C75.5017 58.7173 75.739 58.6562 76.0063 58.6562C76.2736 58.6562 76.5196 58.7173 76.7236 58.8395C76.9276 58.9616 77.0907 59.1296 77.2129 59.344C77.3351 59.5584 77.3962 59.8066 77.3962 60.0875C77.3962 60.3684 77.3389 60.6166 77.2238 60.831Z" fill="white"></path><path d="M83.3739 57.4311C83.1699 57.346 82.9348 57.3035 82.6675 57.3035C82.067 57.3035 81.6071 57.4938 81.2886 57.8746C81.2847 57.8789 81.2815 57.8838 81.2777 57.8888V57.4142H79.8207V62.7724H81.2777V59.8214C81.2777 59.4145 81.3758 59.115 81.5722 58.923C81.7686 58.731 82.0228 58.6344 82.3337 58.6344C82.4821 58.6344 82.6135 58.6552 82.7286 58.6955C82.8437 58.7364 82.9419 58.8046 83.0232 58.9006L83.9352 57.8468C83.7645 57.6547 83.5774 57.5162 83.3739 57.4311Z" fill="white"></path><path d="M86.1196 58.8401C86.3307 58.7179 86.5702 58.6568 86.8369 58.6568C87.0742 58.6568 87.2907 58.6977 87.4877 58.779C87.684 58.8603 87.8488 58.9824 87.9824 59.145L88.9386 58.1909C88.6719 57.8953 88.3604 57.6717 88.0048 57.52C87.6491 57.3684 87.2596 57.2925 86.8369 57.2925C86.2881 57.2925 85.795 57.4147 85.3581 57.6586C84.9206 57.9024 84.5759 58.2373 84.3239 58.6628C84.0719 59.0883 83.9459 59.5672 83.9459 60.0996C83.9459 60.632 84.0719 61.0891 84.3239 61.514C84.5759 61.9395 84.9206 62.2761 85.3581 62.5237C85.7956 62.7713 86.2849 62.8952 86.826 62.8952C87.2558 62.8952 87.6508 62.8155 88.0102 62.6568C88.3697 62.4981 88.679 62.2706 88.9386 61.9744L88.0048 61.0313C87.8564 61.1938 87.6857 61.3182 87.4931 61.4027C87.3 61.4878 87.0818 61.5304 86.8369 61.5304C86.5702 61.5304 86.3307 61.4677 86.1196 61.3416C85.9085 61.2162 85.7432 61.046 85.6248 60.8311C85.5059 60.6167 85.447 60.3691 85.447 60.0876C85.447 59.8061 85.5065 59.559 85.6248 59.3441C85.7432 59.1297 85.9085 58.9617 86.1196 58.8401Z" fill="white"></path><path d="M93.4305 57.9204C93.2816 57.7672 93.1081 57.6384 92.908 57.5359C92.6041 57.3804 92.2632 57.303 91.8852 57.303C91.3882 57.303 90.9453 57.4252 90.5564 57.669C90.1675 57.9128 89.8614 58.2461 89.6389 58.6672C89.4163 59.0883 89.3051 59.5656 89.3051 60.0986C89.3051 60.6315 89.4163 61.0968 89.6389 61.5184C89.8614 61.9401 90.1669 62.2728 90.5564 62.5167C90.9459 62.7605 91.385 62.8827 91.8743 62.8827C92.2599 62.8827 92.6063 62.8052 92.914 62.6498C93.1125 62.5494 93.2849 62.4228 93.4311 62.2717V62.772H94.899V57.4137H93.4311L93.4305 57.9204ZM93.1414 61.1311C92.8894 61.405 92.5594 61.5414 92.1519 61.5414C91.8923 61.5414 91.6588 61.4786 91.4515 61.3526C91.2437 61.2272 91.0828 61.057 90.9677 60.842C90.8526 60.6277 90.7953 60.3762 90.7953 60.0876C90.7953 59.7991 90.8526 59.5591 90.9677 59.3442C91.0828 59.1298 91.2421 58.9596 91.4461 58.8336C91.6501 58.7081 91.8852 58.6448 92.1525 58.6448C92.4198 58.6448 92.6641 58.7059 92.8643 58.8281C93.0645 58.9503 93.2238 59.1221 93.3427 59.3442C93.4611 59.5662 93.5205 59.8176 93.5205 60.0986C93.5205 60.5126 93.3945 60.8568 93.1425 61.1301L93.1414 61.1311Z" fill="white"></path><path d="M102.051 57.8631C101.915 57.7317 101.757 57.6204 101.573 57.5309C101.261 57.3793 100.909 57.3035 100.516 57.3035C100.034 57.3035 99.6004 57.4202 99.2153 57.6531C98.8296 57.886 98.5274 58.2024 98.3087 58.6017C98.0899 59.001 97.9808 59.4521 97.9808 59.955C97.9808 60.458 98.0899 60.9129 98.3087 61.3198C98.5274 61.7268 98.8296 62.0464 99.2153 62.2793C99.6004 62.5122 100.035 62.629 100.516 62.629C100.909 62.629 101.259 62.5515 101.567 62.3961C101.747 62.305 101.904 62.1942 102.04 62.0639V62.5292C102.04 62.9214 101.906 63.2339 101.639 63.4668C101.373 63.6998 101.016 63.8165 100.572 63.8165C100.209 63.8165 99.8993 63.7516 99.6435 63.6223C99.3876 63.493 99.1558 63.3059 98.9485 63.0621L98.0147 63.9829C98.2814 64.3527 98.6316 64.6391 99.0653 64.8425C99.4989 65.046 100.005 65.1475 100.583 65.1475C101.162 65.1475 101.658 65.0384 102.095 64.8202C102.533 64.602 102.875 64.2932 103.124 63.894C103.372 63.4947 103.497 63.0321 103.497 62.5073V57.4153H102.051V57.8631ZM101.501 61.1311C101.304 61.2418 101.069 61.2975 100.794 61.2975C100.542 61.2975 100.314 61.2402 100.11 61.1256C99.9064 61.0111 99.7493 60.8518 99.638 60.6483C99.5267 60.4449 99.4711 60.2141 99.4711 59.955C99.4711 59.6959 99.5284 59.4761 99.6435 59.2726C99.7586 59.0692 99.914 58.9104 100.11 58.7953C100.307 58.6808 100.539 58.6235 100.805 58.6235C101.072 58.6235 101.295 58.6808 101.495 58.7953C101.695 58.9099 101.849 59.0692 101.956 59.2726C102.064 59.4761 102.118 59.7074 102.118 59.9659C102.118 60.2245 102.064 60.4558 101.956 60.6592C101.849 60.8627 101.697 61.0204 101.501 61.1311Z" fill="white"></path><path d="M108.327 57.4311C108.123 57.346 107.888 57.3035 107.621 57.3035C107.02 57.3035 106.56 57.4938 106.242 57.8746C106.238 57.8789 106.235 57.8838 106.231 57.8888V57.4142H104.774V62.7724H106.231V59.8214C106.231 59.4145 106.329 59.115 106.525 58.923C106.722 58.731 106.976 58.6344 107.287 58.6344C107.435 58.6344 107.567 58.6552 107.682 58.6955C107.797 58.7364 107.895 58.8046 107.976 58.9006L108.888 57.8468C108.718 57.6547 108.531 57.5162 108.327 57.4311Z" fill="white"></path><path d="M113.241 57.6585C112.808 57.4147 112.316 57.2925 111.768 57.2925C111.22 57.2925 110.739 57.4163 110.306 57.6639C109.872 57.9116 109.529 58.2449 109.277 58.6622C109.025 59.08 108.899 59.5518 108.899 60.0766C108.899 60.6014 109.025 61.0879 109.277 61.5134C109.529 61.9389 109.872 62.2754 110.306 62.5231C110.739 62.7707 111.227 62.8946 111.768 62.8946C112.309 62.8946 112.809 62.7707 113.247 62.5231C113.684 62.2754 114.029 61.9372 114.281 61.5079C114.533 61.0792 114.659 60.6019 114.659 60.0766C114.659 59.5513 114.531 59.0784 114.276 58.6567C114.02 58.2351 113.675 57.9023 113.241 57.6585ZM112.986 60.831C112.87 61.0454 112.707 61.2156 112.496 61.3416C112.285 61.4676 112.042 61.5303 111.768 61.5303C111.494 61.5303 111.264 61.4676 111.056 61.3416C110.848 61.2161 110.687 61.0459 110.572 60.831C110.457 60.6166 110.4 60.369 110.4 60.0875C110.4 59.806 110.457 59.5589 110.572 59.344C110.687 59.1296 110.848 58.9611 111.056 58.8395C111.263 58.7173 111.501 58.6562 111.768 58.6562C112.035 58.6562 112.281 58.7173 112.485 58.8395C112.689 58.9616 112.852 59.1296 112.975 59.344C113.097 59.5584 113.158 59.8066 113.158 60.0875C113.158 60.3684 113.101 60.6166 112.986 60.831Z" fill="white"></path><path d="M118.841 60.4873C118.841 60.82 118.756 61.0791 118.585 61.264C118.415 61.449 118.177 61.5412 117.873 61.5412C117.673 61.5412 117.499 61.5008 117.351 61.419C117.202 61.3377 117.091 61.2177 117.017 61.0584C116.943 60.8997 116.906 60.7088 116.906 60.4873V57.414H115.438V60.5206C115.438 60.9864 115.542 61.3971 115.749 61.7523C115.957 62.1074 116.246 62.3828 116.617 62.5787C116.987 62.7745 117.406 62.8727 117.873 62.8727C118.341 62.8727 118.758 62.7745 119.124 62.5787C119.491 62.3828 119.778 62.1074 119.986 61.7523C120.193 61.3971 120.298 60.9869 120.298 60.5206V57.414H118.841L118.841 60.4873Z" fill="white"></path><path d="M125.774 57.6695C125.378 57.4256 124.931 57.3035 124.434 57.3035C124.048 57.3035 123.7 57.3847 123.389 57.5473C123.209 57.6417 123.05 57.7551 122.91 57.8877V57.4142H121.453V65.0247H122.899V62.3088C123.041 62.4441 123.203 62.5581 123.388 62.6503C123.7 62.8057 124.048 62.8832 124.433 62.8832C124.93 62.8832 125.375 62.761 125.768 62.5172C126.16 62.2733 126.47 61.94 126.696 61.5189C126.922 61.0973 127.035 60.6243 127.035 60.099C127.035 59.5737 126.924 59.0894 126.702 58.6677C126.479 58.246 126.17 57.9133 125.773 57.6695H125.774ZM125.363 60.8371C125.248 61.0553 125.09 61.2271 124.891 61.3531C124.69 61.4791 124.457 61.5418 124.19 61.5418C123.923 61.5418 123.684 61.4791 123.473 61.3531C123.262 61.2276 123.102 61.0553 122.994 60.8371C122.887 60.6189 122.833 60.3696 122.833 60.0881C122.833 59.8067 122.89 59.5596 123.005 59.3446C123.12 59.1303 123.28 58.9601 123.484 58.8341C123.688 58.7086 123.919 58.6453 124.179 58.6453C124.453 58.6453 124.69 58.7081 124.891 58.8341C125.091 58.9601 125.248 59.1297 125.363 59.3446C125.478 59.559 125.535 59.8072 125.535 60.0881C125.535 60.3691 125.478 60.6189 125.363 60.8371Z" fill="white"></path><path d="M131.896 58.5847C132.155 58.4331 132.451 58.3573 132.785 58.3573C133.06 58.3573 133.315 58.4074 133.553 58.5073C133.79 58.6071 133.99 58.7533 134.153 58.9453L134.82 58.2798C134.568 57.9912 134.268 57.7714 133.92 57.6198C133.571 57.4681 133.193 57.3923 132.786 57.3923C132.267 57.3923 131.798 57.5129 131.379 57.7529C130.96 57.9934 130.63 58.3207 130.39 58.7347C130.148 59.1493 130.028 59.6151 130.028 60.1328C130.028 60.6505 130.148 61.1076 130.39 61.5249C130.631 61.9427 130.96 62.2738 131.379 62.5176C131.798 62.7615 132.267 62.8837 132.786 62.8837C133.193 62.8837 133.574 62.8062 133.926 62.6507C134.278 62.4953 134.577 62.2771 134.821 61.9962L134.165 61.3307C133.994 61.5232 133.792 61.6689 133.559 61.7687C133.325 61.8685 133.067 61.9187 132.786 61.9187C132.452 61.9187 132.156 61.8412 131.896 61.6858C131.636 61.5303 131.432 61.3198 131.285 61.0536C131.136 60.7874 131.062 60.4803 131.062 60.1328C131.062 59.7853 131.136 59.4782 131.285 59.212C131.433 58.9458 131.636 58.7364 131.896 58.5847Z" fill="white"></path><path d="M139.509 57.7529C139.09 57.5129 138.621 57.3923 138.102 57.3923C137.584 57.3923 137.128 57.5145 136.712 57.7583C136.297 58.0022 135.967 58.3295 135.723 58.7402C135.479 59.1504 135.356 59.6113 135.356 60.1214C135.356 60.6314 135.478 61.107 135.723 61.5249C135.968 61.9427 136.297 62.2738 136.712 62.5177C137.128 62.7615 137.591 62.8837 138.102 62.8837C138.614 62.8837 139.09 62.7615 139.509 62.5177C139.928 62.2738 140.26 61.9427 140.505 61.5249C140.749 61.107 140.872 60.639 140.872 60.1214C140.872 59.6037 140.75 59.1488 140.505 58.7347C140.26 58.3207 139.928 57.9934 139.509 57.7529ZM139.615 61.0476C139.467 61.3176 139.263 61.5303 139.003 61.6853C138.744 61.8407 138.444 61.9182 138.103 61.9182C137.762 61.9182 137.484 61.8407 137.225 61.6853C136.965 61.5298 136.761 61.3176 136.613 61.0476C136.465 60.7776 136.391 60.4688 136.391 60.1214C136.391 59.7739 136.465 59.4777 136.613 59.2115C136.762 58.9453 136.965 58.7364 137.225 58.5847C137.484 58.4331 137.777 58.3573 138.103 58.3573C138.429 58.3573 138.742 58.4331 138.998 58.5847C139.254 58.7364 139.458 58.9453 139.609 59.2115C139.761 59.4777 139.838 59.781 139.838 60.1214C139.838 60.4617 139.763 60.7776 139.615 61.0476Z" fill="white"></path><path d="M149.132 57.6362C148.828 57.4736 148.483 57.3923 148.097 57.3923C147.712 57.3923 147.385 57.4758 147.074 57.6422C146.763 57.8085 146.508 58.0382 146.312 58.33C146.309 58.3355 146.306 58.3409 146.302 58.3464C146.298 58.3393 146.294 58.3316 146.29 58.324C146.116 58.0284 145.879 57.7987 145.578 57.6362C145.278 57.4736 144.942 57.3923 144.572 57.3923C144.201 57.3923 143.853 57.4758 143.549 57.6422C143.324 57.7649 143.136 57.9236 142.982 58.1173V57.5036H141.981V62.7735H142.982V59.5895C142.982 59.3233 143.041 59.0975 143.16 58.9126C143.278 58.7277 143.434 58.5836 143.627 58.48C143.819 58.3764 144.038 58.3245 144.283 58.3245C144.646 58.3245 144.948 58.4375 145.189 58.6627C145.43 58.8886 145.551 59.1973 145.551 59.589V62.7729H146.552V59.589C146.552 59.3228 146.611 59.0969 146.73 58.912C146.848 58.7271 147.006 58.5831 147.202 58.4795C147.399 58.3758 147.619 58.324 147.864 58.324C148.219 58.324 148.518 58.4369 148.759 58.6622C149 58.888 149.12 59.1968 149.12 59.5884V62.7724H150.132V59.3888C150.132 58.9748 150.041 58.6197 149.86 58.324C149.678 58.0284 149.435 57.7987 149.132 57.6362Z" fill="white"></path><path d="M155.579 57.7583C155.19 57.5145 154.755 57.3923 154.273 57.3923C153.88 57.3923 153.522 57.4758 153.2 57.6422C152.916 57.7889 152.68 57.9847 152.494 58.2296V57.5036H151.493V64.981H152.494V62.0524C152.676 62.2956 152.908 62.4898 153.188 62.6349C153.511 62.8013 153.872 62.8848 154.273 62.8848C154.755 62.8848 155.19 62.7648 155.579 62.5242C155.968 62.2842 156.274 61.9569 156.497 61.5423C156.719 61.1283 156.831 60.6625 156.831 60.1443C156.831 59.6261 156.719 59.1608 156.497 58.7462C156.274 58.3322 155.969 58.0022 155.579 57.7583ZM155.579 61.07C155.435 61.34 155.236 61.5527 154.984 61.7076C154.732 61.8631 154.439 61.9405 154.106 61.9405C153.773 61.9405 153.489 61.8631 153.233 61.7076C152.977 61.5522 152.781 61.34 152.644 61.07C152.507 60.7999 152.438 60.4912 152.438 60.1437C152.438 59.7963 152.509 59.4766 152.65 59.206C152.79 58.936 152.987 58.7233 153.239 58.5684C153.491 58.4129 153.78 58.3355 154.106 58.3355C154.432 58.3355 154.732 58.4129 154.984 58.5684C155.236 58.7238 155.435 58.9366 155.579 59.206C155.724 59.4761 155.796 59.7848 155.796 60.1323C155.796 60.4797 155.724 60.7999 155.579 61.07Z" fill="white"></path><path d="M161.966 58.2199C161.785 57.9799 161.557 57.7868 161.282 57.6417C160.967 57.4753 160.61 57.3918 160.209 57.3918C159.72 57.3918 159.281 57.514 158.892 57.7578C158.503 58.0017 158.194 58.3312 157.969 58.7452C157.742 59.1597 157.629 59.6256 157.629 60.1432C157.629 60.6609 157.742 61.1267 157.969 61.5413C158.194 61.9559 158.503 62.2832 158.892 62.5232C159.281 62.7637 159.72 62.8837 160.209 62.8837C160.61 62.8837 160.969 62.8003 161.288 62.6339C161.562 62.491 161.788 62.2995 161.966 62.0606V62.7725H162.978V57.5026H161.966V58.2199ZM161.577 61.436C161.273 61.7726 160.873 61.9406 160.376 61.9406C160.042 61.9406 159.746 61.8631 159.486 61.7077C159.226 61.5522 159.025 61.34 158.88 61.07C158.736 60.8 158.664 60.4874 158.664 60.1323C158.664 59.7772 158.736 59.4761 158.88 59.2061C159.025 58.9361 159.225 58.7234 159.481 58.5684C159.736 58.413 160.031 58.3355 160.365 58.3355C160.699 58.3355 160.989 58.4113 161.238 58.563C161.486 58.7146 161.681 58.9274 161.821 59.2006C161.962 59.4745 162.032 59.7887 162.032 60.1438C162.032 60.6691 161.881 61.1 161.577 61.436Z" fill="white"></path><path d="M168.176 57.6918C167.868 57.4921 167.514 57.3923 167.114 57.3923C166.714 57.3923 166.354 57.4829 166.035 57.664C165.795 57.8003 165.595 57.9738 165.435 58.1838V57.5031H164.434V62.7729H165.435V59.6997C165.435 59.4335 165.494 59.1968 165.613 58.9895C165.731 58.7827 165.894 58.6197 166.102 58.5013C166.309 58.3829 166.547 58.324 166.814 58.324C167.214 58.324 167.538 58.4533 167.787 58.7124C168.035 58.9715 168.16 59.3004 168.16 59.6997V62.7729H169.171V59.5001C169.171 59.1379 169.083 58.7958 168.905 58.474C168.727 58.1522 168.484 57.8914 168.176 57.6918Z" fill="white"></path><path d="M174.217 57.5032L172.609 61.2397L171.081 57.5032H169.969L172.042 62.3132L170.748 64.9806H171.86L172.861 62.8172L175.329 57.5032H174.217Z" fill="white"></path></svg>