<?xml version="1.0" encoding="UTF-8" standalone="no"?>
<!-- Generator: Adobe Illustrator 15.0.0, SVG Export Plug-In . SVG Version: 6.00 Build 0)  -->

<svg
   xmlns:dc="http://purl.org/dc/elements/1.1/"
   xmlns:cc="http://creativecommons.org/ns#"
   xmlns:rdf="http://www.w3.org/1999/02/22-rdf-syntax-ns#"
   xmlns:svg="http://www.w3.org/2000/svg"
   xmlns="http://www.w3.org/2000/svg"
   xmlns:sodipodi="http://sodipodi.sourceforge.net/DTD/sodipodi-0.dtd"
   xmlns:inkscape="http://www.inkscape.org/namespaces/inkscape"
   version="1.0"
   id="Layer_1"
   x="0px"
   y="0px"
   width="3678.1658"
   height="1057.4424"
   viewBox="0 0 3678.1658 1057.4424"
   enable-background="new 0 0 3347.72 1057.32"
   xml:space="preserve"
   inkscape:version="0.48.0 r9654"
   sodipodi:docname="DRK_Logo2.svg"><metadata
   id="metadata51"><rdf:RDF><cc:Work
       rdf:about=""><dc:format>image/svg+xml</dc:format><dc:type
         rdf:resource="http://purl.org/dc/dcmitype/StillImage" /><dc:title></dc:title></cc:Work></rdf:RDF></metadata><defs
   id="defs49">
	
	

		
		
		
		
		
		
		
		
		
		
		
		
		
		
		
		
		
		
		
	</defs><sodipodi:namedview
   pagecolor="#ffffff"
   bordercolor="#666666"
   borderopacity="1"
   objecttolerance="10"
   gridtolerance="10"
   guidetolerance="10"
   inkscape:pageopacity="0"
   inkscape:pageshadow="2"
   inkscape:window-width="1440"
   inkscape:window-height="850"
   id="namedview47"
   showgrid="false"
   fit-margin-top="0"
   fit-margin-left="0"
   fit-margin-right="0"
   fit-margin-bottom="0"
   inkscape:zoom="0.10772241"
   inkscape:cx="4832.3694"
   inkscape:cy="1163.9232"
   inkscape:window-x="-8"
   inkscape:window-y="-8"
   inkscape:window-maximized="1"
   inkscape:current-layer="Layer_1" />

<g
   id="g3106"
   transform="translate(-5.2650704,1.6004876)"><path
     d="M 5.265,352.701 H 354.767 V 3.222 h 349.502 v 349.479 h 349.479 V 702.18 H 704.269 v 349.479 H 354.767 V 702.18 H 5.265 V 352.701 z"
     id="path5"
     inkscape:connector-curvature="0"
     style="fill:#e30613" /><path
     inkscape:connector-curvature="0"
     id="path27"
     d="m 1327.114,380.988 h 156.176 c 51.927,0 84.791,36.121 84.791,79.926 0,34.086 -13.798,59.634 -45.851,72.622 v 0.799 c 31.244,8.121 40.164,38.547 42.199,67.756 1.213,18.258 0.809,52.334 12.168,68.557 h -63.692 c -7.706,-18.258 -6.887,-46.254 -10.144,-69.375 -4.461,-30.414 -16.225,-43.807 -48.265,-43.807 h -63.691 v 113.182 h -63.69 v -289.66 z m 63.691,131.044 h 69.769 c 28.401,0 43.815,-12.168 43.815,-41.391 0,-27.986 -15.414,-40.153 -43.815,-40.153 h -69.769 v 81.544 z" /><path
     inkscape:connector-curvature="0"
     id="path29"
     d="m 1710.461,455.228 c 66.117,0 108.72,43.816 108.72,110.767 0,66.51 -42.603,110.338 -108.72,110.338 -65.725,0 -108.316,-43.828 -108.316,-110.338 0,-66.951 42.591,-110.767 108.316,-110.767 z m 0,177.692 c 39.356,0 51.119,-33.672 51.119,-66.926 0,-33.672 -11.763,-67.354 -51.119,-67.354 -38.941,0 -50.705,33.683 -50.705,67.354 0,33.254 11.764,66.926 50.705,66.926 z" /><path
     inkscape:connector-curvature="0"
     id="path31"
     d="m 1928.71,460.914 h 42.187 v 38.547 h -42.187 v 103.844 c 0,19.469 4.876,24.334 24.347,24.334 6.077,0 11.763,-0.404 17.84,-1.617 v 45.029 c -9.729,1.617 -22.312,2.033 -33.659,2.033 -35.301,0 -66.13,-8.123 -66.13,-49.906 V 499.461 h -34.896 v -38.547 h 34.896 v -62.883 h 57.603 v 62.883 z" /><path
     inkscape:connector-curvature="0"
     id="path33"
     d="m 2047.159,579.766 c 1.63,36.525 19.482,53.154 51.524,53.154 23.12,0 41.781,-14.191 45.433,-27.178 h 50.715 c -16.234,49.49 -50.715,70.59 -98.182,70.59 -66.117,0 -107.092,-45.445 -107.092,-110.338 0,-62.895 43.401,-110.767 107.092,-110.767 71.397,0 105.889,60.051 101.834,124.538 h -151.324 z m 93.711,-36.5 c -5.269,-29.211 -17.853,-44.626 -45.838,-44.626 -36.515,0 -47.064,28.402 -47.873,44.626 h 93.711 z" /><path
     inkscape:connector-curvature="0"
     id="path35"
     d="m 2277.171,602.496 c 0.406,25.143 21.504,35.289 44.222,35.289 16.639,0 37.739,-6.484 37.739,-26.762 0,-17.459 -23.955,-23.549 -65.322,-32.459 -33.276,-7.303 -66.532,-19.076 -66.532,-55.983 0,-53.557 46.243,-67.354 91.261,-67.354 45.861,0 88.048,15.414 92.51,66.938 h -54.771 c -1.606,-22.301 -18.648,-28.391 -39.344,-28.391 -12.989,0 -32.043,2.438 -32.043,19.471 0,20.682 32.459,23.536 65.297,31.245 33.684,7.707 66.545,19.875 66.545,58.814 0,55.174 -47.872,73.027 -95.744,73.027 -48.681,0 -96.148,-18.258 -98.586,-73.836 h 54.768 z" /><path
     inkscape:connector-curvature="0"
     id="path37"
     d="m 1326.306,760.51 h 63.69 V 880.588 L 1503.177,760.51 h 79.509 l -113.181,114.393 124.134,175.254 h -79.925 l -87.216,-130.225 -36.502,36.918 v 93.307 h -63.69 V 760.51 z" /><path
     inkscape:connector-curvature="0"
     id="path39"
     d="m 1613.098,840.424 h 54.772 v 38.951 h 0.809 c 10.549,-26.369 38.951,-44.637 66.938,-44.637 4.055,0 8.92,0.82 12.571,2.045 v 53.533 c -5.271,-1.213 -13.785,-2.021 -20.685,-2.021 -42.187,0 -56.792,30.436 -56.792,67.342 v 94.52 h -57.613 V 840.424 z" /><path
     inkscape:connector-curvature="0"
     id="path41"
     d="m 1811.139,959.289 c 1.617,36.512 19.481,53.141 51.524,53.141 23.12,0 41.781,-14.189 45.432,-27.166 h 50.716 c -16.235,49.479 -50.716,70.578 -98.183,70.578 -66.117,0 -107.092,-45.436 -107.092,-110.338 0,-62.895 43.402,-110.766 107.092,-110.766 71.398,0 105.889,60.051 101.834,124.551 h -151.323 z m 93.71,-36.514 c -5.268,-29.211 -17.852,-44.627 -45.838,-44.627 -36.515,0 -47.063,28.402 -47.872,44.627 h 93.71 z" /><path
     inkscape:connector-curvature="0"
     id="path43"
     d="m 2189.631,1050.156 h -54.771 v -29.197 h -1.224 c -14.606,23.525 -39.749,34.883 -64.096,34.883 -61.252,0 -76.666,-34.48 -76.666,-86.408 v -129.01 h 57.601 v 118.449 c 0,34.49 10.146,51.533 36.918,51.533 31.233,0 44.624,-17.447 44.624,-60.037 V 840.424 h 57.613 v 209.732 z" /><path
     inkscape:connector-curvature="0"
     id="path45"
     d="m 2221.257,1006.744 109.125,-122.908 h -101.014 v -43.412 h 176.885 v 43.412 l -109.138,122.908 h 116.833 v 43.412 h -192.691 v -43.412 z" /><path
     d="m 1323.7127,-1.6004876 116.9284,0 c 23.146,2.9e-4 40.4059,0.96472004 51.7797,2.89328 11.3733,1.92914 21.5497,5.95312 30.5291,12.0719596 8.9789,6.11939 16.4615,14.26712 22.4478,24.44321 5.9859,10.17661 8.9789,21.58343 8.9792,34.22051 -3e-4,13.70171 -3.6917,26.2725 -11.0743,37.712398 -7.3831,11.44026 -17.3932,20.02032 -30.0303,25.74021 17.8251,5.18809 31.5266,14.0342 41.1046,26.53835 9.5774,12.5044 14.3663,27.20357 14.3666,44.09756 -3e-4,13.30251 -3.0931,26.23911 -9.2785,38.80985 -6.1859,12.57083 -14.6329,22.61416 -25.3411,30.13001 -10.7087,7.51588 -23.9113,12.13847 -39.608,13.86779 -9.844,1.06419 -33.5888,1.72931 -71.2345,1.99536 l -99.5687,0 z m 59.0628,48.6868996 0,67.642868 38.7101,0 c 23.013,1.8e-4 37.3131,-0.33238 42.9003,-0.99768 10.1097,-1.19704 18.0579,-4.68893 23.8446,-10.47567 5.7864,-5.786358 8.6796,-13.401998 8.6798,-22.846928 -2e-4,-9.04543 -2.4944,-16.39502 -7.4826,-22.04878 -4.9886,-5.65329 -12.4047,-9.07867 -22.2483,-10.27613 -5.8532,-0.66487 -22.6808,-0.99743 -50.4827,-0.99768 z m 0,116.329768 0,78.21831 54.673,0 c 21.2837,5e-5 34.7857,-0.59856 40.5059,-1.79583 8.7794,-1.59624 15.9294,-5.4872 21.4502,-11.67289 5.5203,-6.18556 8.2805,-14.46631 8.2807,-24.84229 -2e-4,-8.77951 -2.1286,-16.22886 -6.3852,-22.34809 -4.2569,-6.119 -10.4093,-10.57531 -18.4571,-13.36894 -8.0481,-2.79338 -25.5076,-4.19014 -52.3783,-4.19027 z"
     style="font-size:408.65072632px;font-style:normal;font-variant:normal;font-weight:bold;font-stretch:normal;text-align:start;line-height:125%;letter-spacing:0px;word-spacing:0px;writing-mode:lr-tb;text-anchor:start;fill:#000000;fill-opacity:1;stroke:none;font-family:Sans;-inkscape-font-specification:Sans Bold"
     id="path3073"
     inkscape:connector-curvature="0" /><path
     d="m 1660.3307,143.66207 -50.8818,-9.17868 c 5.72,-20.48557 15.5638,-35.650318 29.5314,-45.494318 13.9675,-9.84358 34.7193,-14.76548 62.2554,-14.7657 25.0084,2.2e-4 43.6318,2.96001 55.8702,8.87938 12.2381,5.91978 20.8514,13.43565 25.84,22.547618 4.9882,9.11234 7.4824,25.84014 7.4826,50.18343 l -0.5986,65.44796 c -2e-4,18.62346 0.8977,32.35821 2.6937,41.20429 1.7957,8.84614 5.1545,18.32411 10.0766,28.43395 l -55.4711,0 c -1.4634,-3.72468 -3.2593,-9.24518 -5.3875,-16.56153 -0.9313,-3.32559 -1.5964,-5.52049 -1.9954,-6.5847 -9.5778,9.31171 -19.8207,16.29548 -30.7286,20.95133 -10.9081,4.65585 -22.5477,6.98377 -34.9189,6.98378 -21.816,-1e-5 -39.0094,-5.91958 -51.5801,-17.75875 -12.5709,-11.83914 -18.8563,-26.80436 -18.8562,-44.89571 -10e-5,-11.97212 2.86,-22.64731 8.58,-32.02561 5.72,-9.37811 13.7348,-16.56142 24.0442,-21.54994 10.3093,-4.98829 25.1748,-9.34484 44.5964,-13.06964 26.2057,-4.92177 44.3635,-9.5111 54.4734,-13.76802 l 0,-5.58702 c -10e-5,-10.77481 -2.6606,-18.45696 -7.9814,-23.04646 -5.3211,-4.58917 -15.3644,-6.88384 -30.13,-6.88401 -9.9769,1.7e-4 -17.7589,1.96228 -23.3458,5.88632 -5.5871,3.92439 -10.1099,10.80839 -13.5685,20.65203 z m 75.0257,45.49432 c -7.1834,2.39454 -18.557,5.25456 -34.1207,8.58007 -15.5639,3.3257 -25.7403,6.58479 -30.5291,9.77729 -7.3164,5.18802 -10.9746,11.77272 -10.9745,19.75411 -10e-5,7.84849 2.9265,14.63272 8.7796,20.35272 5.853,5.72008 13.3024,8.5801 22.3481,8.58007 10.1097,3e-5 19.754,-3.32557 28.9328,-9.97682 6.7841,-5.05488 11.2404,-11.2405 13.3689,-18.5569 1.4632,-4.78881 2.1948,-13.90096 2.1949,-27.3365 z"
     style="font-size:408.65072632px;font-style:normal;font-variant:normal;font-weight:bold;font-stretch:normal;text-align:start;line-height:125%;letter-spacing:0px;word-spacing:0px;writing-mode:lr-tb;text-anchor:start;fill:#000000;fill-opacity:1;stroke:none;font-family:Sans;-inkscape-font-specification:Sans Bold"
     id="path3075"
     inkscape:connector-curvature="0" /><path
     d="m 1819.3613,79.012252 59.6614,0 50.6823,150.450508 49.485,-150.450508 58.0651,0 -74.8261,203.926288 -13.369,36.91425 c -4.922,12.37122 -9.6111,21.81594 -14.0673,28.33418 -4.4564,6.51813 -9.5779,11.80584 -15.3643,15.86315 -5.7867,4.05717 -12.9035,7.21649 -21.3504,9.47799 -8.4471,2.26133 -17.9916,3.39203 -28.6335,3.39212 -10.775,-9e-5 -21.3504,-1.13079 -31.7263,-3.39212 l -4.9884,-43.89803 c 8.7796,1.72928 16.6945,2.59393 23.7448,2.59397 13.0364,-4e-5 22.6806,-3.82448 28.9328,-11.47334 6.2521,-7.64892 11.0409,-17.39295 14.3666,-29.2321 z"
     style="font-size:408.65072632px;font-style:normal;font-variant:normal;font-weight:bold;font-stretch:normal;text-align:start;line-height:125%;letter-spacing:0px;word-spacing:0px;writing-mode:lr-tb;text-anchor:start;fill:#000000;fill-opacity:1;stroke:none;font-family:Sans;-inkscape-font-specification:Sans Bold"
     id="path3077"
     inkscape:connector-curvature="0" /><path
     d="m 2196.0862,223.47667 55.8702,9.37821 c -7.1835,20.48578 -18.5238,36.08287 -34.0209,46.79131 -15.4975,10.70846 -34.8858,16.06268 -58.1649,16.06269 -36.8478,-1e-5 -64.1178,-12.0387 -81.81,-36.11611 -13.9676,-19.28848 -20.9513,-43.6319 -20.9513,-73.03035 0,-35.11829 9.1786,-62.62104 27.536,-82.50834 18.3573,-19.886928 41.57,-29.830488 69.6382,-29.830708 31.5267,2.2e-4 56.4022,10.40936 74.6267,31.227458 18.2241,20.81848 26.9372,52.71103 26.1393,95.67775 l -140.4737,0 c 0.399,16.62811 4.9218,29.56472 13.5685,38.80985 8.6465,9.24523 19.4214,13.86782 32.3249,13.86778 8.7795,4e-5 16.1623,-2.3944 22.1485,-7.18331 5.986,-4.78883 10.5088,-12.50423 13.5685,-23.14623 z m 3.1926,-56.66837 c -0.3992,-16.22882 -4.5895,-28.56682 -12.5708,-37.01401 -7.9816,-8.44688 -17.6924,-12.6704 -29.1323,-12.67057 -12.2384,1.7e-4 -22.3482,4.45648 -30.3296,13.36894 -7.9815,8.91278 -11.9057,21.01799 -11.7726,36.31564 z"
     style="font-size:408.65072632px;font-style:normal;font-variant:normal;font-weight:bold;font-stretch:normal;text-align:start;line-height:125%;letter-spacing:0px;word-spacing:0px;writing-mode:lr-tb;text-anchor:start;fill:#000000;fill-opacity:1;stroke:none;font-family:Sans;-inkscape-font-specification:Sans Bold"
     id="path3079"
     inkscape:connector-curvature="0" /><path
     d="m 2354.5181,290.92 -56.0697,0 0,-211.907748 52.079,0 0,30.130008 c 8.9126,-14.233408 16.9273,-23.611608 24.0442,-28.134648 7.1166,-4.52261 15.1979,-6.78402 24.2436,-6.78424 12.7702,2.2e-4 25.075,3.52536 36.9143,10.57544 l -17.3597,48.886438 c -9.4448,-6.11896 -18.2244,-9.17852 -26.3388,-9.17868 -7.8485,1.6e-4 -14.4998,2.16181 -19.9536,6.48493 -5.4541,4.32345 -9.7442,12.13862 -12.8702,23.44554 -3.1261,11.30719 -4.6891,34.9855 -4.6891,71.03499 z"
     style="font-size:408.65072632px;font-style:normal;font-variant:normal;font-weight:bold;font-stretch:normal;text-align:start;line-height:125%;letter-spacing:0px;word-spacing:0px;writing-mode:lr-tb;text-anchor:start;fill:#000000;fill-opacity:1;stroke:none;font-family:Sans;-inkscape-font-specification:Sans Bold"
     id="path3081"
     inkscape:connector-curvature="0" /><path
     d="m 2459.6739,50.279002 0,-51.8794896 56.0697,0 0,51.8794896 z m 0,240.640998 0,-211.907748 56.0697,0 0,211.907748 z"
     style="font-size:408.65072632px;font-style:normal;font-variant:normal;font-weight:bold;font-stretch:normal;text-align:start;line-height:125%;letter-spacing:0px;word-spacing:0px;writing-mode:lr-tb;text-anchor:start;fill:#000000;fill-opacity:1;stroke:none;font-family:Sans;-inkscape-font-specification:Sans Bold"
     id="path3083"
     inkscape:connector-curvature="0" /><path
     d="m 2553.2564,230.46044 56.2693,-8.58007 c 2.3944,10.90806 7.2498,19.18881 14.5662,24.8423 7.3162,5.65357 17.5591,8.48033 30.7286,8.4803 14.4995,3e-5 25.4075,-2.66045 32.724,-7.98146 4.9217,-3.72464 7.3827,-8.71304 7.3828,-14.96524 -10e-5,-4.25671 -1.3303,-7.78185 -3.9907,-10.57543 -2.7936,-2.66042 -9.0458,-5.12136 -18.7564,-7.38285 -45.2284,-9.97674 -73.8951,-19.0889 -86.0002,-27.3365 -16.7611,-11.43998 -25.1417,-27.33637 -25.1416,-47.68922 -10e-5,-18.35719 7.2498,-33.78799 21.7494,-46.292468 14.4996,-12.50407 36.9807,-18.75621 67.4434,-18.75643 28.9991,2.2e-4 50.5491,4.72258 64.6498,14.16709 14.1004,9.44492 23.8112,23.412458 29.1323,41.902668 l -52.8771,9.77728 c -2.2616,-8.24734 -6.5516,-14.56599 -12.8702,-18.95596 -6.3187,-4.38963 -15.3311,-6.58453 -27.0371,-6.58471 -14.7658,1.8e-4 -25.3413,2.06206 -31.7263,6.18564 -4.2569,2.9267 -6.3853,6.71789 -6.3852,11.37358 -1e-4,3.99088 1.8623,7.383 5.587,10.17636 5.0549,3.72482 22.5143,8.97928 52.3783,15.76338 29.8638,6.78437 50.7154,15.09838 62.5547,24.94206 11.706,9.97692 17.559,23.87795 17.5592,41.70313 -2e-4,19.42159 -8.1146,36.11613 -24.3434,50.08365 -16.2292,13.96756 -40.24,20.95133 -72.0327,20.95134 -28.8664,-1e-5 -51.7133,-5.85307 -68.5408,-17.55922 -16.8276,-11.70611 -27.8353,-27.6025 -33.0233,-47.68922 z"
     style="font-size:408.65072632px;font-style:normal;font-variant:normal;font-weight:bold;font-stretch:normal;text-align:start;line-height:125%;letter-spacing:0px;word-spacing:0px;writing-mode:lr-tb;text-anchor:start;fill:#000000;fill-opacity:1;stroke:none;font-family:Sans;-inkscape-font-specification:Sans Bold"
     id="path3085"
     inkscape:connector-curvature="0" /><path
     d="m 2985.253,141.66671 -55.2716,9.97682 c -1.8625,-11.04087 -6.086,-19.35488 -12.6706,-24.94206 -6.5848,-5.58685 -15.1316,-8.38036 -25.6404,-8.38053 -13.9677,1.7e-4 -25.1084,4.8223 -33.4224,14.46639 -8.3141,9.64441 -12.4711,25.7736 -12.471,48.3876 -1e-4,25.14168 4.2235,42.90041 12.6706,53.27624 8.4469,10.37595 19.7872,15.56389 34.021,15.56385 10.6418,4e-5 19.3548,-3.02626 26.1392,-9.07891 6.7841,-6.05255 11.573,-16.46169 14.3667,-31.22746 l 55.072,9.37821 c -5.7202,25.27467 -16.6947,44.36364 -32.9235,57.26698 -16.2291,12.90336 -37.9786,19.35503 -65.2484,19.35504 -30.9948,-1e-5 -55.704,-9.77729 -74.1278,-29.33187 -18.4239,-19.55453 -27.6358,-46.62495 -27.6358,-81.21135 0,-34.98526 9.2451,-62.22196 27.7355,-81.71019 18.4904,-19.487858 43.4989,-29.231878 75.0258,-29.232098 25.8065,2.2e-4 46.3255,5.55398 61.557,16.6613 15.2311,11.107718 26.1723,28.035048 32.8237,50.782038 z"
     style="font-size:408.65072632px;font-style:normal;font-variant:normal;font-weight:bold;font-stretch:normal;text-align:start;line-height:125%;letter-spacing:0px;word-spacing:0px;writing-mode:lr-tb;text-anchor:start;fill:#000000;fill-opacity:1;stroke:none;font-family:Sans;-inkscape-font-specification:Sans Bold"
     id="path3087"
     inkscape:connector-curvature="0" /><path
     d="m 3083.824,-1.6004876 0,107.5501676 c 18.0912,-21.150668 39.7076,-31.726088 64.8494,-31.726308 12.9032,2.2e-4 24.5428,2.39466 34.9188,7.18332 10.3758,4.78908 18.1909,10.90819 23.4456,18.35735 5.2542,7.449548 8.8459,15.697048 10.775,24.742528 1.9286,9.04581 2.893,23.07986 2.8932,42.1022 l 0,124.31123 -56.0697,0 0,-111.93997 c -2e-4,-22.21493 -1.0644,-36.31549 -3.1926,-42.30174 -2.1286,-5.98593 -5.8865,-10.74154 -11.2738,-14.26685 -5.3876,-3.52498 -12.1386,-5.28755 -20.253,-5.28772 -9.3118,1.7e-4 -17.6258,2.26158 -24.942,6.78424 -7.3165,4.52299 -12.6707,11.34048 -16.0627,20.45249 -3.3922,9.1123 -5.0883,22.581 -5.0882,40.40614 l 0,106.15341 -56.0697,0 0,-292.5204876 z"
     style="font-size:408.65072632px;font-style:normal;font-variant:normal;font-weight:bold;font-stretch:normal;text-align:start;line-height:125%;letter-spacing:0px;word-spacing:0px;writing-mode:lr-tb;text-anchor:start;fill:#000000;fill-opacity:1;stroke:none;font-family:Sans;-inkscape-font-specification:Sans Bold"
     id="path3089"
     inkscape:connector-curvature="0" /><path
     d="m 3400.4884,223.47667 55.8702,9.37821 c -7.1835,20.48578 -18.5238,36.08287 -34.0209,46.79131 -15.4975,10.70846 -34.8858,16.06268 -58.1649,16.06269 -36.8478,-1e-5 -64.1178,-12.0387 -81.81,-36.11611 -13.9675,-19.28848 -20.9513,-43.6319 -20.9513,-73.03035 0,-35.11829 9.1787,-62.62104 27.536,-82.50834 18.3573,-19.886928 41.5701,-29.830488 69.6383,-29.830708 31.5266,2.2e-4 56.4021,10.40936 74.6266,31.227458 18.2241,20.81848 26.9372,52.71103 26.1393,95.67775 l -140.4737,0 c 0.399,16.62811 4.9218,29.56472 13.5685,38.80985 8.6465,9.24523 19.4214,13.86782 32.3249,13.86778 8.7795,4e-5 16.1623,-2.3944 22.1485,-7.18331 5.986,-4.78883 10.5088,-12.50423 13.5685,-23.14623 z m 3.1926,-56.66837 c -0.3992,-16.22882 -4.5895,-28.56682 -12.5708,-37.01401 -7.9816,-8.44688 -17.6923,-12.6704 -29.1323,-12.67057 -12.2384,1.7e-4 -22.3482,4.45648 -30.3296,13.36894 -7.9815,8.91278 -11.9057,21.01799 -11.7726,36.31564 z"
     style="font-size:408.65072632px;font-style:normal;font-variant:normal;font-weight:bold;font-stretch:normal;text-align:start;line-height:125%;letter-spacing:0px;word-spacing:0px;writing-mode:lr-tb;text-anchor:start;fill:#000000;fill-opacity:1;stroke:none;font-family:Sans;-inkscape-font-specification:Sans Bold"
     id="path3091"
     inkscape:connector-curvature="0" /><path
     d="m 3485.4908,230.46044 56.2693,-8.58007 c 2.3944,10.90806 7.2498,19.18881 14.5662,24.8423 7.3162,5.65357 17.5591,8.48033 30.7286,8.4803 14.4995,3e-5 25.4075,-2.66045 32.724,-7.98146 4.9217,-3.72464 7.3827,-8.71304 7.3828,-14.96524 -1e-4,-4.25671 -1.3304,-7.78185 -3.9907,-10.57543 -2.7937,-2.66042 -9.0458,-5.12136 -18.7564,-7.38285 -45.2284,-9.97674 -73.8951,-19.0889 -86.0003,-27.3365 -16.7611,-11.43998 -25.1416,-27.33637 -25.1416,-47.68922 0,-18.35719 7.2498,-33.78799 21.7495,-46.292468 14.4996,-12.50407 36.9807,-18.75621 67.4433,-18.75643 28.9992,2.2e-4 50.5491,4.72258 64.6499,14.16709 14.1004,9.44492 23.8111,23.412458 29.1323,41.902668 l -52.8772,9.77728 c -2.2615,-8.24734 -6.5516,-14.56599 -12.8701,-18.95596 -6.3188,-4.38963 -15.3312,-6.58453 -27.0372,-6.58471 -14.7658,1.8e-4 -25.3412,2.06206 -31.7263,6.18564 -4.2568,2.9267 -6.3852,6.71789 -6.3851,11.37358 -10e-5,3.99088 1.8622,7.383 5.587,10.17636 5.0548,3.72482 22.5143,8.97928 52.3783,15.76338 29.8638,6.78437 50.7154,15.09838 62.5547,24.94206 11.7059,9.97692 17.559,23.87795 17.5592,41.70313 -2e-4,19.42159 -8.1147,36.11613 -24.3434,50.08365 -16.2292,13.96756 -40.24,20.95133 -72.0327,20.95134 -28.8664,-1e-5 -51.7133,-5.85307 -68.5408,-17.55922 -16.8276,-11.70611 -27.8354,-27.6025 -33.0233,-47.68922 z"
     style="font-size:408.65072632px;font-style:normal;font-variant:normal;font-weight:bold;font-stretch:normal;text-align:start;line-height:125%;letter-spacing:0px;word-spacing:0px;writing-mode:lr-tb;text-anchor:start;fill:#000000;fill-opacity:1;stroke:none;font-family:Sans;-inkscape-font-specification:Sans Bold"
     id="path3093"
     inkscape:connector-curvature="0" /></g></svg>