<?xml version="1.0" encoding="UTF-8"?>
<!-- Generator: Adobe Illustrator 25.2.0, SVG Export Plug-In . SVG Version: 6.00 Build 0)  -->
<svg version="1.1" xmlns="http://www.w3.org/2000/svg" xmlns:xlink="http://www.w3.org/1999/xlink" x="0px" y="0px" viewBox="0 0 563.9 132.6" style="enable-background:new 0 0 563.9 132.6;" xml:space="preserve">
<style type="text/css">
	.st0{fill:none;}
	.st1{fill:#D7BA88;}
	.st2{fill:#0F3340;}
</style>
<g id="_x37__1_">
	<g>
		<path class="st0" d="M563.7,0.1c0.1,0,0.2,0,0.2,0c0,0.4,0,0.7,0,1.1c0,43.8,0,87.6,0,131.4c-36.4,0-72.8,0-109.2,0    c0-32.3,0-64.7,0-97c0.4,0.1,0.8,0.2,1.3,0.2c4.6,0,9.2,0,13.8,0c0.3,0,0.6,0,1-0.1c0.5-1.1,1-2.1,1.4-3.2    c0.8-1.7,1.6-3.5,2.4-5.2c1.3-2.8,2.5-5.7,3.8-8.5c0.7-1.7,1.5-3.3,2.3-5c1.1-2.5,2.2-5,3.3-7.5c0.9-2.1,1.8-4.1,2.7-6.2    c12.9,0,25.7,0,38.6,0c-0.2,0.3-0.4,0.7-0.5,1c-0.8,1.8-1.6,3.6-2.5,5.4c-0.7,1.6-1.5,3.3-2.2,4.9c-1.2,2.7-2.4,5.4-3.6,8.2    c-0.8,1.7-1.6,3.5-2.3,5.2c-1.2,2.7-2.4,5.4-3.6,8.1c-0.8,1.8-1.6,3.5-2.4,5.3c-1.2,2.7-2.4,5.4-3.6,8.2c-0.7,1.6-1.4,3.2-2.1,4.8    c-1.3,2.8-2.5,5.7-3.8,8.5c-0.7,1.7-1.5,3.3-2.3,5c-1.1,2.5-2.2,5.1-3.4,7.6c-0.8,1.9-1.7,3.8-2.6,5.7c-1.7,3.9-3.4,7.9-5.2,11.8    c-1.3,2.9-2.6,5.9-3.9,8.8c-1.6,3.6-3.2,7.3-4.8,10.9c-1.3,3-2.7,6-4,9c-1.5,3.3-2.9,6.5-4.4,9.8c-0.5,1.2-1.1,2.4-1.6,3.7    c2.1,0.2,38.1,0.1,39-0.1c0.4-0.8,0.8-1.6,1.1-2.4c1.2-2.7,2.3-5.3,3.5-8c0.7-1.7,1.5-3.3,2.3-5c1.1-2.5,2.2-5.1,3.4-7.6    c0.8-1.7,1.6-3.5,2.3-5.2c1.1-2.6,2.3-5.2,3.4-7.7c0.7-1.6,1.4-3.2,2.1-4.8c1.1-2.5,2.2-5,3.3-7.5c0.8-1.8,1.6-3.5,2.4-5.3    c1.2-2.7,2.4-5.4,3.6-8.2c0.7-1.6,1.5-3.3,2.2-4.9c1.1-2.4,2.1-4.8,3.1-7.2c0.8-1.7,1.6-3.5,2.4-5.2c1.1-2.5,2.2-5.1,3.4-7.6    c0.8-1.7,1.6-3.5,2.3-5.2c1.2-2.7,2.4-5.4,3.6-8.1c0.7-1.6,1.5-3.3,2.2-4.9c1.1-2.5,2.2-5.1,3.4-7.6c0.7-1.6,1.4-3.2,2.1-4.8    c1.5-3.4,3-6.8,4.5-10.2C562.5,2.9,563.1,1.5,563.7,0.1z"/>
		<path class="st1" d="M563.7,0.1c-0.6,1.4-1.2,2.9-1.8,4.3c-1.5,3.4-3,6.8-4.5,10.2c-0.7,1.6-1.4,3.2-2.1,4.8    c-1.1,2.5-2.2,5.1-3.4,7.6c-0.7,1.6-1.5,3.3-2.2,4.9c-1.2,2.7-2.4,5.4-3.6,8.1c-0.8,1.7-1.6,3.5-2.3,5.2c-1.1,2.5-2.2,5.1-3.4,7.6    c-0.8,1.7-1.6,3.5-2.4,5.2c-1.1,2.4-2.1,4.8-3.1,7.2c-0.7,1.6-1.5,3.3-2.2,4.9c-1.2,2.7-2.4,5.5-3.6,8.2c-0.8,1.8-1.6,3.5-2.4,5.3    c-1.1,2.5-2.2,5-3.3,7.5c-0.7,1.6-1.4,3.2-2.1,4.8c-1.1,2.6-2.3,5.2-3.4,7.7c-0.8,1.7-1.6,3.5-2.3,5.2c-1.1,2.5-2.2,5.1-3.4,7.6    c-0.7,1.7-1.5,3.3-2.3,5c-1.2,2.7-2.3,5.3-3.5,8c-0.4,0.8-0.7,1.6-1.1,2.4c-0.9,0.2-36.9,0.3-39,0.1c0.5-1.3,1-2.5,1.6-3.7    c1.5-3.3,2.9-6.5,4.4-9.8c1.3-3,2.7-6,4-9c1.6-3.6,3.2-7.3,4.8-10.9c1.3-2.9,2.6-5.9,3.9-8.8c1.7-3.9,3.4-7.9,5.2-11.8    c0.8-1.9,1.7-3.8,2.6-5.7c1.1-2.5,2.2-5.1,3.4-7.6c0.7-1.7,1.5-3.3,2.3-5c1.3-2.8,2.5-5.7,3.8-8.5c0.7-1.6,1.4-3.2,2.1-4.8    c1.2-2.7,2.4-5.5,3.6-8.2c0.8-1.8,1.6-3.5,2.4-5.3c1.2-2.7,2.4-5.4,3.6-8.1c0.8-1.7,1.6-3.5,2.3-5.2c1.2-2.7,2.4-5.4,3.6-8.2    c0.7-1.6,1.5-3.3,2.2-4.9c0.8-1.8,1.6-3.6,2.5-5.4c0.2-0.4,0.4-0.7,0.5-1C538,0.1,550.8,0.1,563.7,0.1z"/>
		<path class="st1" d="M486.6,0.1c-0.9,2.1-1.8,4.1-2.7,6.2c-1.1,2.5-2.2,5-3.3,7.5c-0.7,1.7-1.5,3.3-2.3,5    c-1.3,2.8-2.5,5.7-3.8,8.5c-0.8,1.7-1.6,3.5-2.4,5.2c-0.5,1-1,2.1-1.4,3.2c-0.3,0-0.7,0.1-1,0.1c-4.6,0-9.2,0-13.8,0    c-0.4,0-0.8-0.1-1.3-0.2c0-11.8,0-23.6,0-35.5C465.3,0.1,476,0.1,486.6,0.1z"/>
	</g>
</g>
<g id="HSP">
	<path class="st0" d="M34.6,49.6c0-0.6,0-1.1,0-1.6c0-15.5,0-31.1,0-46.6c0-1-0.2-1.4-1.3-1.4c-10.7,0-21.4,0-32.1,0   c-0.4,0-0.8,0-1.2,0.1c0,44,0,88,0,132c11.6,0,23,0,34.6,0c0-16.6,0-33,0-49.6c0.5,0,1-0.1,1.4-0.1c10.1,0,20.2,0,30.3,0   c1.3,0,1.5,0.4,1.5,1.6c0,15.5,0,31.1,0,46.6c0,0.5,0,1,0,1.6c11.6,0,23,0,34.6,0c0-0.5,0.1-0.9,0.1-1.3c0-43.1,0-86.2,0-129.3   c0-1.1-0.3-1.4-1.4-1.4c-10.6,0-21.3,0-31.9,0c-0.4,0-0.9,0-1.4,0.1c0,16.5,0,33,0,49.5C56.7,49.6,45.8,49.6,34.6,49.6z"/>
	<path class="st2" d="M209.4,132.4c-1.7-0.2-3.3-0.3-5-0.5c-8.1-0.9-16-2.8-23.1-7c-10.5-6.1-16.8-15.1-18.6-27.1   c-0.4-2.7-0.4-5.4-0.5-8.1c11,0,21.7,0,32.2,0c0.3,1.5,0.4,3,0.9,4.4c1,2.9,3.2,4.8,5.7,6.4c3.8,2.4,8.1,3.3,12.6,3.4   c3,0.1,6.1,0.1,9-1c3.8-1.4,6.3-4,6.8-8.2c0.2-2.3-0.3-4.4-2.1-5.8c-1.7-1.3-3.5-2.5-5.5-3.3c-7.6-2.8-15.3-5.4-23-8.2   c-6.1-2.2-12.1-4.6-17.5-8.2c-6.2-4.1-11.5-9.1-14.5-15.9C160.4,38.9,163,17.8,182.3,7c6.9-3.9,14.3-5.9,22.1-6.6   c8.6-0.8,17-0.2,25.3,2.2c7.6,2.2,14.4,5.8,20.1,11.4c6.6,6.4,10.5,14.2,11.4,23.4c0.1,1.5,0.2,2.9,0.3,4.5c-10.9,0-21.7,0-32.5,0   c-0.2-0.7-0.3-1.4-0.6-2.1c-1.6-4.7-5-7.8-9.5-9.5c-5-1.9-10.2-2.1-15.4-0.7c-3.4,0.9-6.2,2.8-7,6.5c-0.8,3.5,0,6.6,3,8.9   c2.5,1.9,5.3,3.3,8.2,4.3c7.8,2.8,15.7,5.5,23.6,8.4c3.4,1.2,6.7,2.6,10,4c6.5,2.8,11.6,7.3,15.8,12.9c3.4,4.6,4.8,9.8,5.2,15.4   c0.5,7.3-0.5,14.3-4,20.7c-4.6,8.5-11.8,13.9-20.6,17.5c-6.2,2.5-12.7,3.7-19.4,4.1c-0.5,0-1,0.2-1.5,0.3   C214.3,132.4,211.9,132.4,209.4,132.4z"/>
	<path class="st2" d="M320,132.4c0-0.5-0.1-0.9-0.1-1.4c0-43.2,0-86.3,0-129.5c0-1.2,0.3-1.5,1.5-1.5c15.5,0,31.1-0.2,46.6,0.1   c16.7,0.3,30.5,6.8,40.2,20.6c11.1,15.8,9.9,36.7-2.7,51.5c-8.5,10-19.3,15.7-32.4,16.9c-5.9,0.5-11.9,0.2-17.8,0.3   c-0.5,0-1,0-1.6,0c0,0.5-0.1,0.8-0.1,1.2c0,13.8,0,27.6,0,41.4c0,0.2,0,0.3,0,0.5C342.4,132.4,331.2,132.4,320,132.4z M353.6,58.5   c5,0,9.9,0,14.8,0c2.4,0,4.8-0.5,7-1.6c7.6-3.5,10.3-12.8,5.7-19.6c-2.9-4.2-7.3-6-12.2-6.2c-4.8-0.2-9.6-0.1-14.4-0.1   c-0.3,0-0.5,0.1-0.8,0.1C353.6,40.3,353.6,49.3,353.6,58.5z"/>
	<path class="st2" d="M34.6,49.6c11.1,0,22.1,0,33.2,0c0-16.5,0-32.9,0-49.5c0.6,0,1-0.1,1.4-0.1c10.6,0,21.3,0,31.9,0   c1.1,0,1.4,0.3,1.4,1.4c0,43.1,0,86.2,0,129.3c0,0.4,0,0.9-0.1,1.3c-11.6,0-23,0-34.6,0c0-0.6,0-1.1,0-1.6c0-15.5,0-31.1,0-46.6   c0-1.1-0.2-1.6-1.5-1.6c-10.1,0.1-20.2,0-30.3,0c-0.4,0-0.9,0-1.4,0.1c0,16.6,0,33,0,49.6c-11.6,0-23.1,0-34.6,0c0-44,0-87.9,0-132   c0.4,0,0.8-0.1,1.2-0.1c10.7,0,21.4,0,32.1,0c1.1,0,1.3,0.3,1.3,1.4c0,15.5,0,31.1,0,46.6C34.6,48.5,34.6,49,34.6,49.6z"/>
	<path class="st0" d="M353.6,58.5c0-9.2,0-18.2,0-27.3c0.2,0,0.5-0.1,0.8-0.1c4.8,0,9.6-0.1,14.4,0.1c5,0.2,9.3,2,12.2,6.2   c4.7,6.7,1.9,16-5.7,19.6c-2.2,1-4.5,1.6-7,1.6C363.5,58.5,358.6,58.5,353.6,58.5z"/>
</g>
</svg>