<?xml version="1.0" encoding="UTF-8"?>
<!-- Generator: Adobe Illustrator 22.1.0, SVG Export Plug-In . SVG Version: 6.00 Build 0)  -->
<svg width="572.25" height="171.85" version="1.1" viewBox="0 0 572.25 171.85" xml:space="preserve" xmlns="http://www.w3.org/2000/svg">
<style type="text/css">
	.st0{fill:#55C81E;}
	.st1{fill:#FFFFFF;}
</style>

<g transform="matrix(.55108 0 0 .55108 2.8768 1.4384)"><rect class="st0" width="1029.3" height="307.5"/>
	<g id="Düsseldorf">
		<path class="st1" d="m125.7 205.9c0 29.1-9.3 41.1-34 41.1-10.3 0-21.2-0.3-30.4-1-1.3-0.1-1.6-0.3-1.6-1.4v-77.3c0-1.2 0.3-1.4 1.6-1.5 9.2-0.8 20.1-1.2 30.4-1.2 24.6 0.1 34 12.4 34 41.3zm-49.5-26.8v53.6h15.5c12.7 0 17.3-8 17.3-26.7s-4.8-26.9-18.1-26.9z"/>
		<path class="st1" d="m189.4 187.8c1 0 1.5 0.5 1.5 1.6v54.1c0 1.4-0.4 1.6-1.5 1.8-7.1 1.4-17.3 1.8-25.2 1.8-20.1 0-25.3-3.8-25.3-25.3v-32.4c0-1 0.6-1.6 1.7-1.6h12.4c1 0 1.5 0.5 1.5 1.6v28.4c0 15.1 1.7 15.8 11.3 15.8h9.4v-44.3c0-1 0.5-1.6 1.6-1.6h12.6zm-28.9-15c0 4.9-2.7 7.8-8.1 7.8s-8.2-2.8-8.2-7.8c0-4.8 2.8-7.7 8.2-7.7s8.1 2.8 8.1 7.7zm23.2 0c0 4.9-2.7 7.8-8.1 7.8-5.3 0-8.1-2.8-8.1-7.8 0-4.8 2.7-7.7 8.1-7.7s8.1 2.8 8.1 7.7z"/>
		<path class="st1" d="m246.2 188.6c1.3 0.3 1.7 0.7 1.7 1.7v8c0 1.2-0.4 1.7-1.8 1.7h-18.9c-4.1 0-6.2 1.2-6.2 3.8v1c0 2 1.3 3.5 5 4.8l13.4 4.7c8.9 3.1 11 8.6 11 15.7v1.7c0 12.2-9 15.3-22.3 15.3-9.1 0-16.7-0.5-21.7-1-1.4 0-1.8-0.4-1.8-1.6v-8.5c0-1.2 0.5-1.6 1.8-1.6h21.6c5.6 0 7.2-0.7 7.2-3.6v-0.9c0-2-1.2-3.4-5.8-4.9l-12.9-4.6c-8.3-2.8-10.7-9.2-10.7-15.9v-2c0-11.2 8.7-15.1 23.8-15.1 4.5-0.1 10.5 0.3 16.6 1.3z"/>
		<path class="st1" d="m303 188.6c1.3 0.3 1.7 0.7 1.7 1.7v8c0 1.2-0.4 1.7-1.8 1.7h-18.9c-4.1 0-6.2 1.2-6.2 3.8v1c0 2 1.3 3.5 5 4.8l13.4 4.7c8.9 3.1 11 8.6 11 15.7v1.7c0 12.2-9 15.3-22.3 15.3-9.1 0-16.7-0.5-21.7-1-1.4 0-1.8-0.4-1.8-1.6v-8.5c0-1.2 0.5-1.6 1.8-1.6h21.5c5.6 0 7.2-0.7 7.2-3.6v-0.9c0-2-1.2-3.4-5.8-4.9l-12.9-4.6c-8.3-2.8-10.7-9.2-10.7-15.9v-2c0-11.2 8.7-15.1 23.8-15.1 4.6-0.1 10.6 0.3 16.7 1.3z"/>
		<path class="st1" d="m371 216.4v3.3c0 2.1-0.6 2.8-3.4 2.8h-32.9c0.2 9.4 2.7 11.1 11.9 11.1h18.6c1 0 1.6 0.5 1.6 1.6v8.7c0 1.2-0.5 1.6-1.5 1.7-5.6 1.2-13.1 1.5-20 1.5-21.2 0-26.3-6-26.3-29.9 0-24 5.1-29.9 26.3-29.9 20.6-0.1 25.6 5.7 25.7 29.1zm-36.4-4.1h20.8c-0.1-9.2-2.5-11.6-10.2-11.6-7.8 0-10.5 2.4-10.6 11.6z"/>
		<path class="st1" d="m398.5 165.3c1 0 1.6 0.5 1.6 1.6v77.9c0 1.2-0.5 1.7-1.6 1.7h-12.4c-1 0-1.6-0.5-1.6-1.7v-77.9c0-1 0.5-1.6 1.6-1.6z"/>
		<path class="st1" d="m465.4 165.3c1.2 0 1.6 0.5 1.6 1.7v75.4c0 1.6-0.8 2.4-2.2 2.6-8.6 1.4-15.8 2-23.1 2-22.1 0-27.2-6.2-27.2-29.8 0-23.3 4.9-30 24-30 4.8 0 9 0.2 12.9 0.6v-20.8c0-1.2 0.4-1.7 1.6-1.7zm-23.3 35.5c-10.6 0-12 2.8-12 16.4 0 12.4 0.8 16.5 11.3 16.5 2.5 0 6.9-0.2 10.1-0.7v-32.1h-9.4z"/>
		<path class="st1" d="m533.5 217.1c0 23.9-4.9 29.9-26.7 29.9-21.7 0-26.7-6-26.7-29.9 0-24 5-29.9 26.7-29.9 21.8 0 26.7 5.9 26.7 29.9zm-37.8 0c0 13.2 1.6 16.5 11.1 16.5 9.7 0 11.2-3.3 11.2-16.5s-1.6-16.5-11.2-16.5c-9.6 0.1-11.1 3.3-11.1 16.5z"/>
		<path class="st1" d="m579.2 188.4c1.2 0.3 1.7 0.7 1.7 2.1v8.6c0 1-0.6 1.6-1.8 1.6h-9.9c-5.5 0-7.3 0.8-7.3 5.3v38.8c0 1.2-0.5 1.7-1.6 1.7h-12.5c-1 0-1.6-0.5-1.6-1.7v-42.8c0-13.2 9.4-14.8 19-14.8 3.1 0 10.3 0.4 14 1.2z"/>
		<path class="st1" d="m630.2 165.8c1.2 0.2 1.7 0.7 1.7 2v8.7c0 1.2-0.6 1.7-1.8 1.7h-8.3c-4.1 0-5.9 0.5-5.9 4.1v5.6h12.8c1.2 0 1.5 0.5 1.3 1.8l-1.6 8.8c-0.2 1-0.8 1.5-1.8 1.5h-10.6v44.9c0 1.2-0.5 1.7-1.6 1.7h-12.4c-1 0-1.6-0.5-1.6-1.7v-44.9h-6.8c-1.2 0-1.8-0.5-1.8-1.6v-8.9c0-1 0.6-1.6 1.8-1.6h6.8v-8.3c0-13.2 9-14.8 18.5-14.8 3.3 0 7.5 0.3 11.3 1z"/>
	</g>
	<g id="Stadtwerke">
		<path class="st1" d="m108.9 59.3c1.2 0.4 1.8 0.9 1.8 1.8v8c0 1.3-0.6 1.8-1.9 1.8h-23.4c-6 0-9.1 2.1-9.1 6.4v1.4c0 3.5 1.4 5.7 5.8 7.4l18.5 7.2c9.5 3.8 13.8 8.4 13.8 19.9v2.8c0 14.7-11.4 19-28.5 19-7.3 0-15.1-0.6-24.5-2.1-1.3-0.3-1.7-0.9-1.7-2.2v-7.5c0-1.2 0.6-1.8 1.9-1.8h28.1c5.9 0 9-1.8 9-6.1v-1.3c0-4.3-2-6.2-7.1-8.2l-19.3-7.2c-8.2-3.1-11.8-8.7-11.8-20.2v-2.2c0-14.7 10.2-18.9 27.7-18.9 8.2 0 13 0.6 20.7 2z"/>
		<path class="st1" d="m141.7 63.8c1-0.3 1.6 0.4 1.6 1.5v14.2h9.1c1.1 0 1.7 0.5 1.7 1.5v7.9c0 1-0.6 1.5-1.7 1.5h-9.1v27c0 4.3 1.5 5.1 5.8 5.1h4.1c1.2 0 1.7 0.4 1.7 1.5v8.4c0 1.2-0.5 1.7-1.6 1.9-3.5 0.7-6.2 0.9-8.4 0.9-8.5 0-16.2-0.3-16.2-12.8v-32h-5.8c-1.1 0-1.6-0.5-1.6-1.5v-7.9c0-1 0.5-1.5 1.6-1.5h5.8v-11c0-1 0.4-1.4 1.4-1.6z"/>
		<path class="st1" d="m211.8 95.6v34.3c0 1.6-0.4 2.5-2.2 3.1-6.9 1.6-15.6 2.1-22.5 2.1-14.9 0-22.7-1.6-22.9-17.1 0.2-13.4 7.1-16.2 20.3-16.2h12.6v-3.6c0-4.8-3-6.8-9.3-6.8h-17.9c-1.1 0-1.4-0.3-1.4-1.5v-8.1c0-1.2 0.4-1.4 1.4-1.6 6-1.2 11.8-1.5 17.9-1.5 19.6-0.1 24 6.3 24 16.9zm-26 15.6c-5.1 0-6.9 1.7-6.9 5.9 0 4.8 2.2 6 8.4 6 2 0 7-0.2 9.9-1v-11h-11.4z"/>
		<path class="st1" d="m273.1 57.9c1.1 0 1.5 0.5 1.5 1.6v71.2c0 1.5-0.8 2.3-2.1 2.5-8.1 1.3-15 1.9-21.8 1.9-20.9 0-25.6-5.8-25.6-28.1 0-22 4.7-28.3 22.7-28.3 4.6 0 8.5 0.2 12.2 0.6v-19.8c0-1.1 0.4-1.6 1.5-1.6zm-22.1 33.5c-10 0-11.3 2.7-11.3 15.4 0 11.7 0.8 15.5 10.7 15.5 2.4 0 6.5-0.2 9.5-0.7v-30.2z"/>
		<path class="st1" d="m306.4 63.8c1-0.3 1.6 0.4 1.6 1.5v14.2h9.1c1.1 0 1.7 0.5 1.7 1.5v7.9c0 1-0.6 1.5-1.7 1.5h-9.1v27c0 4.3 1.5 5.1 5.8 5.1h4.1c1.2 0 1.7 0.4 1.7 1.5v8.4c0 1.2-0.5 1.7-1.6 1.9-3.5 0.7-6.2 0.9-8.4 0.9-8.5 0-16.2-0.3-16.2-12.8v-32h-5.8c-1.1 0-1.6-0.5-1.6-1.5v-7.9c0-1 0.5-1.5 1.6-1.5h5.8v-11c0-1 0.4-1.4 1.4-1.6z"/>
		<path class="st1" d="m410.3 79.1c1 0 1.3 0.3 1.2 1.4l-8.5 44.7c-1.7 8.8-4.5 9.9-13.6 9.9-11.4 0-12.6-1.1-14.6-9.9l-4.9-22-4.9 22c-1.9 8.8-3.2 9.9-14.5 9.9-9.2 0-11.9-1.1-13.7-9.9l-8.4-44.7c-0.2-1.1 0.2-1.4 1.2-1.4h12.6c0.6 0 0.9 0.3 1.1 1.4l6.8 40.4c0.4 1.7 0.7 1.9 1.6 1.9 1.1 0 1.3-0.2 1.6-1.9l9.2-38.7c0.3-1.1 0.8-1.4 1.6-1.4h11.6c0.7 0 1.3 0.3 1.5 1.4l9.2 38.7c0.4 1.7 0.6 1.9 1.6 1.9 0.9 0 1.3-0.2 1.7-1.9l6.8-40.4c0.2-1.1 0.4-1.4 1.1-1.4z"/>
		<path class="st1" d="m469.7 106.1v3.1c0 2-0.6 2.7-3.2 2.7h-31.1c0.2 8.9 2.6 10.5 11.2 10.5h17.5c1 0 1.5 0.5 1.5 1.5v8.2c0 1.1-0.5 1.5-1.4 1.6-5.2 1.1-12.4 1.4-18.9 1.4-20 0-24.9-5.6-24.9-28.2 0-22.7 4.9-28.2 24.9-28.2 19.6-0.1 24.3 5.4 24.4 27.4zm-34.3-3.8h19.6c-0.1-8.7-2.4-11-9.6-11-7.4 0-9.9 2.3-10 11z"/>
		<path class="st1" d="m513.5 79.7c1.1 0.3 1.6 0.7 1.6 2v8.1c0 1-0.6 1.5-1.7 1.5h-9.3c-5.1 0-6.9 0.8-6.9 5.1v36.6c0 1.1-0.5 1.6-1.5 1.6h-11.8c-1 0-1.5-0.5-1.5-1.6v-40.4c0-12.5 8.9-14 17.9-14 2.9 0 9.7 0.3 13.2 1.1z"/>
		<path class="st1" d="m538.9 57.9c1 0 1.5 0.6 1.5 1.6v38.6l14.2-18c0.5-0.6 1.2-1 2.1-1h13.3c1.8 0 1.8 0.8 0.9 1.9l-15.9 19.9 20.3 31c0.7 1.3 1 2.7-1.7 2.7h-12.5c-1 0-1.8-0.4-2.2-1.1l-18.5-29.2v28.7c0 1.1-0.5 1.6-1.5 1.6h-11.7c-1 0-1.5-0.5-1.5-1.6v-73.5c0-1 0.5-1.6 1.5-1.6z"/>
		<path class="st1" d="m631.9 106.1v3.1c0 2-0.6 2.7-3.2 2.7h-31.1c0.2 8.9 2.6 10.5 11.2 10.5h17.5c1 0 1.5 0.5 1.5 1.5v8.2c0 1.1-0.5 1.5-1.4 1.6-5.2 1.1-12.4 1.4-18.9 1.4-20 0-24.9-5.6-24.9-28.2 0-22.7 4.9-28.2 24.9-28.2 19.6-0.1 24.3 5.4 24.4 27.4zm-34.3-3.8h19.6c-0.1-8.7-2.4-11-9.6-11-7.5 0-9.9 2.3-10 11z"/>
	</g>
	
		<path id="NEU_10_" class="st1" d="m721.1 160.7s76.9 0 138.9 5.1c53.5 3.9 84 11.5 97.3 15.6 4.3 1.3 8.7-1.2 9.8-5.6 1.6-6.5 2.4-14.2 2.4-21.2 0-6.9-0.8-14.5-2.4-21-1.1-4.4-5.5-6.9-9.8-5.6-13.3 4.1-43.9 11.6-97.3 15.6-62.1 5.1-138.9 5.1-138.9 5.1h-43.1c-0.9 0-1.7 0.7-1.7 1.7v8.8c0 0.9 0.7 1.7 1.7 1.7h43.1z"/>
		<path id="NEU_9_" class="st1" d="m877.8 114.4c-48.7 21.3-117.5 20.9-138.7 20.9h-61.1c-0.9 0-1.7-0.7-1.7-1.7v-8.8c0-0.9 0.7-1.7 1.7-1.7h47.3s52.9 0 90.4-13.3c43.5-15.4 64.2-41.7 70.6-51.5 1.5-2.2 4.2-3.1 6.8-2.3 13.9 4.7 26.6 11.4 37.4 20 3 2.3 2.9 6.9-0.1 9.1-8.3 6.5-26.1 17.7-52.6 29.3z"/>
		<path id="NEU_8_" class="st1" d="m877.8 194.9c-48.7-21.3-117.5-20.9-138.7-20.9h-61.1c-0.9 0-1.7 0.7-1.7 1.7v8.8c0 0.9 0.7 1.7 1.7 1.7h47.3s52.9 0 90.4 13.3c43.5 15.4 64.2 41.7 70.6 51.5 1.5 2.2 4.2 3.2 6.8 2.3 13.9-4.9 26.6-11.4 37.4-20 3-2.3 2.9-6.9-0.1-9.1-8.3-6.5-26.1-17.6-52.6-29.3z"/>
		<path id="NEU_1_" class="st1" d="m678 110c-0.9 0-1.7-0.7-1.7-1.7v-8.8c0-0.9 0.7-1.7 1.7-1.7h23.9c16.9 0 29.5-2.5 42.9-8.3 18.1-7.7 26.4-15.1 36.2-22.2 6.8-5 22.2-17.6 50.6-19.4 4.3-0.2 5.5 2.3 3.5 5.8-18 31.3-45.8 44.2-63.9 49.8-24.6 7.5-93.2 6.5-93.2 6.5z"/>
		<path id="NEU_2_" class="st1" d="m678 199.4c-0.9 0-1.7 0.7-1.7 1.7v8.8c0 0.9 0.7 1.7 1.7 1.7h23.9c16.9 0 29.5 2.5 42.9 8.3 18.1 7.7 26.4 15.1 36.2 22.2 6.8 5 22.2 17.6 50.6 19.4 4.3 0.2 5.5-2.3 3.5-5.8-18-31.3-45.8-44.2-63.9-49.8-24.6-7.6-93.2-6.5-93.2-6.5z"/>
	
</g>
</svg>
