<?xml version="1.0" encoding="UTF-8"?>
<svg xmlns="http://www.w3.org/2000/svg" xmlns:xlink="http://www.w3.org/1999/xlink" width="116.001" height="116" viewBox="0 0 116.001 116">
  <defs>
    <style>.a{fill:none;}.b{fill:#9e1a1f;}.c{clip-path:url(#a);}.d{fill:#fff;}</style>
    <clipPath id="a">
      <rect class="a" width="115.999" height="116" transform="translate(0 0)"></rect>
    </clipPath>
  </defs>
  <g transform="translate(0 0)">
    <rect class="b" width="116.001" height="116" transform="translate(0 0)"></rect>
    <g class="c">
      <path class="d" d="M39.9,16.419v9.919c0,2.244-1.069,3.478-3.012,3.478s-3.01-1.235-3.01-3.478V16.419H30.444v9.965c0,4.129,2.408,6.6,6.441,6.6s6.443-2.467,6.443-6.6V16.419Z"></path>
    </g>
    <rect class="d" width="3.171" height="3.167" transform="translate(31.992 10.544)"></rect>
    <rect class="d" width="3.167" height="3.167" transform="translate(38.54 10.544)"></rect>
    <g class="c">
      <path class="d" d="M52.3,19.418h3.112a2.964,2.964,0,0,1,2.114.843c1.087,1.087,1.087,2.935,1.087,4.283s0,3.217-1.087,4.3a2.964,2.964,0,0,1-2.114.843H52.3Zm7.932-1.262a6.325,6.325,0,0,0-4.649-1.785H49.141V32.738h6.445a6.325,6.325,0,0,0,4.649-1.785c1.7-1.751,1.935-4.222,1.935-6.409s-.234-4.638-1.935-6.389"></path>
      <path class="d" d="M16.917,75.332h3.515c1.178,0,2.585.377,2.585,2.185,0,1.792-1.871,1.985-2.674,1.985H16.917Zm3.492-2.585H16.917V69h3.426c1.066,0,2.339.33,2.339,1.9,0,1.23-.764,1.851-2.273,1.851m3.833,1.282a4,4,0,0,0,1.723-3.31,4.391,4.391,0,0,0-1.946-3.651,6.756,6.756,0,0,0-3.788-.909H13.7v16.3h6.532a6.727,6.727,0,0,0,4.358-1.123A4.5,4.5,0,0,0,26.3,77.583a4.1,4.1,0,0,0-2.055-3.553"></path>
      <path class="d" d="M39.813,76.08h-4.32c.08-.23,2-6.12,2.16-6.6.164.482,2.082,6.373,2.16,6.6m-.15-9.9H35.771L30.046,82.475h3.237s1-3.417,1.046-3.544h6.7c.041.127,1.044,3.544,1.044,3.544h3.312Z"></path>
      <path class="d" d="M58.769,66.218v9.919c0,2.242-1.071,3.478-3.012,3.478s-3.012-1.237-3.012-3.478V66.218H49.314V76.18c0,4.131,2.408,6.6,6.443,6.6s6.441-2.467,6.441-6.6V66.218Z"></path>
    </g>
    <path class="d" d="M22.049,41.116v6.132H16.513V41.116H12.989V57.483h3.524V50.642h5.536v6.841h3.528V41.116Z"></path>
    <g class="c">
      <path class="d" d="M58.5,41.2v9.917c0,2.244-1.071,3.481-3.01,3.481s-3.012-1.237-3.012-3.481V41.2H49.05v9.962c0,4.131,2.408,6.6,6.443,6.6s6.441-2.467,6.441-6.6V41.2Z"></path>
      <path class="d" d="M39.756,51.065h-4.32c.077-.232,2-6.12,2.16-6.6.164.484,2.08,6.373,2.16,6.6m-.15-9.9H35.714l-5.722,16.3h3.235s1-3.419,1.046-3.544h6.7c.041.125,1.044,3.544,1.044,3.544h3.312Z"></path>
      <path class="d" d="M24.367,31.21a7.25,7.25,0,0,1-5.145,1.755,7.164,7.164,0,0,1-4.87-1.68,5.443,5.443,0,0,1-1.639-2.962l3.433-.009a2.574,2.574,0,0,0,.6.946,3.624,3.624,0,0,0,2.524.791,3.735,3.735,0,0,0,2.608-.787,1.762,1.762,0,0,0,.573-1.389c0-1.148-.968-1.551-1.719-1.687l-1.851-.232-1.657-.193c-2.633-.43-4.185-2.158-4.185-4.62a4.585,4.585,0,0,1,1.444-3.267,6.946,6.946,0,0,1,4.788-1.732,6.7,6.7,0,0,1,4.563,1.594,5.212,5.212,0,0,1,1.607,2.849L22,20.6a2.4,2.4,0,0,0-.477-.771,3.459,3.459,0,0,0-2.273-.789,3.477,3.477,0,0,0-2.43.809,1.639,1.639,0,0,0-.484,1.209,1.514,1.514,0,0,0,1.444,1.53l2,.239,1.441.164c2.205.314,4.524,1.735,4.524,4.774a4.625,4.625,0,0,1-1.375,3.449"></path>
      <path class="d" d="M78.348,56A7.259,7.259,0,0,1,73.2,57.758a7.153,7.153,0,0,1-4.87-1.68,5.463,5.463,0,0,1-1.639-2.962l3.433-.009a2.615,2.615,0,0,0,.6.946,3.629,3.629,0,0,0,2.524.793,3.743,3.743,0,0,0,2.608-.787,1.771,1.771,0,0,0,.575-1.391c0-1.146-.968-1.548-1.719-1.687l-1.853-.23-1.655-.2c-2.635-.427-4.185-2.155-4.185-4.617a4.577,4.577,0,0,1,1.444-3.269,6.94,6.94,0,0,1,4.786-1.732,6.69,6.69,0,0,1,4.563,1.6,5.206,5.206,0,0,1,1.607,2.846l-3.44.011a2.456,2.456,0,0,0-.477-.771,3.859,3.859,0,0,0-4.7.02,1.625,1.625,0,0,0-.484,1.207,1.516,1.516,0,0,0,1.444,1.532l2.005.239,1.439.164c2.2.311,4.524,1.732,4.524,4.774A4.629,4.629,0,0,1,78.348,56"></path>
    </g>
  </g>
</svg>
